%TF.GenerationSoftware,KiCad,Pcbnew,9.0.1*%
%TF.CreationDate,2025-05-27T12:36:52-05:00*%
%TF.ProjectId,Motor_PCB,4d6f746f-725f-4504-9342-2e6b69636164,1.2*%
%TF.SameCoordinates,Original*%
%TF.FileFunction,Copper,L2,Bot*%
%TF.FilePolarity,Positive*%
%FSLAX46Y46*%
G04 Gerber Fmt 4.6, Leading zero omitted, Abs format (unit mm)*
G04 Created by KiCad (PCBNEW 9.0.1) date 2025-05-27 12:36:52*
%MOMM*%
%LPD*%
G01*
G04 APERTURE LIST*
G04 Aperture macros list*
%AMRoundRect*
0 Rectangle with rounded corners*
0 $1 Rounding radius*
0 $2 $3 $4 $5 $6 $7 $8 $9 X,Y pos of 4 corners*
0 Add a 4 corners polygon primitive as box body*
4,1,4,$2,$3,$4,$5,$6,$7,$8,$9,$2,$3,0*
0 Add four circle primitives for the rounded corners*
1,1,$1+$1,$2,$3*
1,1,$1+$1,$4,$5*
1,1,$1+$1,$6,$7*
1,1,$1+$1,$8,$9*
0 Add four rect primitives between the rounded corners*
20,1,$1+$1,$2,$3,$4,$5,0*
20,1,$1+$1,$4,$5,$6,$7,0*
20,1,$1+$1,$6,$7,$8,$9,0*
20,1,$1+$1,$8,$9,$2,$3,0*%
G04 Aperture macros list end*
%TA.AperFunction,ComponentPad*%
%ADD10R,1.700000X1.700000*%
%TD*%
%TA.AperFunction,ComponentPad*%
%ADD11C,1.700000*%
%TD*%
%TA.AperFunction,ComponentPad*%
%ADD12RoundRect,0.249900X-0.800100X0.800100X-0.800100X-0.800100X0.800100X-0.800100X0.800100X0.800100X0*%
%TD*%
%TA.AperFunction,ComponentPad*%
%ADD13C,2.100000*%
%TD*%
%TA.AperFunction,WasherPad*%
%ADD14C,3.810000*%
%TD*%
%TA.AperFunction,ComponentPad*%
%ADD15O,1.700000X1.700000*%
%TD*%
%TA.AperFunction,ComponentPad*%
%ADD16R,1.625600X1.625600*%
%TD*%
%TA.AperFunction,ComponentPad*%
%ADD17C,1.625600*%
%TD*%
%TA.AperFunction,ComponentPad*%
%ADD18C,2.032000*%
%TD*%
%TA.AperFunction,ComponentPad*%
%ADD19C,1.524000*%
%TD*%
%TA.AperFunction,ViaPad*%
%ADD20C,1.016000*%
%TD*%
%TA.AperFunction,ViaPad*%
%ADD21C,0.508000*%
%TD*%
%TA.AperFunction,Conductor*%
%ADD22C,0.635000*%
%TD*%
%TA.AperFunction,Conductor*%
%ADD23C,0.304800*%
%TD*%
G04 APERTURE END LIST*
D10*
%TO.P,J3,1,Pin_1*%
%TO.N,Net-(J3-Pin_1)*%
X118558000Y-105537000D03*
D11*
%TO.P,J3,2,Pin_2*%
%TO.N,Net-(J3-Pin_2)*%
X118558000Y-102997000D03*
%TO.P,J3,3,Pin_3*%
%TO.N,GND*%
X118558000Y-100457000D03*
%TO.P,J3,4,Pin_4*%
%TO.N,+BATT*%
X118558000Y-97917000D03*
%TO.P,J3,5,Pin_5*%
%TO.N,Motor_Encoder_A_9V*%
X118558000Y-95377000D03*
%TO.P,J3,6,Pin_6*%
%TO.N,Motor_Encoder_B_9V*%
X118558000Y-92837000D03*
%TD*%
D12*
%TO.P,J2,1,Pin_1*%
%TO.N,Net-(J2-Pin_1)*%
X119656000Y-81393000D03*
D13*
%TO.P,J2,2,Pin_2*%
%TO.N,Net-(J1-Pin_2)*%
X119656000Y-77357000D03*
%TD*%
D14*
%TO.P,H4,*%
%TO.N,*%
X170052998Y-110489999D03*
%TD*%
D10*
%TO.P,J5,1,Pin_1*%
%TO.N,GND*%
X150362999Y-70739000D03*
D15*
%TO.P,J5,2,Pin_2*%
%TO.N,Reset*%
X152902999Y-70739000D03*
%TD*%
D14*
%TO.P,H3,*%
%TO.N,*%
X111759999Y-110489999D03*
%TD*%
D16*
%TO.P,R10,1*%
%TO.N,+BATT*%
X119252999Y-110744000D03*
D17*
%TO.P,R10,2*%
%TO.N,Net-(U2-VM1)*%
X140436599Y-110744000D03*
%TD*%
D12*
%TO.P,J1,1,Pin_1*%
%TO.N,GND*%
X119656000Y-89267000D03*
D13*
%TO.P,J1,2,Pin_2*%
%TO.N,Net-(J1-Pin_2)*%
X119656000Y-85231000D03*
%TD*%
D14*
%TO.P,H2,*%
%TO.N,*%
X170052998Y-72389999D03*
%TD*%
%TO.P,H1,*%
%TO.N,*%
X111759999Y-72389999D03*
%TD*%
D10*
%TO.P,J6,1,Pin_1*%
%TO.N,GND*%
X157225999Y-70739000D03*
D15*
%TO.P,J6,2,Pin_2*%
%TO.N,SWCLK*%
X159765999Y-70739000D03*
%TO.P,J6,3,Pin_3*%
%TO.N,SWDIO*%
X162305999Y-70739000D03*
%TO.P,J6,4,Pin_4*%
%TO.N,+3V3*%
X164845999Y-70739000D03*
%TD*%
D10*
%TO.P,J8,1,Pin_1*%
%TO.N,Net-(J8-Pin_1)*%
X171703999Y-87639999D03*
D15*
%TO.P,J8,2,Pin_2*%
%TO.N,Net-(J8-Pin_2)*%
X171703999Y-90179999D03*
%TO.P,J8,3,Pin_3*%
%TO.N,Net-(J8-Pin_3)*%
X171703999Y-92719999D03*
%TO.P,J8,4,Pin_4*%
%TO.N,Net-(J8-Pin_4)*%
X171703999Y-95259999D03*
%TD*%
D18*
%TO.P,J7,*%
%TO.N,*%
X157479570Y-108623100D03*
X164889570Y-108623100D03*
D19*
%TO.P,J7,1,Pin_1*%
%TO.N,GND*%
X163092970Y-110096300D03*
%TO.P,J7,2,Pin_2*%
%TO.N,Status_LED_R*%
X161822970Y-112636300D03*
%TO.P,J7,3,Pin_3*%
%TO.N,Status_LED_G*%
X160552970Y-110096300D03*
%TO.P,J7,4,Pin_4*%
%TO.N,Status_LED_B*%
X159282970Y-112636300D03*
%TD*%
D20*
%TO.N,+BATT*%
X130174999Y-96774000D03*
X129412999Y-103886000D03*
X130174999Y-93980000D03*
X133832499Y-78980000D03*
D21*
X136905999Y-84201000D03*
%TO.N,GND*%
X154431999Y-81026000D03*
X152780999Y-81026000D03*
%TO.N,+3V3*%
X157225999Y-73406000D03*
X131317999Y-85217000D03*
X144906999Y-83058000D03*
X155828999Y-109093000D03*
X166623999Y-88900000D03*
X152907999Y-104902000D03*
X137540999Y-105791000D03*
X157733999Y-103251000D03*
X166242999Y-106553000D03*
X149986999Y-108077000D03*
X158368999Y-86106000D03*
X133669999Y-97978000D03*
X137159999Y-90678000D03*
X149732999Y-95250000D03*
X172465999Y-76708000D03*
X172465999Y-78740000D03*
X144525999Y-100584000D03*
X155193999Y-96266000D03*
X147446999Y-79883000D03*
X158749999Y-82042000D03*
X166115999Y-97155000D03*
X133672696Y-94295679D03*
X169925999Y-104902000D03*
X137159999Y-94234000D03*
X150113999Y-103124000D03*
X141350999Y-94234000D03*
X134365999Y-101219000D03*
X141350999Y-90678000D03*
%TO.N,Net-(U2-VM1)*%
X141477999Y-98991000D03*
X134746999Y-104013000D03*
%TO.N,Current_Sense*%
X141477999Y-98298000D03*
X158800798Y-93659931D03*
%TO.N,Net-(C13-Pad1)*%
X140207999Y-71628000D03*
X145160999Y-71628000D03*
%TO.N,Net-(J4-D+)*%
X143255999Y-86106000D03*
X143205199Y-83947000D03*
%TO.N,Reset*%
X155447999Y-92002800D03*
D20*
%TO.N,Net-(J3-Pin_2)*%
X139649199Y-107315000D03*
%TO.N,Net-(J3-Pin_1)*%
X139649199Y-108483403D03*
D21*
%TO.N,Status_LED_R*%
X160399999Y-105664000D03*
X159130999Y-97891597D03*
%TO.N,Status_LED_G*%
X159765999Y-105917000D03*
X159130999Y-98552000D03*
%TO.N,Status_LED_B*%
X158989590Y-105917001D03*
X158426969Y-97135676D03*
%TO.N,Net-(U2-STBY)*%
X145470999Y-100584000D03*
X145470999Y-103830000D03*
%TO.N,Net-(U5-OUT)*%
X129539999Y-101981000D03*
X135000999Y-101981000D03*
%TO.N,BOOT0*%
X148462999Y-107823000D03*
X160400999Y-89027000D03*
%TO.N,BOOT1*%
X162433000Y-97442251D03*
X153034999Y-107823000D03*
%TO.N,TX_USB*%
X167004999Y-91440000D03*
X163275737Y-86005226D03*
%TO.N,RX_USB*%
X163260467Y-85345000D03*
X167471974Y-91906975D03*
%TO.N,Net-(U7-CBUS1)*%
X155828999Y-77724000D03*
X164058596Y-77724000D03*
%TO.N,Net-(U7-CBUS2)*%
X155828999Y-77063597D03*
X164718999Y-77724000D03*
%TO.N,Motor_Encoder_A*%
X160221767Y-85955032D03*
X161471799Y-86106000D03*
%TO.N,DriverAin1*%
X144170486Y-97154786D03*
X158925799Y-90036397D03*
%TO.N,DriverPWM*%
X158495999Y-89535000D03*
X143527560Y-97305694D03*
%TO.N,DriverAin2*%
X143509999Y-100457000D03*
X159511999Y-93726000D03*
%TO.N,FRAM_MISO*%
X162940999Y-89535000D03*
X164972999Y-98171000D03*
%TO.N,FRAM_SCK*%
X162971799Y-88773000D03*
X163728402Y-102743000D03*
%TO.N,FRAM_MOSI*%
X161735294Y-89540867D03*
X163067999Y-102743000D03*
%TO.N,Vsense*%
X149202573Y-94693200D03*
X159765999Y-94488000D03*
X148843999Y-92201000D03*
X139699999Y-87249000D03*
%TD*%
D22*
%TO.N,+BATT*%
X128650999Y-103124000D02*
X129412999Y-103886000D01*
X128650999Y-97917000D02*
X128650999Y-103124000D01*
X129539999Y-97917000D02*
X128650999Y-97917000D01*
X133832499Y-78980000D02*
X131204999Y-78980000D01*
X130174999Y-93980000D02*
X130174999Y-96774000D01*
X128650999Y-97917000D02*
X118558000Y-97917000D01*
X130174999Y-80010000D02*
X130174999Y-93980000D01*
D23*
X136905999Y-79629000D02*
X136256999Y-78980000D01*
D22*
X130174999Y-97282000D02*
X129539999Y-97917000D01*
X130174999Y-96774000D02*
X130174999Y-97282000D01*
X131204999Y-78980000D02*
X130174999Y-80010000D01*
D23*
X136905999Y-84201000D02*
X136905999Y-79629000D01*
X136256999Y-78980000D02*
X133832499Y-78980000D01*
%TO.N,GND*%
X154431999Y-81026000D02*
X152780999Y-81026000D01*
%TO.N,Net-(U2-VM1)*%
X140461999Y-110718600D02*
X140436599Y-110744000D01*
X141223999Y-98991000D02*
X140784999Y-98991000D01*
X140461999Y-103632000D02*
X140461999Y-104013000D01*
X140461999Y-99314000D02*
X140461999Y-103632000D01*
X140784999Y-98991000D02*
X140461999Y-99314000D01*
X134746999Y-104013000D02*
X140461999Y-104013000D01*
X140461999Y-104013000D02*
X140461999Y-110718600D01*
X141477999Y-98991000D02*
X141223999Y-98991000D01*
%TO.N,Current_Sense*%
X144730286Y-94537713D02*
X144730286Y-97386663D01*
X143818949Y-98298000D02*
X141477999Y-98298000D01*
X158784529Y-93676200D02*
X145591799Y-93676200D01*
X144730286Y-97386663D02*
X143818949Y-98298000D01*
X145591799Y-93676200D02*
X144730286Y-94537713D01*
X158800798Y-93659931D02*
X158784529Y-93676200D01*
D22*
%TO.N,Net-(C13-Pad1)*%
X145160999Y-71628000D02*
X140207999Y-71628000D01*
D23*
%TO.N,Net-(J4-D+)*%
X143205199Y-83947000D02*
X143205199Y-86055200D01*
X143205199Y-86055200D02*
X143255999Y-86106000D01*
%TO.N,Reset*%
X155066999Y-91621800D02*
X155066999Y-72903000D01*
X155447999Y-92002800D02*
X155066999Y-91621800D01*
X155066999Y-72903000D02*
X152902999Y-70739000D01*
D22*
%TO.N,Net-(J3-Pin_2)*%
X123343399Y-107115434D02*
X123922968Y-107695003D01*
X138938996Y-107695003D02*
X139318999Y-107315000D01*
X118558000Y-102997000D02*
X122300999Y-102997000D01*
X122300999Y-102997000D02*
X123343399Y-104039400D01*
X139318999Y-107315000D02*
X139649199Y-107315000D01*
X123922968Y-107695003D02*
X138938996Y-107695003D01*
X123343399Y-104039400D02*
X123343399Y-107115434D01*
%TO.N,Net-(J3-Pin_1)*%
X122554999Y-106045000D02*
X122046999Y-105537000D01*
X123596402Y-108483403D02*
X122554999Y-107442000D01*
X122554999Y-107442000D02*
X122554999Y-106045000D01*
X139649199Y-108483403D02*
X123596402Y-108483403D01*
X122046999Y-105537000D02*
X118558000Y-105537000D01*
D23*
%TO.N,Status_LED_R*%
X159486596Y-97891597D02*
X159909657Y-98314658D01*
X159909657Y-98314658D02*
X159909657Y-105173658D01*
X159130999Y-97891597D02*
X159486596Y-97891597D01*
X159909657Y-105173658D02*
X160399999Y-105664000D01*
%TO.N,Status_LED_G*%
X159130999Y-98552000D02*
X159257999Y-98552000D01*
X159257999Y-98552000D02*
X159451457Y-98745458D01*
X159451457Y-105602458D02*
X159765999Y-105917000D01*
X159451457Y-98745458D02*
X159451457Y-105602458D01*
%TO.N,Status_LED_B*%
X158993257Y-99441000D02*
X158993257Y-105913334D01*
X158993257Y-105913334D02*
X158989590Y-105917001D01*
X158993257Y-99205935D02*
X158993257Y-99441000D01*
X158426969Y-98639647D02*
X158993257Y-99205935D01*
X158426969Y-97135676D02*
X158426969Y-98639647D01*
%TO.N,Net-(U2-STBY)*%
X145470999Y-100584000D02*
X145470999Y-103830000D01*
%TO.N,Net-(U5-OUT)*%
X129539999Y-101981000D02*
X135000999Y-101981000D01*
%TO.N,BOOT0*%
X160958799Y-105345792D02*
X160958799Y-106109208D01*
X160367857Y-97683150D02*
X160367857Y-104754851D01*
X161277094Y-90030561D02*
X161289999Y-90043466D01*
X161289999Y-90043466D02*
X161289999Y-96984051D01*
X160400999Y-89027000D02*
X161277094Y-89903095D01*
X148462999Y-107061000D02*
X148462999Y-107823000D01*
X160592207Y-106475800D02*
X149048199Y-106475800D01*
X149048199Y-106475800D02*
X148462999Y-107061000D01*
X161277094Y-89903095D02*
X161277094Y-90030561D01*
X161066955Y-96984051D02*
X160367857Y-97683150D01*
X160958799Y-106109208D02*
X160592207Y-106475800D01*
X161289999Y-96984051D02*
X161066955Y-96984051D01*
X160367857Y-104754851D02*
X160958799Y-105345792D01*
%TO.N,BOOT1*%
X161416999Y-105156000D02*
X161416999Y-106299000D01*
X160781999Y-106934000D02*
X153415999Y-106934000D01*
X162433000Y-97442251D02*
X161256748Y-97442251D01*
X161256748Y-97442251D02*
X160826057Y-97872942D01*
X160826057Y-104565058D02*
X161416999Y-105156000D01*
X153415999Y-106934000D02*
X153034999Y-107315000D01*
X161416999Y-106299000D02*
X160781999Y-106934000D01*
X160826057Y-97872942D02*
X160826057Y-104565058D01*
X153034999Y-107315000D02*
X153034999Y-107823000D01*
%TO.N,TX_USB*%
X163275737Y-86005226D02*
X166523225Y-86005226D01*
X166523225Y-86005226D02*
X167385999Y-86868000D01*
X167385999Y-86868000D02*
X167385999Y-91059000D01*
X167385999Y-91059000D02*
X167004999Y-91440000D01*
%TO.N,RX_USB*%
X163260467Y-85345000D02*
X163360893Y-85445426D01*
X163507614Y-85445426D02*
X163609214Y-85547026D01*
X167844199Y-91248792D02*
X167564799Y-91528192D01*
X167471974Y-91764702D02*
X167471974Y-91906975D01*
X167564799Y-91671877D02*
X167471974Y-91764702D01*
X163360893Y-85445426D02*
X163507614Y-85445426D01*
X167844199Y-86678208D02*
X167844199Y-91248792D01*
X166713018Y-85547026D02*
X167844199Y-86678208D01*
X163609214Y-85547026D02*
X166713018Y-85547026D01*
X167564799Y-91528192D02*
X167564799Y-91671877D01*
%TO.N,Net-(U7-CBUS1)*%
X164058596Y-77724000D02*
X155828999Y-77724000D01*
%TO.N,Net-(U7-CBUS2)*%
X164718999Y-77724000D02*
X164718999Y-77470000D01*
X164312596Y-77063597D02*
X155828999Y-77063597D01*
X164718999Y-77470000D02*
X164312596Y-77063597D01*
%TO.N,Motor_Encoder_A*%
X161320831Y-85955032D02*
X161471799Y-86106000D01*
X160221767Y-85955032D02*
X161320831Y-85955032D01*
%TO.N,DriverAin1*%
X145160999Y-93218000D02*
X157492992Y-93218000D01*
X157492992Y-93218000D02*
X158925799Y-91785192D01*
X144170486Y-94208513D02*
X145160999Y-93218000D01*
X144170486Y-97154786D02*
X144170486Y-94208513D01*
X158925799Y-91785192D02*
X158925799Y-90036397D01*
%TO.N,DriverPWM*%
X158365999Y-90322400D02*
X158467599Y-90424000D01*
X158467599Y-90424000D02*
X158467599Y-91595400D01*
X143527560Y-94203447D02*
X143527560Y-97305694D01*
X158365999Y-89665000D02*
X158365999Y-90322400D01*
X157303199Y-92759800D02*
X144971206Y-92759800D01*
X158495999Y-89535000D02*
X158365999Y-89665000D01*
X144971206Y-92759800D02*
X143527560Y-94203447D01*
X158467599Y-91595400D02*
X157303199Y-92759800D01*
%TO.N,DriverAin2*%
X145188486Y-94727505D02*
X145188486Y-97576455D01*
X159032675Y-94219731D02*
X158568921Y-94219731D01*
X159360598Y-93891808D02*
X159032675Y-94219731D01*
X158483590Y-94134400D02*
X145781591Y-94134400D01*
X158568921Y-94219731D02*
X158483590Y-94134400D01*
X159511999Y-93726000D02*
X159383999Y-93854000D01*
X145781591Y-94134400D02*
X145188486Y-94727505D01*
X145188486Y-97576455D02*
X144017999Y-98746943D01*
X159383999Y-93854000D02*
X159383999Y-93866993D01*
X144017999Y-99949000D02*
X143509999Y-100457000D01*
X159360598Y-93890394D02*
X159360598Y-93891808D01*
X144017999Y-98746943D02*
X144017999Y-99949000D01*
X159383999Y-93866993D02*
X159360598Y-93890394D01*
%TO.N,FRAM_MISO*%
X163984399Y-97944400D02*
X164210999Y-98171000D01*
X162940999Y-95618007D02*
X163984399Y-96661407D01*
X164210999Y-98171000D02*
X164972999Y-98171000D01*
X163984399Y-96661407D02*
X163984399Y-97944400D01*
X162940999Y-89535000D02*
X162940999Y-95618007D01*
%TO.N,FRAM_SCK*%
X162971799Y-88773000D02*
X162911322Y-88773000D01*
X162395726Y-90969273D02*
X162395726Y-95720728D01*
X163728402Y-102514403D02*
X163728402Y-102743000D01*
X163526199Y-96851200D02*
X163526199Y-102312200D01*
X162432999Y-90932000D02*
X162395726Y-90969273D01*
X162911322Y-88773000D02*
X162381199Y-89303123D01*
X163131499Y-96456499D02*
X163526199Y-96851200D01*
X162432999Y-89890480D02*
X162432999Y-90932000D01*
X163526199Y-102312200D02*
X163728402Y-102514403D01*
X162395726Y-95720728D02*
X163131499Y-96456499D01*
X162381199Y-89838680D02*
X162432999Y-89890480D01*
X162381199Y-89303123D02*
X162381199Y-89838680D01*
%TO.N,FRAM_MOSI*%
X161937526Y-90043000D02*
X161735294Y-89840768D01*
X161735294Y-89840768D02*
X161735294Y-89540867D01*
X163067999Y-102743000D02*
X163067999Y-97040992D01*
X163067999Y-97040992D02*
X161937526Y-95910520D01*
X161937526Y-95910520D02*
X161937526Y-90043000D01*
%TO.N,Vsense*%
X146684999Y-92301600D02*
X145006599Y-92301600D01*
X144144999Y-88392000D02*
X144144999Y-88011000D01*
X149303173Y-94592600D02*
X149202573Y-94693200D01*
X144144999Y-91440000D02*
X144144999Y-88392000D01*
X158293797Y-94592600D02*
X149303173Y-94592600D01*
X158379129Y-94677931D02*
X158293797Y-94592600D01*
X159222468Y-94677931D02*
X158379129Y-94677931D01*
X148743399Y-92301600D02*
X146684999Y-92301600D01*
X143382999Y-87249000D02*
X139699999Y-87249000D01*
X159765999Y-94488000D02*
X159412399Y-94488000D01*
X145006599Y-92301600D02*
X144652999Y-91948000D01*
X144144999Y-88011000D02*
X143382999Y-87249000D01*
X148843999Y-92201000D02*
X148743399Y-92301600D01*
X159412399Y-94488000D02*
X159222468Y-94677931D01*
X144652999Y-91948000D02*
X144144999Y-91440000D01*
%TD*%
%TA.AperFunction,Conductor*%
%TO.N,+3V3*%
G36*
X170056030Y-68961647D02*
G01*
X170382972Y-68977709D01*
X170395074Y-68978901D01*
X170715850Y-69026483D01*
X170727760Y-69028852D01*
X171042335Y-69107650D01*
X171053967Y-69111178D01*
X171359304Y-69220428D01*
X171370525Y-69225076D01*
X171663693Y-69363734D01*
X171674401Y-69369458D01*
X171952542Y-69536170D01*
X171962657Y-69542928D01*
X172223123Y-69736102D01*
X172223128Y-69736106D01*
X172232534Y-69743826D01*
X172472808Y-69961598D01*
X172481399Y-69970189D01*
X172606383Y-70108087D01*
X172699171Y-70210463D01*
X172706891Y-70219869D01*
X172900068Y-70480337D01*
X172906828Y-70490455D01*
X173073534Y-70768589D01*
X173079267Y-70779312D01*
X173211967Y-71059883D01*
X173217919Y-71072466D01*
X173222575Y-71083709D01*
X173331817Y-71389020D01*
X173335350Y-71400665D01*
X173414142Y-71715221D01*
X173416516Y-71727155D01*
X173464097Y-72047919D01*
X173465290Y-72060029D01*
X173481349Y-72386903D01*
X173481498Y-72392988D01*
X173481498Y-110486947D01*
X173481349Y-110493032D01*
X173465287Y-110819968D01*
X173464094Y-110832078D01*
X173416513Y-111152842D01*
X173414139Y-111164777D01*
X173335346Y-111479336D01*
X173331814Y-111490980D01*
X173240664Y-111745729D01*
X173222575Y-111796284D01*
X173217918Y-111807527D01*
X173079267Y-112100681D01*
X173073530Y-112111413D01*
X172906826Y-112389542D01*
X172900066Y-112399660D01*
X172706890Y-112660127D01*
X172699170Y-112669533D01*
X172481405Y-112909801D01*
X172472800Y-112918406D01*
X172232533Y-113136170D01*
X172223127Y-113143890D01*
X171962659Y-113337066D01*
X171952541Y-113343826D01*
X171674412Y-113510531D01*
X171663680Y-113516268D01*
X171370535Y-113654915D01*
X171359292Y-113659572D01*
X171053972Y-113768816D01*
X171042328Y-113772348D01*
X170727772Y-113851141D01*
X170715836Y-113853515D01*
X170395078Y-113901094D01*
X170382969Y-113902287D01*
X170221396Y-113910225D01*
X170055995Y-113918350D01*
X170049941Y-113918499D01*
X162587701Y-113918499D01*
X162520662Y-113898814D01*
X162474907Y-113846010D01*
X162464963Y-113776852D01*
X162493988Y-113713296D01*
X162514815Y-113694181D01*
X162645434Y-113599281D01*
X162785951Y-113458764D01*
X162902757Y-113297994D01*
X162992975Y-113120932D01*
X163054383Y-112931936D01*
X163085470Y-112735661D01*
X163085470Y-112536939D01*
X163054383Y-112340664D01*
X162992975Y-112151668D01*
X162992975Y-112151667D01*
X162916000Y-112000597D01*
X162902757Y-111974606D01*
X162785951Y-111813836D01*
X162645434Y-111673319D01*
X162484664Y-111556513D01*
X162307602Y-111466294D01*
X162307599Y-111466293D01*
X162118607Y-111404887D01*
X162020468Y-111389343D01*
X161922331Y-111373800D01*
X161723609Y-111373800D01*
X161658184Y-111384162D01*
X161527332Y-111404887D01*
X161338340Y-111466293D01*
X161338337Y-111466294D01*
X161161275Y-111556513D01*
X161000503Y-111673321D01*
X160859991Y-111813833D01*
X160743183Y-111974605D01*
X160663455Y-112131080D01*
X160615480Y-112181876D01*
X160547659Y-112198671D01*
X160481524Y-112176133D01*
X160442485Y-112131080D01*
X160401626Y-112050891D01*
X160362757Y-111974606D01*
X160245951Y-111813836D01*
X160105434Y-111673319D01*
X159944664Y-111556513D01*
X159767602Y-111466294D01*
X159767599Y-111466293D01*
X159578607Y-111404887D01*
X159480468Y-111389343D01*
X159382331Y-111373800D01*
X159183609Y-111373800D01*
X159118184Y-111384162D01*
X158987332Y-111404887D01*
X158798340Y-111466293D01*
X158798337Y-111466294D01*
X158621275Y-111556513D01*
X158460503Y-111673321D01*
X158319991Y-111813833D01*
X158203183Y-111974605D01*
X158112964Y-112151667D01*
X158112963Y-112151670D01*
X158051557Y-112340662D01*
X158020470Y-112536939D01*
X158020470Y-112735660D01*
X158051557Y-112931937D01*
X158112963Y-113120929D01*
X158112964Y-113120932D01*
X158203183Y-113297994D01*
X158319989Y-113458764D01*
X158460506Y-113599281D01*
X158591125Y-113694181D01*
X158633790Y-113749511D01*
X158639769Y-113819124D01*
X158607163Y-113880919D01*
X158546324Y-113915277D01*
X158518239Y-113918499D01*
X111763050Y-113918499D01*
X111756966Y-113918350D01*
X111737686Y-113917402D01*
X111430029Y-113902288D01*
X111417919Y-113901095D01*
X111097155Y-113853514D01*
X111085220Y-113851140D01*
X110770661Y-113772347D01*
X110759017Y-113768815D01*
X110705066Y-113749511D01*
X110453699Y-113659570D01*
X110442470Y-113654919D01*
X110149318Y-113516268D01*
X110138586Y-113510531D01*
X109860456Y-113343826D01*
X109850338Y-113337066D01*
X109589871Y-113143890D01*
X109580465Y-113136170D01*
X109511791Y-113073928D01*
X109340189Y-112918397D01*
X109331600Y-112909808D01*
X109113828Y-112669533D01*
X109106108Y-112660127D01*
X109060526Y-112598667D01*
X108912930Y-112399656D01*
X108906172Y-112389541D01*
X108876875Y-112340662D01*
X108739460Y-112111400D01*
X108733731Y-112100681D01*
X108595077Y-111807521D01*
X108590424Y-111796284D01*
X108481182Y-111490972D01*
X108477655Y-111479349D01*
X108398854Y-111164760D01*
X108396484Y-111152842D01*
X108348903Y-110832075D01*
X108347711Y-110819970D01*
X108347711Y-110819968D01*
X108331647Y-110492976D01*
X108331499Y-110486921D01*
X108331499Y-110354904D01*
X109354499Y-110354904D01*
X109354499Y-110625093D01*
X109384748Y-110893557D01*
X109384749Y-110893566D01*
X109384750Y-110893570D01*
X109390501Y-110918766D01*
X109444871Y-111156978D01*
X109534105Y-111411995D01*
X109651330Y-111655415D01*
X109651332Y-111655418D01*
X109795076Y-111884186D01*
X109963531Y-112095421D01*
X110154577Y-112286467D01*
X110365812Y-112454922D01*
X110594580Y-112598666D01*
X110838004Y-112715893D01*
X111093019Y-112805126D01*
X111093021Y-112805126D01*
X111093022Y-112805127D01*
X111356428Y-112865248D01*
X111624904Y-112895498D01*
X111624905Y-112895499D01*
X111624909Y-112895499D01*
X111895093Y-112895499D01*
X111895093Y-112895498D01*
X112163570Y-112865248D01*
X112426976Y-112805127D01*
X112681994Y-112715893D01*
X112925418Y-112598666D01*
X113154186Y-112454922D01*
X113365421Y-112286467D01*
X113556467Y-112095421D01*
X113724922Y-111884186D01*
X113868666Y-111655418D01*
X113985893Y-111411994D01*
X114075127Y-111156976D01*
X114135248Y-110893570D01*
X114165499Y-110625089D01*
X114165499Y-110354909D01*
X114135248Y-110086428D01*
X114088893Y-109883335D01*
X117939699Y-109883335D01*
X117939699Y-111604670D01*
X117939700Y-111604676D01*
X117946107Y-111664283D01*
X117996401Y-111799128D01*
X117996405Y-111799135D01*
X118082651Y-111914344D01*
X118082654Y-111914347D01*
X118197863Y-112000593D01*
X118197870Y-112000597D01*
X118332716Y-112050891D01*
X118332715Y-112050891D01*
X118339643Y-112051635D01*
X118392326Y-112057300D01*
X120113671Y-112057299D01*
X120173282Y-112050891D01*
X120308130Y-112000596D01*
X120423345Y-111914346D01*
X120509595Y-111799131D01*
X120559890Y-111664283D01*
X120566299Y-111604673D01*
X120566298Y-109883328D01*
X120559890Y-109823717D01*
X120529513Y-109742273D01*
X120509596Y-109688871D01*
X120509592Y-109688864D01*
X120423346Y-109573655D01*
X120423343Y-109573652D01*
X120308134Y-109487406D01*
X120308127Y-109487402D01*
X120173281Y-109437108D01*
X120173282Y-109437108D01*
X120113682Y-109430701D01*
X120113680Y-109430700D01*
X120113672Y-109430700D01*
X120113663Y-109430700D01*
X118392328Y-109430700D01*
X118392322Y-109430701D01*
X118332715Y-109437108D01*
X118197870Y-109487402D01*
X118197863Y-109487406D01*
X118082654Y-109573652D01*
X118082651Y-109573655D01*
X117996405Y-109688864D01*
X117996401Y-109688871D01*
X117946107Y-109823717D01*
X117939700Y-109883316D01*
X117939700Y-109883323D01*
X117939699Y-109883335D01*
X114088893Y-109883335D01*
X114075127Y-109823022D01*
X113985893Y-109568004D01*
X113868666Y-109324580D01*
X113724922Y-109095812D01*
X113556467Y-108884577D01*
X113365421Y-108693531D01*
X113154186Y-108525076D01*
X112969545Y-108409059D01*
X112925415Y-108381330D01*
X112681995Y-108264105D01*
X112426977Y-108174871D01*
X112426979Y-108174871D01*
X112229421Y-108129780D01*
X112163570Y-108114750D01*
X112163566Y-108114749D01*
X112163557Y-108114748D01*
X111895093Y-108084499D01*
X111895089Y-108084499D01*
X111624909Y-108084499D01*
X111624905Y-108084499D01*
X111356440Y-108114748D01*
X111356428Y-108114750D01*
X111093019Y-108174871D01*
X110838002Y-108264105D01*
X110594582Y-108381330D01*
X110365813Y-108525075D01*
X110154577Y-108693530D01*
X109963530Y-108884577D01*
X109795075Y-109095813D01*
X109651330Y-109324582D01*
X109534105Y-109568002D01*
X109444871Y-109823019D01*
X109384750Y-110086428D01*
X109384748Y-110086440D01*
X109354499Y-110354904D01*
X108331499Y-110354904D01*
X108331499Y-92730713D01*
X117207500Y-92730713D01*
X117207500Y-92943286D01*
X117238647Y-93139945D01*
X117240754Y-93153243D01*
X117305844Y-93353569D01*
X117306444Y-93355414D01*
X117402951Y-93544820D01*
X117527890Y-93716786D01*
X117678213Y-93867109D01*
X117850182Y-93992050D01*
X117858946Y-93996516D01*
X117909742Y-94044491D01*
X117926536Y-94112312D01*
X117903998Y-94178447D01*
X117858946Y-94217484D01*
X117850182Y-94221949D01*
X117678213Y-94346890D01*
X117527890Y-94497213D01*
X117402951Y-94669179D01*
X117306444Y-94858585D01*
X117240753Y-95060760D01*
X117207500Y-95270713D01*
X117207500Y-95483286D01*
X117240753Y-95693239D01*
X117306444Y-95895414D01*
X117402951Y-96084820D01*
X117527890Y-96256786D01*
X117678213Y-96407109D01*
X117850182Y-96532050D01*
X117858946Y-96536516D01*
X117909742Y-96584491D01*
X117926536Y-96652312D01*
X117903998Y-96718447D01*
X117858946Y-96757484D01*
X117850182Y-96761949D01*
X117678213Y-96886890D01*
X117527890Y-97037213D01*
X117402951Y-97209179D01*
X117306444Y-97398585D01*
X117240753Y-97600760D01*
X117207500Y-97810713D01*
X117207500Y-98023286D01*
X117239240Y-98223688D01*
X117240754Y-98233243D01*
X117298968Y-98412407D01*
X117306444Y-98435414D01*
X117402951Y-98624820D01*
X117527890Y-98796786D01*
X117678213Y-98947109D01*
X117850182Y-99072050D01*
X117858946Y-99076516D01*
X117909742Y-99124491D01*
X117926536Y-99192312D01*
X117903998Y-99258447D01*
X117858946Y-99297484D01*
X117850182Y-99301949D01*
X117678213Y-99426890D01*
X117527890Y-99577213D01*
X117402951Y-99749179D01*
X117306444Y-99938585D01*
X117240753Y-100140760D01*
X117207500Y-100350713D01*
X117207500Y-100563286D01*
X117225174Y-100674879D01*
X117240754Y-100773243D01*
X117303037Y-100964930D01*
X117306444Y-100975414D01*
X117402951Y-101164820D01*
X117527890Y-101336786D01*
X117678213Y-101487109D01*
X117850182Y-101612050D01*
X117858946Y-101616516D01*
X117909742Y-101664491D01*
X117926536Y-101732312D01*
X117903998Y-101798447D01*
X117858946Y-101837484D01*
X117850182Y-101841949D01*
X117678213Y-101966890D01*
X117527890Y-102117213D01*
X117402951Y-102289179D01*
X117306444Y-102478585D01*
X117240753Y-102680760D01*
X117207500Y-102890713D01*
X117207500Y-103103286D01*
X117239153Y-103303139D01*
X117240754Y-103313243D01*
X117305162Y-103511471D01*
X117306444Y-103515414D01*
X117402951Y-103704820D01*
X117527890Y-103876786D01*
X117641430Y-103990326D01*
X117674915Y-104051649D01*
X117669931Y-104121341D01*
X117628059Y-104177274D01*
X117597083Y-104194189D01*
X117465669Y-104243203D01*
X117465664Y-104243206D01*
X117350455Y-104329452D01*
X117350452Y-104329455D01*
X117264206Y-104444664D01*
X117264202Y-104444671D01*
X117213908Y-104579517D01*
X117207501Y-104639116D01*
X117207500Y-104639135D01*
X117207500Y-106434870D01*
X117207501Y-106434876D01*
X117213908Y-106494483D01*
X117264202Y-106629328D01*
X117264206Y-106629335D01*
X117350452Y-106744544D01*
X117350455Y-106744547D01*
X117465664Y-106830793D01*
X117465671Y-106830797D01*
X117600517Y-106881091D01*
X117600516Y-106881091D01*
X117607444Y-106881835D01*
X117660127Y-106887500D01*
X119455872Y-106887499D01*
X119515483Y-106881091D01*
X119650331Y-106830796D01*
X119765546Y-106744546D01*
X119851796Y-106629331D01*
X119902091Y-106494483D01*
X119905181Y-106465745D01*
X119931919Y-106401194D01*
X119989311Y-106361345D01*
X120028470Y-106355000D01*
X121612999Y-106355000D01*
X121680038Y-106374685D01*
X121725793Y-106427489D01*
X121736999Y-106479000D01*
X121736999Y-107522570D01*
X121768432Y-107680594D01*
X121768434Y-107680602D01*
X121797518Y-107750816D01*
X121797518Y-107750817D01*
X121830096Y-107829468D01*
X121830097Y-107829471D01*
X121919616Y-107963444D01*
X121919619Y-107963448D01*
X123074953Y-109118782D01*
X123074957Y-109118785D01*
X123208926Y-109208301D01*
X123208930Y-109208303D01*
X123208933Y-109208305D01*
X123249449Y-109225087D01*
X123249450Y-109225088D01*
X123249451Y-109225088D01*
X123357800Y-109269968D01*
X123515831Y-109301402D01*
X123515835Y-109301403D01*
X123515836Y-109301403D01*
X139020556Y-109301403D01*
X139087595Y-109321088D01*
X139089443Y-109322298D01*
X139171495Y-109377124D01*
X139355030Y-109453147D01*
X139549870Y-109491903D01*
X139549875Y-109491903D01*
X139555931Y-109492500D01*
X139555653Y-109495321D01*
X139611050Y-109511588D01*
X139656805Y-109564392D01*
X139666749Y-109633550D01*
X139637724Y-109697106D01*
X139616896Y-109716221D01*
X139581044Y-109742268D01*
X139581038Y-109742273D01*
X139434872Y-109888439D01*
X139313364Y-110055680D01*
X139219514Y-110239870D01*
X139155637Y-110436463D01*
X139155637Y-110436466D01*
X139123299Y-110640641D01*
X139123299Y-110847358D01*
X139155637Y-111051533D01*
X139155637Y-111051536D01*
X139219514Y-111248129D01*
X139275904Y-111358800D01*
X139313364Y-111432319D01*
X139434870Y-111599558D01*
X139581041Y-111745729D01*
X139748280Y-111867235D01*
X139932467Y-111961083D01*
X139932469Y-111961084D01*
X140129063Y-112024961D01*
X140129064Y-112024961D01*
X140129067Y-112024962D01*
X140333240Y-112057300D01*
X140333241Y-112057300D01*
X140539957Y-112057300D01*
X140539958Y-112057300D01*
X140744131Y-112024962D01*
X140744134Y-112024961D01*
X140744135Y-112024961D01*
X140940728Y-111961084D01*
X140940728Y-111961083D01*
X140940731Y-111961083D01*
X141124918Y-111867235D01*
X141292157Y-111745729D01*
X141438328Y-111599558D01*
X141559834Y-111432319D01*
X141653682Y-111248132D01*
X141683300Y-111156976D01*
X141717560Y-111051536D01*
X141717560Y-111051535D01*
X141717561Y-111051532D01*
X141749899Y-110847359D01*
X141749899Y-110640641D01*
X141717561Y-110436468D01*
X141717560Y-110436464D01*
X141717560Y-110436463D01*
X141653683Y-110239870D01*
X141580573Y-110096384D01*
X141559834Y-110055681D01*
X141438328Y-109888442D01*
X141292157Y-109742271D01*
X141166013Y-109650622D01*
X141123348Y-109595292D01*
X141114899Y-109550304D01*
X141114899Y-99839151D01*
X141134584Y-99772112D01*
X141187388Y-99726357D01*
X141256546Y-99716413D01*
X141263090Y-99717534D01*
X141336124Y-99732061D01*
X141403684Y-99745499D01*
X141403686Y-99745500D01*
X141403687Y-99745500D01*
X141552312Y-99745500D01*
X141552313Y-99745499D01*
X141698079Y-99716505D01*
X141835389Y-99659629D01*
X141958965Y-99577059D01*
X142064058Y-99471966D01*
X142146628Y-99348390D01*
X142203504Y-99211080D01*
X142232499Y-99065312D01*
X142232499Y-99065306D01*
X142232752Y-99062743D01*
X142233261Y-99061481D01*
X142233688Y-99059337D01*
X142234094Y-99059417D01*
X142258915Y-98997956D01*
X142315950Y-98957599D01*
X142356155Y-98950900D01*
X143241099Y-98950900D01*
X143308138Y-98970585D01*
X143353893Y-99023389D01*
X143365099Y-99074900D01*
X143365099Y-99617500D01*
X143345414Y-99684539D01*
X143292610Y-99730294D01*
X143288552Y-99732061D01*
X143152607Y-99788371D01*
X143029034Y-99870939D01*
X143029027Y-99870945D01*
X142923944Y-99976028D01*
X142923938Y-99976035D01*
X142841370Y-100099608D01*
X142784494Y-100236919D01*
X142784492Y-100236927D01*
X142755499Y-100382683D01*
X142755499Y-100531316D01*
X142784492Y-100677072D01*
X142784494Y-100677080D01*
X142841370Y-100814391D01*
X142923938Y-100937964D01*
X142923944Y-100937971D01*
X143029027Y-101043054D01*
X143029034Y-101043060D01*
X143152607Y-101125628D01*
X143152608Y-101125628D01*
X143152609Y-101125629D01*
X143289919Y-101182505D01*
X143412134Y-101206815D01*
X143435682Y-101211499D01*
X143435686Y-101211500D01*
X143435687Y-101211500D01*
X143584312Y-101211500D01*
X143584313Y-101211499D01*
X143730079Y-101182505D01*
X143867389Y-101125629D01*
X143990965Y-101043059D01*
X144096058Y-100937966D01*
X144178628Y-100814390D01*
X144235504Y-100677080D01*
X144235506Y-100677066D01*
X144236171Y-100674879D01*
X144236962Y-100673558D01*
X144237835Y-100671452D01*
X144238147Y-100671581D01*
X144267151Y-100623187D01*
X144510844Y-100379495D01*
X144572167Y-100346010D01*
X144641859Y-100350994D01*
X144697792Y-100392866D01*
X144722209Y-100458330D01*
X144720143Y-100491363D01*
X144716499Y-100509684D01*
X144716499Y-100658316D01*
X144745492Y-100804072D01*
X144745494Y-100804080D01*
X144802369Y-100941388D01*
X144803451Y-100943412D01*
X144803823Y-100944900D01*
X144804701Y-100947018D01*
X144804387Y-100947148D01*
X144818099Y-101001876D01*
X144818099Y-103412123D01*
X144804389Y-103466854D01*
X144804701Y-103466983D01*
X144803832Y-103469079D01*
X144803458Y-103470575D01*
X144802369Y-103472610D01*
X144745494Y-103609919D01*
X144745492Y-103609927D01*
X144716499Y-103755683D01*
X144716499Y-103904316D01*
X144745492Y-104050072D01*
X144745494Y-104050080D01*
X144802370Y-104187391D01*
X144884938Y-104310964D01*
X144884944Y-104310971D01*
X144990027Y-104416054D01*
X144990034Y-104416060D01*
X145113607Y-104498628D01*
X145113608Y-104498628D01*
X145113609Y-104498629D01*
X145250919Y-104555505D01*
X145371631Y-104579516D01*
X145396682Y-104584499D01*
X145396686Y-104584500D01*
X145396687Y-104584500D01*
X145545312Y-104584500D01*
X145545313Y-104584499D01*
X145691079Y-104555505D01*
X145828389Y-104498629D01*
X145951965Y-104416059D01*
X146057058Y-104310966D01*
X146139628Y-104187390D01*
X146196504Y-104050080D01*
X146225499Y-103904312D01*
X146225499Y-103755688D01*
X146196504Y-103609920D01*
X146139628Y-103472610D01*
X146138540Y-103470575D01*
X146138165Y-103469079D01*
X146137297Y-103466983D01*
X146137608Y-103466854D01*
X146123899Y-103412123D01*
X146123899Y-101001876D01*
X146137610Y-100947148D01*
X146137297Y-100947018D01*
X146138174Y-100944900D01*
X146138547Y-100943412D01*
X146139622Y-100941397D01*
X146139628Y-100941390D01*
X146196504Y-100804080D01*
X146225499Y-100658312D01*
X146225499Y-100509688D01*
X146196504Y-100363920D01*
X146139628Y-100226610D01*
X146082265Y-100140760D01*
X146057059Y-100103035D01*
X146057053Y-100103028D01*
X145951970Y-99997945D01*
X145951963Y-99997939D01*
X145828390Y-99915371D01*
X145691079Y-99858495D01*
X145691071Y-99858493D01*
X145545315Y-99829500D01*
X145545311Y-99829500D01*
X145396687Y-99829500D01*
X145396682Y-99829500D01*
X145250926Y-99858493D01*
X145250918Y-99858495D01*
X145113607Y-99915371D01*
X144990034Y-99997939D01*
X144990027Y-99997945D01*
X144882580Y-100105393D01*
X144821257Y-100138878D01*
X144751565Y-100133894D01*
X144695632Y-100092022D01*
X144671215Y-100026558D01*
X144670899Y-100017712D01*
X144670899Y-99068744D01*
X144690584Y-99001705D01*
X144707218Y-98981063D01*
X145695624Y-97992657D01*
X145695626Y-97992655D01*
X145767078Y-97885719D01*
X145816295Y-97766899D01*
X145818700Y-97754804D01*
X145818701Y-97754804D01*
X145818701Y-97754801D01*
X145841386Y-97640760D01*
X145841386Y-95049307D01*
X145850030Y-95019866D01*
X145856554Y-94989880D01*
X145860308Y-94984864D01*
X145861071Y-94982268D01*
X145877705Y-94961626D01*
X146015712Y-94823619D01*
X146077035Y-94790134D01*
X146103393Y-94787300D01*
X148350245Y-94787300D01*
X148417284Y-94806985D01*
X148463039Y-94859789D01*
X148471861Y-94887105D01*
X148477068Y-94913280D01*
X148533944Y-95050591D01*
X148616512Y-95174164D01*
X148616518Y-95174171D01*
X148721601Y-95279254D01*
X148721608Y-95279260D01*
X148845181Y-95361828D01*
X148845182Y-95361828D01*
X148845183Y-95361829D01*
X148982493Y-95418705D01*
X149128256Y-95447699D01*
X149128260Y-95447700D01*
X149128261Y-95447700D01*
X149276886Y-95447700D01*
X149276887Y-95447699D01*
X149422653Y-95418705D01*
X149559963Y-95361829D01*
X149683539Y-95279259D01*
X149683544Y-95279254D01*
X149688254Y-95275390D01*
X149689646Y-95277086D01*
X149742303Y-95248334D01*
X149768661Y-95245500D01*
X158018753Y-95245500D01*
X158027019Y-95247149D01*
X158032168Y-95246228D01*
X158058028Y-95253338D01*
X158066354Y-95255000D01*
X158069613Y-95256355D01*
X158069865Y-95256523D01*
X158069867Y-95256524D01*
X158069869Y-95256525D01*
X158110641Y-95273413D01*
X158165663Y-95296204D01*
X158183074Y-95303416D01*
X158187481Y-95305500D01*
X158188682Y-95305739D01*
X158188685Y-95305740D01*
X158188687Y-95305740D01*
X158188688Y-95305740D01*
X158188689Y-95305741D01*
X158214454Y-95310865D01*
X158214463Y-95310869D01*
X158214464Y-95310867D01*
X158314822Y-95330831D01*
X158314824Y-95330831D01*
X159286775Y-95330831D01*
X159387152Y-95310864D01*
X159412912Y-95305740D01*
X159531732Y-95256523D01*
X159531735Y-95256521D01*
X159531777Y-95256492D01*
X159531794Y-95256482D01*
X159541891Y-95249735D01*
X159608568Y-95228856D01*
X159634976Y-95231219D01*
X159691686Y-95242500D01*
X159691687Y-95242500D01*
X159840312Y-95242500D01*
X159840313Y-95242499D01*
X159986079Y-95213505D01*
X160123389Y-95156629D01*
X160246965Y-95074059D01*
X160352058Y-94968966D01*
X160409997Y-94882254D01*
X160463609Y-94837448D01*
X160532934Y-94828741D01*
X160595961Y-94858895D01*
X160632681Y-94918338D01*
X160637099Y-94951144D01*
X160637099Y-96439204D01*
X160617414Y-96506243D01*
X160600780Y-96526885D01*
X159867741Y-97259925D01*
X159806418Y-97293410D01*
X159750108Y-97292572D01*
X159741142Y-97290340D01*
X159677040Y-97263788D01*
X159550901Y-97238697D01*
X159533676Y-97238697D01*
X159518924Y-97235025D01*
X159507481Y-97228327D01*
X159494146Y-97224986D01*
X159494017Y-97225299D01*
X159491913Y-97224427D01*
X159490418Y-97224053D01*
X159488384Y-97222965D01*
X159351079Y-97166092D01*
X159351073Y-97166090D01*
X159277433Y-97151442D01*
X159215522Y-97119057D01*
X159180948Y-97058341D01*
X159180008Y-97054016D01*
X159158575Y-96946269D01*
X159152474Y-96915596D01*
X159095598Y-96778286D01*
X159084683Y-96761951D01*
X159013029Y-96654711D01*
X159013023Y-96654704D01*
X158907940Y-96549621D01*
X158907933Y-96549615D01*
X158784360Y-96467047D01*
X158647049Y-96410171D01*
X158647041Y-96410169D01*
X158501285Y-96381176D01*
X158501281Y-96381176D01*
X158352657Y-96381176D01*
X158352652Y-96381176D01*
X158206896Y-96410169D01*
X158206888Y-96410171D01*
X158069577Y-96467047D01*
X157946004Y-96549615D01*
X157945997Y-96549621D01*
X157840914Y-96654704D01*
X157840908Y-96654711D01*
X157758340Y-96778284D01*
X157701464Y-96915595D01*
X157701462Y-96915603D01*
X157672469Y-97061359D01*
X157672469Y-97209992D01*
X157701462Y-97355748D01*
X157701464Y-97355756D01*
X157758339Y-97493064D01*
X157759421Y-97495088D01*
X157759793Y-97496576D01*
X157760671Y-97498694D01*
X157760357Y-97498824D01*
X157774069Y-97553552D01*
X157774069Y-98703952D01*
X157774069Y-98703954D01*
X157774068Y-98703954D01*
X157795411Y-98811245D01*
X157799159Y-98830087D01*
X157799160Y-98830091D01*
X157803111Y-98839629D01*
X157847630Y-98947109D01*
X157848377Y-98948911D01*
X157885678Y-99004737D01*
X157919831Y-99055851D01*
X157919832Y-99055852D01*
X158304038Y-99440056D01*
X158337523Y-99501379D01*
X158340357Y-99527737D01*
X158340357Y-105492967D01*
X158332113Y-105537427D01*
X158327150Y-105550347D01*
X158320961Y-105559611D01*
X158264085Y-105696921D01*
X158256813Y-105733479D01*
X158253018Y-105743360D01*
X158237975Y-105763052D01*
X158226494Y-105785002D01*
X158217140Y-105790328D01*
X158210605Y-105798884D01*
X158187307Y-105807316D01*
X158165779Y-105819576D01*
X158147576Y-105821697D01*
X158144907Y-105822664D01*
X158143004Y-105822230D01*
X158137262Y-105822900D01*
X148983892Y-105822900D01*
X148857760Y-105847989D01*
X148857754Y-105847991D01*
X148773719Y-105882800D01*
X148773718Y-105882800D01*
X148738937Y-105897206D01*
X148631997Y-105968660D01*
X148631994Y-105968663D01*
X147955862Y-106644794D01*
X147955861Y-106644795D01*
X147899638Y-106728941D01*
X147884406Y-106751737D01*
X147835190Y-106870555D01*
X147835188Y-106870561D01*
X147810099Y-106996692D01*
X147810099Y-107405123D01*
X147796389Y-107459854D01*
X147796701Y-107459983D01*
X147795832Y-107462079D01*
X147795458Y-107463575D01*
X147794369Y-107465610D01*
X147737494Y-107602919D01*
X147737492Y-107602927D01*
X147708499Y-107748683D01*
X147708499Y-107897316D01*
X147737492Y-108043072D01*
X147737494Y-108043080D01*
X147794370Y-108180391D01*
X147876938Y-108303964D01*
X147876944Y-108303971D01*
X147982027Y-108409054D01*
X147982034Y-108409060D01*
X148105607Y-108491628D01*
X148105608Y-108491628D01*
X148105609Y-108491629D01*
X148242919Y-108548505D01*
X148388682Y-108577499D01*
X148388686Y-108577500D01*
X148388687Y-108577500D01*
X148537312Y-108577500D01*
X148537313Y-108577499D01*
X148683079Y-108548505D01*
X148820389Y-108491629D01*
X148943965Y-108409059D01*
X149049058Y-108303966D01*
X149131628Y-108180390D01*
X149188504Y-108043080D01*
X149217499Y-107897312D01*
X149217499Y-107748688D01*
X149188504Y-107602920D01*
X149131628Y-107465610D01*
X149130540Y-107463575D01*
X149130165Y-107462079D01*
X149129297Y-107459983D01*
X149129608Y-107459854D01*
X149127030Y-107449562D01*
X149120922Y-107440058D01*
X149115899Y-107405123D01*
X149115899Y-107382802D01*
X149135584Y-107315763D01*
X149152218Y-107295121D01*
X149282320Y-107165019D01*
X149343643Y-107131534D01*
X149370001Y-107128700D01*
X152258099Y-107128700D01*
X152325138Y-107148385D01*
X152370893Y-107201189D01*
X152382099Y-107252700D01*
X152382099Y-107405123D01*
X152368389Y-107459854D01*
X152368701Y-107459983D01*
X152367832Y-107462079D01*
X152367458Y-107463575D01*
X152366369Y-107465610D01*
X152309494Y-107602919D01*
X152309492Y-107602927D01*
X152280499Y-107748683D01*
X152280499Y-107897316D01*
X152309492Y-108043072D01*
X152309494Y-108043080D01*
X152366370Y-108180391D01*
X152448938Y-108303964D01*
X152448944Y-108303971D01*
X152554027Y-108409054D01*
X152554034Y-108409060D01*
X152677607Y-108491628D01*
X152677608Y-108491628D01*
X152677609Y-108491629D01*
X152814919Y-108548505D01*
X152960682Y-108577499D01*
X152960686Y-108577500D01*
X152960687Y-108577500D01*
X153109312Y-108577500D01*
X153109313Y-108577499D01*
X153255079Y-108548505D01*
X153392389Y-108491629D01*
X153515965Y-108409059D01*
X153621058Y-108303966D01*
X153703628Y-108180390D01*
X153760504Y-108043080D01*
X153789499Y-107897312D01*
X153789499Y-107748688D01*
X153786794Y-107735089D01*
X153793022Y-107665499D01*
X153835886Y-107610322D01*
X153901776Y-107587078D01*
X153908412Y-107586900D01*
X156114553Y-107586900D01*
X156181592Y-107606585D01*
X156227347Y-107659389D01*
X156237291Y-107728547D01*
X156214871Y-107783786D01*
X156182543Y-107828280D01*
X156074176Y-108040963D01*
X156000411Y-108267987D01*
X156000411Y-108267988D01*
X155963070Y-108503749D01*
X155963070Y-108742450D01*
X156000411Y-108978211D01*
X156000411Y-108978212D01*
X156000412Y-108978215D01*
X156074175Y-109205234D01*
X156182543Y-109417919D01*
X156322849Y-109611033D01*
X156491637Y-109779821D01*
X156684751Y-109920127D01*
X156897436Y-110028495D01*
X157124455Y-110102258D01*
X157360219Y-110139600D01*
X157360220Y-110139600D01*
X157598920Y-110139600D01*
X157598921Y-110139600D01*
X157834685Y-110102258D01*
X158061704Y-110028495D01*
X158123636Y-109996939D01*
X159290470Y-109996939D01*
X159290470Y-110195660D01*
X159321557Y-110391937D01*
X159382963Y-110580929D01*
X159382964Y-110580932D01*
X159405466Y-110625093D01*
X159473183Y-110757994D01*
X159589989Y-110918764D01*
X159730506Y-111059281D01*
X159891276Y-111176087D01*
X159978119Y-111220335D01*
X160068337Y-111266305D01*
X160068340Y-111266306D01*
X160162836Y-111297009D01*
X160257334Y-111327713D01*
X160453609Y-111358800D01*
X160453610Y-111358800D01*
X160652330Y-111358800D01*
X160652331Y-111358800D01*
X160848606Y-111327713D01*
X161037602Y-111266305D01*
X161214664Y-111176087D01*
X161375434Y-111059281D01*
X161515951Y-110918764D01*
X161632757Y-110757994D01*
X161712485Y-110601518D01*
X161760460Y-110550723D01*
X161828281Y-110533928D01*
X161894416Y-110556465D01*
X161933454Y-110601518D01*
X162013183Y-110757994D01*
X162129989Y-110918764D01*
X162270506Y-111059281D01*
X162431276Y-111176087D01*
X162518119Y-111220335D01*
X162608337Y-111266305D01*
X162608340Y-111266306D01*
X162702836Y-111297009D01*
X162797334Y-111327713D01*
X162993609Y-111358800D01*
X162993610Y-111358800D01*
X163192330Y-111358800D01*
X163192331Y-111358800D01*
X163388606Y-111327713D01*
X163577602Y-111266305D01*
X163754664Y-111176087D01*
X163915434Y-111059281D01*
X164055951Y-110918764D01*
X164172757Y-110757994D01*
X164262975Y-110580932D01*
X164324383Y-110391936D01*
X164330248Y-110354904D01*
X167647498Y-110354904D01*
X167647498Y-110625093D01*
X167677747Y-110893557D01*
X167677748Y-110893566D01*
X167677749Y-110893570D01*
X167683500Y-110918766D01*
X167737870Y-111156978D01*
X167827104Y-111411995D01*
X167944329Y-111655415D01*
X167944331Y-111655418D01*
X168088075Y-111884186D01*
X168256530Y-112095421D01*
X168447576Y-112286467D01*
X168658811Y-112454922D01*
X168887579Y-112598666D01*
X169131003Y-112715893D01*
X169386018Y-112805126D01*
X169386020Y-112805126D01*
X169386021Y-112805127D01*
X169649427Y-112865248D01*
X169917903Y-112895498D01*
X169917904Y-112895499D01*
X169917908Y-112895499D01*
X170188092Y-112895499D01*
X170188092Y-112895498D01*
X170456569Y-112865248D01*
X170719975Y-112805127D01*
X170974993Y-112715893D01*
X171218417Y-112598666D01*
X171447185Y-112454922D01*
X171658420Y-112286467D01*
X171849466Y-112095421D01*
X172017921Y-111884186D01*
X172161665Y-111655418D01*
X172278892Y-111411994D01*
X172368126Y-111156976D01*
X172428247Y-110893570D01*
X172458498Y-110625089D01*
X172458498Y-110354909D01*
X172428247Y-110086428D01*
X172368126Y-109823022D01*
X172278892Y-109568004D01*
X172161665Y-109324580D01*
X172017921Y-109095812D01*
X171849466Y-108884577D01*
X171658420Y-108693531D01*
X171447185Y-108525076D01*
X171262544Y-108409059D01*
X171218414Y-108381330D01*
X170974994Y-108264105D01*
X170719976Y-108174871D01*
X170719978Y-108174871D01*
X170522420Y-108129780D01*
X170456569Y-108114750D01*
X170456565Y-108114749D01*
X170456556Y-108114748D01*
X170188092Y-108084499D01*
X170188088Y-108084499D01*
X169917908Y-108084499D01*
X169917904Y-108084499D01*
X169649439Y-108114748D01*
X169649427Y-108114750D01*
X169386018Y-108174871D01*
X169131001Y-108264105D01*
X168887581Y-108381330D01*
X168658812Y-108525075D01*
X168447576Y-108693530D01*
X168256529Y-108884577D01*
X168088074Y-109095813D01*
X167944329Y-109324582D01*
X167827104Y-109568002D01*
X167737870Y-109823019D01*
X167677749Y-110086428D01*
X167677747Y-110086440D01*
X167647498Y-110354904D01*
X164330248Y-110354904D01*
X164355470Y-110195661D01*
X164355470Y-110195656D01*
X164355587Y-110194918D01*
X164385516Y-110131783D01*
X164444827Y-110094851D01*
X164514689Y-110095849D01*
X164516328Y-110096368D01*
X164534455Y-110102258D01*
X164770219Y-110139600D01*
X164770220Y-110139600D01*
X165008920Y-110139600D01*
X165008921Y-110139600D01*
X165244685Y-110102258D01*
X165471704Y-110028495D01*
X165684389Y-109920127D01*
X165877503Y-109779821D01*
X166046291Y-109611033D01*
X166186597Y-109417919D01*
X166294965Y-109205234D01*
X166368728Y-108978215D01*
X166406070Y-108742451D01*
X166406070Y-108503749D01*
X166368728Y-108267985D01*
X166294965Y-108040966D01*
X166186597Y-107828281D01*
X166046291Y-107635167D01*
X165877503Y-107466379D01*
X165684389Y-107326073D01*
X165471704Y-107217705D01*
X165244685Y-107143942D01*
X165244683Y-107143941D01*
X165244681Y-107143941D01*
X165080068Y-107117868D01*
X165008921Y-107106600D01*
X164770219Y-107106600D01*
X164715565Y-107115256D01*
X164534458Y-107143941D01*
X164534457Y-107143941D01*
X164307433Y-107217706D01*
X164094750Y-107326073D01*
X164016670Y-107382802D01*
X163901637Y-107466379D01*
X163901635Y-107466381D01*
X163901634Y-107466381D01*
X163732851Y-107635164D01*
X163732851Y-107635165D01*
X163732849Y-107635167D01*
X163672682Y-107717980D01*
X163592543Y-107828280D01*
X163484176Y-108040963D01*
X163410411Y-108267987D01*
X163410411Y-108267988D01*
X163373070Y-108503749D01*
X163373070Y-108717241D01*
X163353385Y-108784280D01*
X163300581Y-108830035D01*
X163231423Y-108839979D01*
X163229751Y-108839726D01*
X163192331Y-108833800D01*
X162993609Y-108833800D01*
X162928184Y-108844162D01*
X162797332Y-108864887D01*
X162608340Y-108926293D01*
X162608337Y-108926294D01*
X162431275Y-109016513D01*
X162270503Y-109133321D01*
X162129991Y-109273833D01*
X162013183Y-109434605D01*
X161933455Y-109591080D01*
X161885480Y-109641876D01*
X161817659Y-109658671D01*
X161751524Y-109636133D01*
X161712485Y-109591080D01*
X161663693Y-109495321D01*
X161632757Y-109434606D01*
X161515951Y-109273836D01*
X161375434Y-109133319D01*
X161214664Y-109016513D01*
X161037602Y-108926294D01*
X161037599Y-108926293D01*
X160848607Y-108864887D01*
X160750468Y-108849343D01*
X160652331Y-108833800D01*
X160453609Y-108833800D01*
X160388184Y-108844162D01*
X160257332Y-108864887D01*
X160068340Y-108926293D01*
X160068337Y-108926294D01*
X159891275Y-109016513D01*
X159730503Y-109133321D01*
X159589991Y-109273833D01*
X159473183Y-109434605D01*
X159382964Y-109611667D01*
X159382963Y-109611670D01*
X159321557Y-109800662D01*
X159290470Y-109996939D01*
X158123636Y-109996939D01*
X158274389Y-109920127D01*
X158467503Y-109779821D01*
X158636291Y-109611033D01*
X158776597Y-109417919D01*
X158884965Y-109205234D01*
X158958728Y-108978215D01*
X158996070Y-108742451D01*
X158996070Y-108503749D01*
X158958728Y-108267985D01*
X158884965Y-108040966D01*
X158776597Y-107828281D01*
X158744268Y-107783784D01*
X158720789Y-107717980D01*
X158736614Y-107649926D01*
X158786720Y-107601231D01*
X158844587Y-107586900D01*
X160846306Y-107586900D01*
X160931164Y-107570019D01*
X160972443Y-107561809D01*
X161091263Y-107512592D01*
X161105765Y-107502902D01*
X161198199Y-107441141D01*
X161924140Y-106715199D01*
X161995592Y-106608263D01*
X162029911Y-106525408D01*
X162044808Y-106489444D01*
X162057132Y-106427489D01*
X162069899Y-106363307D01*
X162069899Y-105091692D01*
X162044809Y-104965561D01*
X162044808Y-104965560D01*
X162044808Y-104965556D01*
X161995591Y-104846736D01*
X161942447Y-104767200D01*
X161924139Y-104739800D01*
X161924138Y-104739798D01*
X161515276Y-104330936D01*
X161481791Y-104269613D01*
X161478957Y-104243255D01*
X161478957Y-98219151D01*
X161498642Y-98152112D01*
X161551446Y-98106357D01*
X161602957Y-98095151D01*
X162015123Y-98095151D01*
X162069852Y-98108861D01*
X162069982Y-98108549D01*
X162072085Y-98109420D01*
X162073581Y-98109795D01*
X162075614Y-98110882D01*
X162126333Y-98131890D01*
X162212920Y-98167756D01*
X162264817Y-98178079D01*
X162315290Y-98188119D01*
X162377201Y-98220504D01*
X162411775Y-98281219D01*
X162415099Y-98309736D01*
X162415099Y-102325123D01*
X162401389Y-102379854D01*
X162401701Y-102379983D01*
X162400832Y-102382079D01*
X162400458Y-102383575D01*
X162399369Y-102385610D01*
X162342494Y-102522919D01*
X162342492Y-102522927D01*
X162313499Y-102668683D01*
X162313499Y-102817316D01*
X162342492Y-102963072D01*
X162342494Y-102963080D01*
X162399370Y-103100391D01*
X162481938Y-103223964D01*
X162481944Y-103223971D01*
X162587027Y-103329054D01*
X162587034Y-103329060D01*
X162710607Y-103411628D01*
X162710608Y-103411628D01*
X162710609Y-103411629D01*
X162847919Y-103468505D01*
X162993682Y-103497499D01*
X162993686Y-103497500D01*
X162993687Y-103497500D01*
X163142312Y-103497500D01*
X163142313Y-103497499D01*
X163288079Y-103468505D01*
X163350745Y-103442546D01*
X163420215Y-103435077D01*
X163445652Y-103442545D01*
X163508322Y-103468505D01*
X163654085Y-103497499D01*
X163654089Y-103497500D01*
X163654090Y-103497500D01*
X163802715Y-103497500D01*
X163802716Y-103497499D01*
X163948482Y-103468505D01*
X164085792Y-103411629D01*
X164209368Y-103329059D01*
X164314461Y-103223966D01*
X164397031Y-103100390D01*
X164453907Y-102963080D01*
X164482902Y-102817312D01*
X164482902Y-102668688D01*
X164453907Y-102522920D01*
X164397031Y-102385610D01*
X164363601Y-102335578D01*
X164353251Y-102316730D01*
X164352686Y-102315449D01*
X164306994Y-102205139D01*
X164304282Y-102201080D01*
X164235542Y-102098203D01*
X164235535Y-102098196D01*
X164215416Y-102078076D01*
X164181932Y-102016753D01*
X164179099Y-101990397D01*
X164179099Y-98947900D01*
X164198784Y-98880861D01*
X164251588Y-98835106D01*
X164303099Y-98823900D01*
X164555122Y-98823900D01*
X164609851Y-98837610D01*
X164609981Y-98837298D01*
X164612084Y-98838169D01*
X164613580Y-98838544D01*
X164615613Y-98839631D01*
X164662374Y-98859000D01*
X164752919Y-98896505D01*
X164898682Y-98925499D01*
X164898686Y-98925500D01*
X164898687Y-98925500D01*
X165047312Y-98925500D01*
X165047313Y-98925499D01*
X165193079Y-98896505D01*
X165330389Y-98839629D01*
X165453965Y-98757059D01*
X165559058Y-98651966D01*
X165641628Y-98528390D01*
X165698504Y-98391080D01*
X165727499Y-98245312D01*
X165727499Y-98096688D01*
X165698504Y-97950920D01*
X165641628Y-97813610D01*
X165639692Y-97810713D01*
X165559059Y-97690035D01*
X165559053Y-97690028D01*
X165453970Y-97584945D01*
X165453963Y-97584939D01*
X165330390Y-97502371D01*
X165193079Y-97445495D01*
X165193071Y-97445493D01*
X165047315Y-97416500D01*
X165047311Y-97416500D01*
X164898687Y-97416500D01*
X164863287Y-97423541D01*
X164785489Y-97439016D01*
X164715898Y-97432788D01*
X164660721Y-97389924D01*
X164637477Y-97324034D01*
X164637299Y-97317398D01*
X164637299Y-96597099D01*
X164612209Y-96470968D01*
X164612208Y-96470967D01*
X164612208Y-96470963D01*
X164562991Y-96352143D01*
X164525675Y-96296296D01*
X164525675Y-96296295D01*
X164491540Y-96245208D01*
X164491534Y-96245201D01*
X163630218Y-95383885D01*
X163596733Y-95322562D01*
X163593899Y-95296204D01*
X163593899Y-89952876D01*
X163607610Y-89898148D01*
X163607297Y-89898018D01*
X163608174Y-89895900D01*
X163608547Y-89894412D01*
X163609622Y-89892397D01*
X163609628Y-89892390D01*
X163666504Y-89755080D01*
X163695499Y-89609312D01*
X163695499Y-89460688D01*
X163666504Y-89314920D01*
X163634498Y-89237653D01*
X163627030Y-89168185D01*
X163638203Y-89136061D01*
X163638097Y-89136018D01*
X163638853Y-89134190D01*
X163639707Y-89131738D01*
X163640419Y-89130402D01*
X163640428Y-89130390D01*
X163697304Y-88993080D01*
X163726299Y-88847312D01*
X163726299Y-88698688D01*
X163697304Y-88552920D01*
X163640428Y-88415610D01*
X163572617Y-88314123D01*
X163557859Y-88292035D01*
X163557853Y-88292028D01*
X163452770Y-88186945D01*
X163452763Y-88186939D01*
X163329190Y-88104371D01*
X163191879Y-88047495D01*
X163191871Y-88047493D01*
X163046115Y-88018500D01*
X163046111Y-88018500D01*
X162897487Y-88018500D01*
X162897482Y-88018500D01*
X162751726Y-88047493D01*
X162751718Y-88047495D01*
X162614407Y-88104371D01*
X162490834Y-88186939D01*
X162490827Y-88186945D01*
X162385744Y-88292028D01*
X162385738Y-88292035D01*
X162303170Y-88415608D01*
X162303169Y-88415610D01*
X162282765Y-88464868D01*
X162255886Y-88505094D01*
X161994103Y-88766876D01*
X161932780Y-88800361D01*
X161882232Y-88800813D01*
X161809606Y-88786367D01*
X161660982Y-88786367D01*
X161660977Y-88786367D01*
X161515221Y-88815360D01*
X161515213Y-88815362D01*
X161377903Y-88872238D01*
X161337633Y-88899145D01*
X161307336Y-88908631D01*
X161277587Y-88919726D01*
X161274232Y-88918996D01*
X161270956Y-88920022D01*
X161240337Y-88911622D01*
X161209315Y-88904873D01*
X161205600Y-88902092D01*
X161203576Y-88901537D01*
X161181061Y-88883721D01*
X161158150Y-88860809D01*
X161129147Y-88812418D01*
X161128835Y-88812548D01*
X161127961Y-88810438D01*
X161127171Y-88809120D01*
X161126505Y-88806926D01*
X161126504Y-88806920D01*
X161069628Y-88669610D01*
X161054775Y-88647381D01*
X160987059Y-88546035D01*
X160987053Y-88546028D01*
X160881970Y-88440945D01*
X160881963Y-88440939D01*
X160758390Y-88358371D01*
X160621079Y-88301495D01*
X160621071Y-88301493D01*
X160475315Y-88272500D01*
X160475311Y-88272500D01*
X160326687Y-88272500D01*
X160326682Y-88272500D01*
X160180926Y-88301493D01*
X160180918Y-88301495D01*
X160043607Y-88358371D01*
X159920034Y-88440939D01*
X159920027Y-88440945D01*
X159814944Y-88546028D01*
X159814938Y-88546035D01*
X159732370Y-88669608D01*
X159675494Y-88806919D01*
X159675492Y-88806927D01*
X159646499Y-88952683D01*
X159646499Y-89101316D01*
X159675492Y-89247072D01*
X159675494Y-89247080D01*
X159732370Y-89384391D01*
X159814938Y-89507964D01*
X159814944Y-89507971D01*
X159920027Y-89613054D01*
X159920034Y-89613060D01*
X160043607Y-89695628D01*
X160043608Y-89695628D01*
X160043609Y-89695629D01*
X160180919Y-89752505D01*
X160180929Y-89752507D01*
X160183126Y-89753174D01*
X160184448Y-89753966D01*
X160186547Y-89754836D01*
X160186418Y-89755147D01*
X160234812Y-89784154D01*
X160600780Y-90150121D01*
X160634265Y-90211444D01*
X160637099Y-90237802D01*
X160637099Y-94024855D01*
X160629038Y-94052305D01*
X160623933Y-94080460D01*
X160619318Y-94085406D01*
X160617414Y-94091894D01*
X160595796Y-94110625D01*
X160576276Y-94131554D01*
X160569720Y-94133220D01*
X160564610Y-94137649D01*
X160536292Y-94141720D01*
X160508561Y-94148772D01*
X160502146Y-94146630D01*
X160495452Y-94147593D01*
X160469424Y-94135706D01*
X160442287Y-94126647D01*
X160436357Y-94120605D01*
X160431896Y-94118568D01*
X160416477Y-94102574D01*
X160413040Y-94098301D01*
X160352058Y-94007034D01*
X160288523Y-93943499D01*
X160284322Y-93938276D01*
X160273437Y-93911929D01*
X160259778Y-93886915D01*
X160259704Y-93878691D01*
X160257643Y-93873701D01*
X160259565Y-93863099D01*
X160259327Y-93836366D01*
X160266499Y-93800312D01*
X160266499Y-93651688D01*
X160237504Y-93505920D01*
X160180628Y-93368610D01*
X160171809Y-93355412D01*
X160098059Y-93245035D01*
X160098053Y-93245028D01*
X159992970Y-93139945D01*
X159992963Y-93139939D01*
X159869390Y-93057371D01*
X159732079Y-93000495D01*
X159732071Y-93000493D01*
X159586315Y-92971500D01*
X159586311Y-92971500D01*
X159437687Y-92971500D01*
X159437682Y-92971500D01*
X159291926Y-93000493D01*
X159291919Y-93000495D01*
X159279090Y-93005809D01*
X159209621Y-93013276D01*
X159187474Y-93007115D01*
X159174390Y-93002127D01*
X159158188Y-92991302D01*
X159020878Y-92934426D01*
X158970462Y-92924397D01*
X158960714Y-92920682D01*
X158940866Y-92905601D01*
X158918776Y-92894046D01*
X158913526Y-92884827D01*
X158905082Y-92878411D01*
X158896538Y-92854995D01*
X158884202Y-92833330D01*
X158884769Y-92822736D01*
X158881135Y-92812774D01*
X158886607Y-92788456D01*
X158887942Y-92763561D01*
X158894581Y-92753025D01*
X158896475Y-92744609D01*
X158905474Y-92735737D01*
X158917198Y-92717133D01*
X159432935Y-92201396D01*
X159432940Y-92201391D01*
X159464443Y-92154243D01*
X159493226Y-92111166D01*
X159493228Y-92111161D01*
X159493232Y-92111156D01*
X159504391Y-92094456D01*
X159553608Y-91975636D01*
X159578699Y-91849497D01*
X159578699Y-90454273D01*
X159592410Y-90399545D01*
X159592097Y-90399415D01*
X159592974Y-90397297D01*
X159593347Y-90395809D01*
X159594422Y-90393794D01*
X159594428Y-90393787D01*
X159651304Y-90256477D01*
X159680299Y-90110709D01*
X159680299Y-89962085D01*
X159651304Y-89816317D01*
X159594428Y-89679007D01*
X159582788Y-89661587D01*
X159511859Y-89555432D01*
X159511853Y-89555425D01*
X159406770Y-89450342D01*
X159406763Y-89450336D01*
X159283190Y-89367768D01*
X159283186Y-89367766D01*
X159282597Y-89367522D01*
X159282335Y-89367311D01*
X159277815Y-89364895D01*
X159278273Y-89364037D01*
X159228196Y-89323677D01*
X159215496Y-89300416D01*
X159215412Y-89300214D01*
X159168382Y-89186672D01*
X159164629Y-89177611D01*
X159164627Y-89177608D01*
X159082059Y-89054035D01*
X159082053Y-89054028D01*
X158976970Y-88948945D01*
X158976963Y-88948939D01*
X158853390Y-88866371D01*
X158716079Y-88809495D01*
X158716071Y-88809493D01*
X158570315Y-88780500D01*
X158570311Y-88780500D01*
X158421687Y-88780500D01*
X158421682Y-88780500D01*
X158275926Y-88809493D01*
X158275918Y-88809495D01*
X158138607Y-88866371D01*
X158015034Y-88948939D01*
X158015027Y-88948945D01*
X157909944Y-89054028D01*
X157909938Y-89054035D01*
X157827370Y-89177608D01*
X157770494Y-89314919D01*
X157770492Y-89314927D01*
X157740977Y-89463309D01*
X157738303Y-89473984D01*
X157713099Y-89600692D01*
X157713099Y-90386707D01*
X157726539Y-90454273D01*
X157733309Y-90488305D01*
X157738190Y-90512844D01*
X157787407Y-90631664D01*
X157801017Y-90652034D01*
X157805839Y-90664094D01*
X157807964Y-90686465D01*
X157814679Y-90707910D01*
X157814699Y-90710124D01*
X157814699Y-91273597D01*
X157795014Y-91340636D01*
X157778380Y-91361278D01*
X157069077Y-92070581D01*
X157007754Y-92104066D01*
X156981396Y-92106900D01*
X156326499Y-92106900D01*
X156259460Y-92087215D01*
X156213705Y-92034411D01*
X156202499Y-91982900D01*
X156202499Y-91928487D01*
X156202498Y-91928483D01*
X156179377Y-91812248D01*
X156173504Y-91782720D01*
X156116628Y-91645410D01*
X156108691Y-91633532D01*
X156034059Y-91521835D01*
X156034053Y-91521828D01*
X155928970Y-91416745D01*
X155928963Y-91416739D01*
X155805390Y-91334171D01*
X155805391Y-91334171D01*
X155796443Y-91330465D01*
X155742041Y-91286622D01*
X155719978Y-91220327D01*
X155719899Y-91215905D01*
X155719899Y-85880715D01*
X159467267Y-85880715D01*
X159467267Y-86029348D01*
X159496260Y-86175104D01*
X159496262Y-86175112D01*
X159553138Y-86312423D01*
X159635706Y-86435996D01*
X159635712Y-86436003D01*
X159740795Y-86541086D01*
X159740802Y-86541092D01*
X159864375Y-86623660D01*
X159864376Y-86623660D01*
X159864377Y-86623661D01*
X160001687Y-86680537D01*
X160147450Y-86709531D01*
X160147454Y-86709532D01*
X160147455Y-86709532D01*
X160296080Y-86709532D01*
X160296081Y-86709531D01*
X160441847Y-86680537D01*
X160579157Y-86623661D01*
X160579162Y-86623657D01*
X160581186Y-86622576D01*
X160582681Y-86622201D01*
X160584785Y-86621330D01*
X160584914Y-86621642D01*
X160595201Y-86619065D01*
X160604709Y-86612955D01*
X160639644Y-86607932D01*
X160855344Y-86607932D01*
X160922383Y-86627617D01*
X160943026Y-86644252D01*
X160990827Y-86692054D01*
X160990834Y-86692060D01*
X161114407Y-86774628D01*
X161114408Y-86774628D01*
X161114409Y-86774629D01*
X161251719Y-86831505D01*
X161397482Y-86860499D01*
X161397486Y-86860500D01*
X161397487Y-86860500D01*
X161546112Y-86860500D01*
X161546113Y-86860499D01*
X161691879Y-86831505D01*
X161829189Y-86774629D01*
X161952765Y-86692059D01*
X162057858Y-86586966D01*
X162140428Y-86463390D01*
X162197304Y-86326080D01*
X162226299Y-86180312D01*
X162226299Y-86031688D01*
X162197304Y-85885920D01*
X162140428Y-85748610D01*
X162131301Y-85734951D01*
X162057859Y-85625035D01*
X162057853Y-85625028D01*
X161952770Y-85519945D01*
X161952763Y-85519939D01*
X161829190Y-85437371D01*
X161829191Y-85437371D01*
X161751340Y-85405125D01*
X161691879Y-85380495D01*
X161602870Y-85362789D01*
X161601956Y-85362593D01*
X161601201Y-85362183D01*
X161580564Y-85355923D01*
X161511276Y-85327223D01*
X161511268Y-85327221D01*
X161385138Y-85302132D01*
X161385136Y-85302132D01*
X160639644Y-85302132D01*
X160584914Y-85288421D01*
X160584785Y-85288734D01*
X160582681Y-85287862D01*
X160581186Y-85287488D01*
X160579152Y-85286400D01*
X160541207Y-85270683D01*
X162505967Y-85270683D01*
X162505967Y-85419316D01*
X162534960Y-85565072D01*
X162534963Y-85565084D01*
X162568518Y-85646093D01*
X162575987Y-85715562D01*
X162568519Y-85740995D01*
X162550232Y-85785145D01*
X162550229Y-85785153D01*
X162521237Y-85930909D01*
X162521237Y-86079542D01*
X162550230Y-86225298D01*
X162550232Y-86225306D01*
X162607108Y-86362617D01*
X162689676Y-86486190D01*
X162689682Y-86486197D01*
X162794765Y-86591280D01*
X162794772Y-86591286D01*
X162918345Y-86673854D01*
X162918346Y-86673854D01*
X162918347Y-86673855D01*
X163055657Y-86730731D01*
X163201420Y-86759725D01*
X163201424Y-86759726D01*
X163201425Y-86759726D01*
X163350050Y-86759726D01*
X163350051Y-86759725D01*
X163495817Y-86730731D01*
X163633127Y-86673855D01*
X163633132Y-86673851D01*
X163635156Y-86672770D01*
X163636651Y-86672395D01*
X163638755Y-86671524D01*
X163638884Y-86671836D01*
X163693614Y-86658126D01*
X166201422Y-86658126D01*
X166268461Y-86677811D01*
X166289103Y-86694445D01*
X166696780Y-87102121D01*
X166730265Y-87163444D01*
X166733099Y-87189802D01*
X166733099Y-90653105D01*
X166713414Y-90720144D01*
X166660610Y-90765899D01*
X166656555Y-90767665D01*
X166647606Y-90771371D01*
X166524034Y-90853939D01*
X166524027Y-90853945D01*
X166418944Y-90959028D01*
X166418938Y-90959035D01*
X166336370Y-91082608D01*
X166279494Y-91219919D01*
X166279492Y-91219927D01*
X166250499Y-91365683D01*
X166250499Y-91514316D01*
X166279492Y-91660072D01*
X166279494Y-91660080D01*
X166336370Y-91797391D01*
X166418938Y-91920964D01*
X166418944Y-91920971D01*
X166524027Y-92026054D01*
X166524034Y-92026060D01*
X166647607Y-92108628D01*
X166647606Y-92108628D01*
X166710277Y-92134587D01*
X166764680Y-92178428D01*
X166777384Y-92201694D01*
X166803342Y-92264361D01*
X166803345Y-92264366D01*
X166885913Y-92387939D01*
X166885919Y-92387946D01*
X166991002Y-92493029D01*
X166991009Y-92493035D01*
X167114582Y-92575603D01*
X167114583Y-92575603D01*
X167114584Y-92575604D01*
X167251894Y-92632480D01*
X167397657Y-92661474D01*
X167397661Y-92661475D01*
X167397662Y-92661475D01*
X167546287Y-92661475D01*
X167546288Y-92661474D01*
X167692054Y-92632480D01*
X167829364Y-92575604D01*
X167952940Y-92493034D01*
X168058033Y-92387941D01*
X168140603Y-92264365D01*
X168197479Y-92127055D01*
X168226474Y-91981287D01*
X168226474Y-91841219D01*
X168246159Y-91774180D01*
X168262788Y-91753542D01*
X168351339Y-91664992D01*
X168422791Y-91558056D01*
X168472008Y-91439236D01*
X168475921Y-91419564D01*
X168482301Y-91387490D01*
X168497099Y-91313099D01*
X168497099Y-86742134D01*
X170353499Y-86742134D01*
X170353499Y-88537869D01*
X170353500Y-88537875D01*
X170359907Y-88597482D01*
X170410201Y-88732327D01*
X170410205Y-88732334D01*
X170496451Y-88847543D01*
X170496454Y-88847546D01*
X170611663Y-88933792D01*
X170611670Y-88933796D01*
X170743081Y-88982809D01*
X170799015Y-89024680D01*
X170823432Y-89090144D01*
X170808581Y-89158417D01*
X170787430Y-89186672D01*
X170673888Y-89300214D01*
X170548950Y-89472178D01*
X170452443Y-89661584D01*
X170386752Y-89863759D01*
X170353499Y-90073712D01*
X170353499Y-90286285D01*
X170380105Y-90454273D01*
X170386753Y-90496242D01*
X170448560Y-90686465D01*
X170452443Y-90698413D01*
X170548950Y-90887819D01*
X170673889Y-91059785D01*
X170824212Y-91210108D01*
X170996181Y-91335049D01*
X171004945Y-91339515D01*
X171055741Y-91387490D01*
X171072535Y-91455311D01*
X171049997Y-91521446D01*
X171004945Y-91560483D01*
X170996181Y-91564948D01*
X170824212Y-91689889D01*
X170673889Y-91840212D01*
X170548950Y-92012178D01*
X170452443Y-92201584D01*
X170386752Y-92403759D01*
X170353499Y-92613712D01*
X170353499Y-92826285D01*
X170383115Y-93013276D01*
X170386753Y-93036242D01*
X170420448Y-93139945D01*
X170452443Y-93238413D01*
X170548950Y-93427819D01*
X170673889Y-93599785D01*
X170824212Y-93750108D01*
X170996181Y-93875049D01*
X171004945Y-93879515D01*
X171055741Y-93927490D01*
X171072535Y-93995311D01*
X171049997Y-94061446D01*
X171004945Y-94100483D01*
X170996181Y-94104948D01*
X170824212Y-94229889D01*
X170673889Y-94380212D01*
X170548950Y-94552178D01*
X170452443Y-94741584D01*
X170386752Y-94943759D01*
X170366115Y-95074059D01*
X170353499Y-95153712D01*
X170353499Y-95366286D01*
X170361801Y-95418704D01*
X170386752Y-95576238D01*
X170452443Y-95778413D01*
X170548950Y-95967819D01*
X170673889Y-96139785D01*
X170824212Y-96290108D01*
X170996178Y-96415047D01*
X170996180Y-96415048D01*
X170996183Y-96415050D01*
X171185587Y-96511556D01*
X171387756Y-96577245D01*
X171597712Y-96610499D01*
X171597713Y-96610499D01*
X171810285Y-96610499D01*
X171810286Y-96610499D01*
X172020242Y-96577245D01*
X172222411Y-96511556D01*
X172411815Y-96415050D01*
X172458439Y-96381176D01*
X172583785Y-96290108D01*
X172583787Y-96290105D01*
X172583791Y-96290103D01*
X172734103Y-96139791D01*
X172734105Y-96139787D01*
X172734108Y-96139785D01*
X172859047Y-95967819D01*
X172859046Y-95967819D01*
X172859050Y-95967815D01*
X172955556Y-95778411D01*
X173021245Y-95576242D01*
X173054499Y-95366286D01*
X173054499Y-95153712D01*
X173021245Y-94943756D01*
X172955556Y-94741587D01*
X172859050Y-94552183D01*
X172859048Y-94552180D01*
X172859047Y-94552178D01*
X172734108Y-94380212D01*
X172583785Y-94229889D01*
X172411819Y-94104950D01*
X172411114Y-94104590D01*
X172403053Y-94100484D01*
X172352258Y-94052511D01*
X172335462Y-93984691D01*
X172357998Y-93918555D01*
X172403053Y-93879514D01*
X172411815Y-93875050D01*
X172433788Y-93859085D01*
X172583785Y-93750108D01*
X172583787Y-93750105D01*
X172583791Y-93750103D01*
X172734103Y-93599791D01*
X172734105Y-93599787D01*
X172734108Y-93599785D01*
X172859047Y-93427819D01*
X172859046Y-93427819D01*
X172859050Y-93427815D01*
X172955556Y-93238411D01*
X173021245Y-93036242D01*
X173054499Y-92826286D01*
X173054499Y-92613712D01*
X173021245Y-92403756D01*
X172955556Y-92201587D01*
X172859050Y-92012183D01*
X172859048Y-92012180D01*
X172859047Y-92012178D01*
X172734108Y-91840212D01*
X172583785Y-91689889D01*
X172411819Y-91564950D01*
X172411114Y-91564590D01*
X172403053Y-91560484D01*
X172352258Y-91512511D01*
X172335462Y-91444691D01*
X172357998Y-91378555D01*
X172403053Y-91339514D01*
X172411815Y-91335050D01*
X172478471Y-91286622D01*
X172583785Y-91210108D01*
X172583787Y-91210105D01*
X172583791Y-91210103D01*
X172734103Y-91059791D01*
X172734105Y-91059787D01*
X172734108Y-91059785D01*
X172859047Y-90887819D01*
X172859046Y-90887819D01*
X172859050Y-90887815D01*
X172955556Y-90698411D01*
X173021245Y-90496242D01*
X173054499Y-90286286D01*
X173054499Y-90073712D01*
X173021245Y-89863756D01*
X172955556Y-89661587D01*
X172859050Y-89472183D01*
X172859048Y-89472180D01*
X172859047Y-89472178D01*
X172734108Y-89300212D01*
X172620568Y-89186672D01*
X172587083Y-89125349D01*
X172592067Y-89055657D01*
X172633939Y-88999724D01*
X172664914Y-88982809D01*
X172796330Y-88933795D01*
X172911545Y-88847545D01*
X172997795Y-88732330D01*
X173048090Y-88597482D01*
X173054499Y-88537872D01*
X173054498Y-86742127D01*
X173048090Y-86682516D01*
X173047352Y-86680538D01*
X172997796Y-86547670D01*
X172997792Y-86547663D01*
X172911546Y-86432454D01*
X172911543Y-86432451D01*
X172796334Y-86346205D01*
X172796327Y-86346201D01*
X172661481Y-86295907D01*
X172661482Y-86295907D01*
X172601882Y-86289500D01*
X172601880Y-86289499D01*
X172601872Y-86289499D01*
X172601863Y-86289499D01*
X170806128Y-86289499D01*
X170806122Y-86289500D01*
X170746515Y-86295907D01*
X170611670Y-86346201D01*
X170611663Y-86346205D01*
X170496454Y-86432451D01*
X170496451Y-86432454D01*
X170410205Y-86547663D01*
X170410201Y-86547670D01*
X170359907Y-86682516D01*
X170354724Y-86730730D01*
X170353500Y-86742122D01*
X170353499Y-86742134D01*
X168497099Y-86742134D01*
X168497099Y-86613900D01*
X168472009Y-86487769D01*
X168472008Y-86487768D01*
X168472008Y-86487764D01*
X168422791Y-86368944D01*
X168386406Y-86314490D01*
X168351340Y-86262009D01*
X168351338Y-86262007D01*
X168351336Y-86262004D01*
X168351335Y-86262003D01*
X167129221Y-85039888D01*
X167129220Y-85039887D01*
X167050978Y-84987608D01*
X167022282Y-84968434D01*
X166991054Y-84955499D01*
X166903462Y-84919217D01*
X166903456Y-84919215D01*
X166777325Y-84894126D01*
X166777323Y-84894126D01*
X163927981Y-84894126D01*
X163860942Y-84874441D01*
X163840300Y-84857807D01*
X163741438Y-84758945D01*
X163741431Y-84758939D01*
X163617858Y-84676371D01*
X163480547Y-84619495D01*
X163480539Y-84619493D01*
X163334783Y-84590500D01*
X163334779Y-84590500D01*
X163186155Y-84590500D01*
X163186150Y-84590500D01*
X163040394Y-84619493D01*
X163040386Y-84619495D01*
X162903075Y-84676371D01*
X162779502Y-84758939D01*
X162779495Y-84758945D01*
X162674412Y-84864028D01*
X162674406Y-84864035D01*
X162591838Y-84987608D01*
X162534962Y-85124919D01*
X162534960Y-85124927D01*
X162505967Y-85270683D01*
X160541207Y-85270683D01*
X160441847Y-85229527D01*
X160441839Y-85229525D01*
X160296083Y-85200532D01*
X160296079Y-85200532D01*
X160147455Y-85200532D01*
X160147450Y-85200532D01*
X160001694Y-85229525D01*
X160001686Y-85229527D01*
X159864375Y-85286403D01*
X159740802Y-85368971D01*
X159740795Y-85368977D01*
X159635712Y-85474060D01*
X159635706Y-85474067D01*
X159553138Y-85597640D01*
X159496262Y-85734951D01*
X159496260Y-85734959D01*
X159467267Y-85880715D01*
X155719899Y-85880715D01*
X155719899Y-78602500D01*
X155739584Y-78535461D01*
X155792388Y-78489706D01*
X155843899Y-78478500D01*
X155903312Y-78478500D01*
X155903313Y-78478499D01*
X156049079Y-78449505D01*
X156186389Y-78392629D01*
X156186394Y-78392625D01*
X156188418Y-78391544D01*
X156189913Y-78391169D01*
X156192017Y-78390298D01*
X156192146Y-78390610D01*
X156246876Y-78376900D01*
X163640719Y-78376900D01*
X163695448Y-78390610D01*
X163695578Y-78390298D01*
X163697681Y-78391169D01*
X163699177Y-78391544D01*
X163701210Y-78392631D01*
X163722400Y-78401408D01*
X163838516Y-78449505D01*
X163949495Y-78471580D01*
X163984279Y-78478499D01*
X163984283Y-78478500D01*
X163984284Y-78478500D01*
X164132909Y-78478500D01*
X164132910Y-78478499D01*
X164278676Y-78449505D01*
X164341342Y-78423546D01*
X164410812Y-78416077D01*
X164436249Y-78423545D01*
X164498919Y-78449505D01*
X164609898Y-78471580D01*
X164644682Y-78478499D01*
X164644686Y-78478500D01*
X164644687Y-78478500D01*
X164793312Y-78478500D01*
X164793313Y-78478499D01*
X164939079Y-78449505D01*
X165076389Y-78392629D01*
X165199965Y-78310059D01*
X165305058Y-78204966D01*
X165387628Y-78081390D01*
X165444504Y-77944080D01*
X165473499Y-77798312D01*
X165473499Y-77649688D01*
X165444504Y-77503920D01*
X165387628Y-77366610D01*
X165387627Y-77366609D01*
X165387624Y-77366603D01*
X165367864Y-77337030D01*
X165353990Y-77309279D01*
X165351066Y-77300967D01*
X165346808Y-77279556D01*
X165326422Y-77230340D01*
X165297592Y-77160737D01*
X165226140Y-77053801D01*
X165226138Y-77053798D01*
X165226137Y-77053797D01*
X164728801Y-76556460D01*
X164728800Y-76556459D01*
X164710688Y-76544357D01*
X164621860Y-76485005D01*
X164503040Y-76435788D01*
X164503034Y-76435786D01*
X164376903Y-76410697D01*
X164376901Y-76410697D01*
X156246876Y-76410697D01*
X156192146Y-76396986D01*
X156192017Y-76397299D01*
X156189913Y-76396427D01*
X156188418Y-76396053D01*
X156186384Y-76394965D01*
X156049079Y-76338092D01*
X156049071Y-76338090D01*
X155903315Y-76309097D01*
X155903311Y-76309097D01*
X155843899Y-76309097D01*
X155776860Y-76289412D01*
X155731105Y-76236608D01*
X155719899Y-76185097D01*
X155719899Y-72838692D01*
X155694809Y-72712561D01*
X155694808Y-72712560D01*
X155694808Y-72712556D01*
X155645591Y-72593736D01*
X155616441Y-72550110D01*
X155574139Y-72486800D01*
X155574137Y-72486797D01*
X155342244Y-72254904D01*
X167647498Y-72254904D01*
X167647498Y-72525093D01*
X167677747Y-72793557D01*
X167677749Y-72793569D01*
X167737870Y-73056978D01*
X167827104Y-73311995D01*
X167944329Y-73555415D01*
X167944331Y-73555418D01*
X168088075Y-73784186D01*
X168256530Y-73995421D01*
X168447576Y-74186467D01*
X168658811Y-74354922D01*
X168887579Y-74498666D01*
X169131003Y-74615893D01*
X169386018Y-74705126D01*
X169386020Y-74705126D01*
X169386021Y-74705127D01*
X169649427Y-74765248D01*
X169917903Y-74795498D01*
X169917904Y-74795499D01*
X169917908Y-74795499D01*
X170188092Y-74795499D01*
X170188092Y-74795498D01*
X170456569Y-74765248D01*
X170719975Y-74705127D01*
X170974993Y-74615893D01*
X171218417Y-74498666D01*
X171447185Y-74354922D01*
X171658420Y-74186467D01*
X171849466Y-73995421D01*
X172017921Y-73784186D01*
X172161665Y-73555418D01*
X172278892Y-73311994D01*
X172368126Y-73056976D01*
X172428247Y-72793570D01*
X172458498Y-72525089D01*
X172458498Y-72254909D01*
X172428247Y-71986428D01*
X172368126Y-71723022D01*
X172278892Y-71468004D01*
X172161665Y-71224580D01*
X172017921Y-70995812D01*
X171849466Y-70784577D01*
X171658420Y-70593531D01*
X171447185Y-70425076D01*
X171218417Y-70281332D01*
X171218414Y-70281330D01*
X170974994Y-70164105D01*
X170719976Y-70074871D01*
X170719978Y-70074871D01*
X170473879Y-70018701D01*
X170456569Y-70014750D01*
X170456565Y-70014749D01*
X170456556Y-70014748D01*
X170188092Y-69984499D01*
X170188088Y-69984499D01*
X169917908Y-69984499D01*
X169917904Y-69984499D01*
X169649439Y-70014748D01*
X169649427Y-70014750D01*
X169386018Y-70074871D01*
X169131001Y-70164105D01*
X168887581Y-70281330D01*
X168658812Y-70425075D01*
X168447576Y-70593530D01*
X168256529Y-70784577D01*
X168088074Y-70995813D01*
X167944329Y-71224582D01*
X167827104Y-71468002D01*
X167737870Y-71723019D01*
X167677749Y-71986428D01*
X167677747Y-71986440D01*
X167647498Y-72254904D01*
X155342244Y-72254904D01*
X154254302Y-71166962D01*
X154220817Y-71105639D01*
X154219510Y-71059883D01*
X154220263Y-71055129D01*
X154253499Y-70845287D01*
X154253499Y-70632713D01*
X154220245Y-70422757D01*
X154154556Y-70220588D01*
X154058050Y-70031184D01*
X153933103Y-69859208D01*
X153915030Y-69841135D01*
X155875499Y-69841135D01*
X155875499Y-71636870D01*
X155875500Y-71636876D01*
X155881907Y-71696483D01*
X155932201Y-71831328D01*
X155932205Y-71831335D01*
X156018451Y-71946544D01*
X156018454Y-71946547D01*
X156133663Y-72032793D01*
X156133670Y-72032797D01*
X156268516Y-72083091D01*
X156268515Y-72083091D01*
X156275443Y-72083835D01*
X156328126Y-72089500D01*
X158123871Y-72089499D01*
X158183482Y-72083091D01*
X158318330Y-72032796D01*
X158433545Y-71946546D01*
X158519795Y-71831331D01*
X158568809Y-71699916D01*
X158610680Y-71643984D01*
X158676144Y-71619566D01*
X158744417Y-71634417D01*
X158772672Y-71655569D01*
X158886212Y-71769109D01*
X159058178Y-71894048D01*
X159058180Y-71894049D01*
X159058183Y-71894051D01*
X159247587Y-71990557D01*
X159449756Y-72056246D01*
X159659712Y-72089500D01*
X159659713Y-72089500D01*
X159872285Y-72089500D01*
X159872286Y-72089500D01*
X160082242Y-72056246D01*
X160284411Y-71990557D01*
X160473815Y-71894051D01*
X160560137Y-71831335D01*
X160645785Y-71769109D01*
X160645787Y-71769106D01*
X160645791Y-71769104D01*
X160796103Y-71618792D01*
X160796105Y-71618788D01*
X160796108Y-71618786D01*
X160921047Y-71446820D01*
X160921046Y-71446820D01*
X160921050Y-71446816D01*
X160925513Y-71438054D01*
X160973487Y-71387259D01*
X161041307Y-71370463D01*
X161107443Y-71392999D01*
X161146485Y-71438056D01*
X161150950Y-71446820D01*
X161275889Y-71618786D01*
X161426212Y-71769109D01*
X161598178Y-71894048D01*
X161598180Y-71894049D01*
X161598183Y-71894051D01*
X161787587Y-71990557D01*
X161989756Y-72056246D01*
X162199712Y-72089500D01*
X162199713Y-72089500D01*
X162412285Y-72089500D01*
X162412286Y-72089500D01*
X162622242Y-72056246D01*
X162824411Y-71990557D01*
X163013815Y-71894051D01*
X163100137Y-71831335D01*
X163185785Y-71769109D01*
X163185787Y-71769106D01*
X163185791Y-71769104D01*
X163336103Y-71618792D01*
X163336105Y-71618788D01*
X163336108Y-71618786D01*
X163445656Y-71468004D01*
X163461050Y-71446816D01*
X163465792Y-71437508D01*
X163513762Y-71386711D01*
X163581582Y-71369911D01*
X163647718Y-71392445D01*
X163686762Y-71437500D01*
X163691376Y-71446555D01*
X163816271Y-71618459D01*
X163816275Y-71618464D01*
X163966534Y-71768723D01*
X163966539Y-71768727D01*
X164138441Y-71893620D01*
X164327781Y-71990095D01*
X164529870Y-72055757D01*
X164595999Y-72066231D01*
X164595999Y-71172012D01*
X164653006Y-71204925D01*
X164780173Y-71239000D01*
X164911825Y-71239000D01*
X165038992Y-71204925D01*
X165095999Y-71172012D01*
X165095999Y-72066230D01*
X165162125Y-72055757D01*
X165162128Y-72055757D01*
X165364216Y-71990095D01*
X165553556Y-71893620D01*
X165725458Y-71768727D01*
X165725463Y-71768723D01*
X165875722Y-71618464D01*
X165875726Y-71618459D01*
X166000619Y-71446557D01*
X166097094Y-71257217D01*
X166162756Y-71055129D01*
X166162756Y-71055126D01*
X166173230Y-70989000D01*
X165279011Y-70989000D01*
X165311924Y-70931993D01*
X165345999Y-70804826D01*
X165345999Y-70673174D01*
X165311924Y-70546007D01*
X165279011Y-70489000D01*
X166173230Y-70489000D01*
X166162756Y-70422873D01*
X166162756Y-70422870D01*
X166097094Y-70220782D01*
X166000619Y-70031442D01*
X165875726Y-69859540D01*
X165875722Y-69859535D01*
X165725463Y-69709276D01*
X165725458Y-69709272D01*
X165553556Y-69584379D01*
X165364214Y-69487903D01*
X165162123Y-69422241D01*
X165095999Y-69411768D01*
X165095999Y-70305988D01*
X165038992Y-70273075D01*
X164911825Y-70239000D01*
X164780173Y-70239000D01*
X164653006Y-70273075D01*
X164595999Y-70305988D01*
X164595999Y-69411768D01*
X164595998Y-69411768D01*
X164529874Y-69422241D01*
X164327783Y-69487903D01*
X164138441Y-69584379D01*
X163966539Y-69709272D01*
X163966534Y-69709276D01*
X163816275Y-69859535D01*
X163816271Y-69859540D01*
X163691377Y-70031443D01*
X163686761Y-70040502D01*
X163638783Y-70091295D01*
X163570962Y-70108087D01*
X163504828Y-70085546D01*
X163465793Y-70040493D01*
X163461050Y-70031184D01*
X163461048Y-70031181D01*
X163461047Y-70031179D01*
X163336108Y-69859213D01*
X163185785Y-69708890D01*
X163013819Y-69583951D01*
X162824413Y-69487444D01*
X162824412Y-69487443D01*
X162824411Y-69487443D01*
X162622242Y-69421754D01*
X162622240Y-69421753D01*
X162622239Y-69421753D01*
X162460956Y-69396208D01*
X162412286Y-69388500D01*
X162199712Y-69388500D01*
X162151041Y-69396208D01*
X161989759Y-69421753D01*
X161787584Y-69487444D01*
X161598178Y-69583951D01*
X161426212Y-69708890D01*
X161275889Y-69859213D01*
X161150948Y-70031182D01*
X161146483Y-70039946D01*
X161098508Y-70090742D01*
X161030687Y-70107536D01*
X160964552Y-70084998D01*
X160925515Y-70039946D01*
X160921049Y-70031182D01*
X160796108Y-69859213D01*
X160645785Y-69708890D01*
X160473819Y-69583951D01*
X160284413Y-69487444D01*
X160284412Y-69487443D01*
X160284411Y-69487443D01*
X160082242Y-69421754D01*
X160082240Y-69421753D01*
X160082239Y-69421753D01*
X159920956Y-69396208D01*
X159872286Y-69388500D01*
X159659712Y-69388500D01*
X159611041Y-69396208D01*
X159449759Y-69421753D01*
X159247584Y-69487444D01*
X159058178Y-69583951D01*
X158886214Y-69708889D01*
X158772672Y-69822431D01*
X158711349Y-69855915D01*
X158641657Y-69850931D01*
X158585724Y-69809059D01*
X158568809Y-69778082D01*
X158519796Y-69646671D01*
X158519792Y-69646664D01*
X158433546Y-69531455D01*
X158433543Y-69531452D01*
X158318334Y-69445206D01*
X158318327Y-69445202D01*
X158183481Y-69394908D01*
X158183482Y-69394908D01*
X158123882Y-69388501D01*
X158123880Y-69388500D01*
X158123872Y-69388500D01*
X158123863Y-69388500D01*
X156328128Y-69388500D01*
X156328122Y-69388501D01*
X156268515Y-69394908D01*
X156133670Y-69445202D01*
X156133663Y-69445206D01*
X156018454Y-69531452D01*
X156018451Y-69531455D01*
X155932205Y-69646664D01*
X155932201Y-69646671D01*
X155881907Y-69781517D01*
X155875500Y-69841116D01*
X155875499Y-69841135D01*
X153915030Y-69841135D01*
X153782791Y-69708896D01*
X153782785Y-69708890D01*
X153610819Y-69583951D01*
X153421413Y-69487444D01*
X153421412Y-69487443D01*
X153421411Y-69487443D01*
X153219242Y-69421754D01*
X153219240Y-69421753D01*
X153219239Y-69421753D01*
X153057956Y-69396208D01*
X153009286Y-69388500D01*
X152796712Y-69388500D01*
X152748041Y-69396208D01*
X152586759Y-69421753D01*
X152384584Y-69487444D01*
X152195178Y-69583951D01*
X152023214Y-69708889D01*
X151909672Y-69822431D01*
X151848349Y-69855915D01*
X151778657Y-69850931D01*
X151722724Y-69809059D01*
X151705809Y-69778082D01*
X151656796Y-69646671D01*
X151656792Y-69646664D01*
X151570546Y-69531455D01*
X151570543Y-69531452D01*
X151455334Y-69445206D01*
X151455327Y-69445202D01*
X151320481Y-69394908D01*
X151320482Y-69394908D01*
X151260882Y-69388501D01*
X151260880Y-69388500D01*
X151260872Y-69388500D01*
X151260863Y-69388500D01*
X149465128Y-69388500D01*
X149465122Y-69388501D01*
X149405515Y-69394908D01*
X149270670Y-69445202D01*
X149270663Y-69445206D01*
X149155454Y-69531452D01*
X149155451Y-69531455D01*
X149069205Y-69646664D01*
X149069201Y-69646671D01*
X149018907Y-69781517D01*
X149012500Y-69841116D01*
X149012499Y-69841135D01*
X149012499Y-71636870D01*
X149012500Y-71636876D01*
X149018907Y-71696483D01*
X149069201Y-71831328D01*
X149069205Y-71831335D01*
X149155451Y-71946544D01*
X149155454Y-71946547D01*
X149270663Y-72032793D01*
X149270670Y-72032797D01*
X149405516Y-72083091D01*
X149405515Y-72083091D01*
X149412443Y-72083835D01*
X149465126Y-72089500D01*
X151260871Y-72089499D01*
X151320482Y-72083091D01*
X151455330Y-72032796D01*
X151570545Y-71946546D01*
X151656795Y-71831331D01*
X151705809Y-71699916D01*
X151747680Y-71643984D01*
X151813144Y-71619566D01*
X151881417Y-71634417D01*
X151909672Y-71655569D01*
X152023212Y-71769109D01*
X152195178Y-71894048D01*
X152195180Y-71894049D01*
X152195183Y-71894051D01*
X152384587Y-71990557D01*
X152586756Y-72056246D01*
X152796712Y-72089500D01*
X152796713Y-72089500D01*
X153009285Y-72089500D01*
X153009286Y-72089500D01*
X153219242Y-72056246D01*
X153219242Y-72056245D01*
X153223882Y-72055511D01*
X153293175Y-72064466D01*
X153330961Y-72090303D01*
X154377780Y-73137121D01*
X154411265Y-73198444D01*
X154414099Y-73224802D01*
X154414099Y-80158514D01*
X154394414Y-80225553D01*
X154341610Y-80271308D01*
X154314291Y-80280131D01*
X154211924Y-80300493D01*
X154211918Y-80300495D01*
X154074613Y-80357368D01*
X154072580Y-80358456D01*
X154071084Y-80358830D01*
X154068981Y-80359702D01*
X154068851Y-80359389D01*
X154014122Y-80373100D01*
X153198876Y-80373100D01*
X153144146Y-80359389D01*
X153144017Y-80359702D01*
X153141913Y-80358830D01*
X153140418Y-80358456D01*
X153138384Y-80357368D01*
X153001079Y-80300495D01*
X153001071Y-80300493D01*
X152855315Y-80271500D01*
X152855311Y-80271500D01*
X152706687Y-80271500D01*
X152706682Y-80271500D01*
X152560926Y-80300493D01*
X152560918Y-80300495D01*
X152423607Y-80357371D01*
X152300034Y-80439939D01*
X152300027Y-80439945D01*
X152194944Y-80545028D01*
X152194938Y-80545035D01*
X152112370Y-80668608D01*
X152055494Y-80805919D01*
X152055492Y-80805927D01*
X152026499Y-80951683D01*
X152026499Y-81100316D01*
X152055492Y-81246072D01*
X152055494Y-81246080D01*
X152112370Y-81383391D01*
X152194938Y-81506964D01*
X152194944Y-81506971D01*
X152300027Y-81612054D01*
X152300034Y-81612060D01*
X152423607Y-81694628D01*
X152423608Y-81694628D01*
X152423609Y-81694629D01*
X152560919Y-81751505D01*
X152706682Y-81780499D01*
X152706686Y-81780500D01*
X152706687Y-81780500D01*
X152855312Y-81780500D01*
X152855313Y-81780499D01*
X153001079Y-81751505D01*
X153138389Y-81694629D01*
X153138394Y-81694625D01*
X153140418Y-81693544D01*
X153141913Y-81693169D01*
X153144017Y-81692298D01*
X153144146Y-81692610D01*
X153198876Y-81678900D01*
X154014122Y-81678900D01*
X154068851Y-81692610D01*
X154068981Y-81692298D01*
X154071084Y-81693169D01*
X154072580Y-81693544D01*
X154074613Y-81694631D01*
X154125332Y-81715639D01*
X154211919Y-81751505D01*
X154281763Y-81765397D01*
X154314290Y-81771868D01*
X154376201Y-81804252D01*
X154410775Y-81864968D01*
X154414099Y-81893485D01*
X154414099Y-91686105D01*
X154414099Y-91686107D01*
X154414098Y-91686107D01*
X154436234Y-91797387D01*
X154439189Y-91812240D01*
X154439191Y-91812248D01*
X154490222Y-91935448D01*
X154497691Y-92004917D01*
X154466416Y-92067396D01*
X154406327Y-92103048D01*
X154375661Y-92106900D01*
X149696327Y-92106900D01*
X149629288Y-92087215D01*
X149583533Y-92034411D01*
X149574710Y-92007094D01*
X149569504Y-91980920D01*
X149512628Y-91843610D01*
X149511030Y-91841219D01*
X149430059Y-91720035D01*
X149430053Y-91720028D01*
X149324970Y-91614945D01*
X149324963Y-91614939D01*
X149201390Y-91532371D01*
X149064079Y-91475495D01*
X149064071Y-91475493D01*
X148918315Y-91446500D01*
X148918311Y-91446500D01*
X148769687Y-91446500D01*
X148769682Y-91446500D01*
X148623926Y-91475493D01*
X148623918Y-91475495D01*
X148486607Y-91532371D01*
X148363034Y-91614939D01*
X148358318Y-91618810D01*
X148356925Y-91617113D01*
X148304269Y-91645866D01*
X148277911Y-91648700D01*
X145328402Y-91648700D01*
X145298961Y-91640055D01*
X145268975Y-91633532D01*
X145263959Y-91629777D01*
X145261363Y-91629015D01*
X145240721Y-91612381D01*
X145160711Y-91532371D01*
X145069199Y-91440859D01*
X145069196Y-91440857D01*
X144953298Y-91324959D01*
X144834218Y-91205878D01*
X144800733Y-91144555D01*
X144797899Y-91118197D01*
X144797899Y-87946692D01*
X144772809Y-87820561D01*
X144772808Y-87820560D01*
X144772808Y-87820556D01*
X144723591Y-87701736D01*
X144652140Y-87594801D01*
X144652138Y-87594798D01*
X143830863Y-86773523D01*
X143797378Y-86712200D01*
X143802362Y-86642508D01*
X143830866Y-86598158D01*
X143832924Y-86596100D01*
X143842058Y-86586966D01*
X143924628Y-86463390D01*
X143981504Y-86326080D01*
X144010499Y-86180312D01*
X144010499Y-86031688D01*
X143981504Y-85885920D01*
X143924628Y-85748610D01*
X143878995Y-85680315D01*
X143858119Y-85613638D01*
X143858099Y-85611426D01*
X143858099Y-84364876D01*
X143871810Y-84310148D01*
X143871497Y-84310018D01*
X143872374Y-84307900D01*
X143872747Y-84306412D01*
X143873822Y-84304397D01*
X143873828Y-84304390D01*
X143930704Y-84167080D01*
X143959699Y-84021312D01*
X143959699Y-83872688D01*
X143930704Y-83726920D01*
X143873828Y-83589610D01*
X143791258Y-83466034D01*
X143791253Y-83466028D01*
X143686170Y-83360945D01*
X143686163Y-83360939D01*
X143562590Y-83278371D01*
X143425279Y-83221495D01*
X143425271Y-83221493D01*
X143279515Y-83192500D01*
X143279511Y-83192500D01*
X143130887Y-83192500D01*
X143130882Y-83192500D01*
X142985126Y-83221493D01*
X142985118Y-83221495D01*
X142847807Y-83278371D01*
X142724234Y-83360939D01*
X142724227Y-83360945D01*
X142619144Y-83466028D01*
X142619138Y-83466035D01*
X142536570Y-83589608D01*
X142479694Y-83726919D01*
X142479692Y-83726927D01*
X142450699Y-83872683D01*
X142450699Y-84021316D01*
X142479692Y-84167072D01*
X142479694Y-84167080D01*
X142536569Y-84304388D01*
X142537651Y-84306412D01*
X142538023Y-84307900D01*
X142538901Y-84310018D01*
X142538587Y-84310148D01*
X142552299Y-84364876D01*
X142552299Y-85808612D01*
X142542861Y-85856063D01*
X142530494Y-85885920D01*
X142530492Y-85885927D01*
X142501499Y-86031683D01*
X142501499Y-86180316D01*
X142530492Y-86326072D01*
X142530494Y-86326080D01*
X142571322Y-86424647D01*
X142578791Y-86494117D01*
X142547516Y-86556596D01*
X142487427Y-86592248D01*
X142456761Y-86596100D01*
X140117876Y-86596100D01*
X140063146Y-86582389D01*
X140063017Y-86582702D01*
X140060913Y-86581830D01*
X140059418Y-86581456D01*
X140057384Y-86580368D01*
X139920079Y-86523495D01*
X139920071Y-86523493D01*
X139774315Y-86494500D01*
X139774311Y-86494500D01*
X139625687Y-86494500D01*
X139625682Y-86494500D01*
X139479926Y-86523493D01*
X139479918Y-86523495D01*
X139342607Y-86580371D01*
X139219034Y-86662939D01*
X139219027Y-86662945D01*
X139113944Y-86768028D01*
X139113938Y-86768035D01*
X139031370Y-86891608D01*
X138974494Y-87028919D01*
X138974492Y-87028927D01*
X138945499Y-87174683D01*
X138945499Y-87323316D01*
X138974492Y-87469072D01*
X138974494Y-87469080D01*
X139031370Y-87606391D01*
X139113938Y-87729964D01*
X139113944Y-87729971D01*
X139219027Y-87835054D01*
X139219034Y-87835060D01*
X139342607Y-87917628D01*
X139342608Y-87917628D01*
X139342609Y-87917629D01*
X139479919Y-87974505D01*
X139599575Y-87998306D01*
X139625682Y-88003499D01*
X139625686Y-88003500D01*
X139625687Y-88003500D01*
X139774312Y-88003500D01*
X139774313Y-88003499D01*
X139920079Y-87974505D01*
X140057389Y-87917629D01*
X140057394Y-87917625D01*
X140059418Y-87916544D01*
X140060913Y-87916169D01*
X140063017Y-87915298D01*
X140063146Y-87915610D01*
X140117876Y-87901900D01*
X143061196Y-87901900D01*
X143128235Y-87921585D01*
X143148877Y-87938219D01*
X143455780Y-88245121D01*
X143489265Y-88306444D01*
X143492099Y-88332802D01*
X143492099Y-91504305D01*
X143492099Y-91504307D01*
X143492098Y-91504307D01*
X143513072Y-91609742D01*
X143514876Y-91618810D01*
X143517190Y-91630444D01*
X143554299Y-91720034D01*
X143566407Y-91749264D01*
X143633381Y-91849499D01*
X143637861Y-91856204D01*
X143637862Y-91856205D01*
X144141517Y-92359858D01*
X144145856Y-92364197D01*
X144145858Y-92364200D01*
X144206980Y-92425322D01*
X144240465Y-92486644D01*
X144240464Y-92486645D01*
X144240465Y-92486646D01*
X144240285Y-92489165D01*
X144235481Y-92556336D01*
X144206980Y-92600684D01*
X143020423Y-93787242D01*
X143020417Y-93787249D01*
X142964526Y-93870897D01*
X142964526Y-93870899D01*
X142959320Y-93878691D01*
X142948966Y-93894186D01*
X142899751Y-94013002D01*
X142899749Y-94013008D01*
X142874660Y-94139139D01*
X142874660Y-96887817D01*
X142860950Y-96942548D01*
X142861262Y-96942677D01*
X142860393Y-96944773D01*
X142860019Y-96946269D01*
X142858930Y-96948304D01*
X142802055Y-97085613D01*
X142802053Y-97085621D01*
X142773060Y-97231377D01*
X142773060Y-97380009D01*
X142796313Y-97496909D01*
X142790086Y-97566500D01*
X142747223Y-97621678D01*
X142681333Y-97644922D01*
X142674696Y-97645100D01*
X141895876Y-97645100D01*
X141841146Y-97631389D01*
X141841017Y-97631702D01*
X141838913Y-97630830D01*
X141837418Y-97630456D01*
X141835384Y-97629368D01*
X141698079Y-97572495D01*
X141698071Y-97572493D01*
X141552315Y-97543500D01*
X141552311Y-97543500D01*
X141403687Y-97543500D01*
X141403682Y-97543500D01*
X141257926Y-97572493D01*
X141257918Y-97572495D01*
X141120607Y-97629371D01*
X140997034Y-97711939D01*
X140997027Y-97711945D01*
X140891944Y-97817028D01*
X140891938Y-97817035D01*
X140809370Y-97940608D01*
X140752494Y-98077919D01*
X140752492Y-98077927D01*
X140723499Y-98223683D01*
X140723499Y-98235778D01*
X140714555Y-98266234D01*
X140707255Y-98297135D01*
X140704781Y-98299521D01*
X140703814Y-98302817D01*
X140679831Y-98323598D01*
X140656977Y-98345652D01*
X140652596Y-98347197D01*
X140651010Y-98348572D01*
X140623695Y-98357394D01*
X140607586Y-98360599D01*
X140594555Y-98363191D01*
X140594554Y-98363191D01*
X140475736Y-98412407D01*
X140368794Y-98483862D01*
X139954861Y-98897795D01*
X139883406Y-99004737D01*
X139834190Y-99123555D01*
X139834188Y-99123561D01*
X139809099Y-99249692D01*
X139809099Y-103236100D01*
X139789414Y-103303139D01*
X139736610Y-103348894D01*
X139685099Y-103360100D01*
X135164876Y-103360100D01*
X135110146Y-103346389D01*
X135110017Y-103346702D01*
X135107913Y-103345830D01*
X135106418Y-103345456D01*
X135104384Y-103344368D01*
X134967079Y-103287495D01*
X134967071Y-103287493D01*
X134821315Y-103258500D01*
X134821311Y-103258500D01*
X134672687Y-103258500D01*
X134672682Y-103258500D01*
X134526926Y-103287493D01*
X134526918Y-103287495D01*
X134389607Y-103344371D01*
X134266034Y-103426939D01*
X134266027Y-103426945D01*
X134160944Y-103532028D01*
X134160938Y-103532035D01*
X134078370Y-103655608D01*
X134021494Y-103792919D01*
X134021492Y-103792927D01*
X133992499Y-103938683D01*
X133992499Y-104087316D01*
X134021492Y-104233072D01*
X134021494Y-104233080D01*
X134078370Y-104370391D01*
X134160938Y-104493964D01*
X134160944Y-104493971D01*
X134266027Y-104599054D01*
X134266034Y-104599060D01*
X134389607Y-104681628D01*
X134389608Y-104681628D01*
X134389609Y-104681629D01*
X134526919Y-104738505D01*
X134671169Y-104767198D01*
X134672682Y-104767499D01*
X134672686Y-104767500D01*
X134672687Y-104767500D01*
X134821312Y-104767500D01*
X134821313Y-104767499D01*
X134967079Y-104738505D01*
X135104389Y-104681629D01*
X135104394Y-104681625D01*
X135106418Y-104680544D01*
X135107913Y-104680169D01*
X135110017Y-104679298D01*
X135110146Y-104679610D01*
X135164876Y-104665900D01*
X139685099Y-104665900D01*
X139752138Y-104685585D01*
X139797893Y-104738389D01*
X139809099Y-104789900D01*
X139809099Y-106182500D01*
X139789414Y-106249539D01*
X139736610Y-106295294D01*
X139685099Y-106306500D01*
X139549865Y-106306500D01*
X139355037Y-106345254D01*
X139355029Y-106345256D01*
X139171497Y-106421277D01*
X139171488Y-106421282D01*
X139006321Y-106531644D01*
X138976856Y-106561108D01*
X138936638Y-106587982D01*
X138931528Y-106590098D01*
X138931527Y-106590099D01*
X138797558Y-106679614D01*
X138797555Y-106679616D01*
X138751927Y-106725245D01*
X138636486Y-106840685D01*
X138575165Y-106874169D01*
X138548807Y-106877003D01*
X124313157Y-106877003D01*
X124283716Y-106868358D01*
X124253730Y-106861835D01*
X124248714Y-106858080D01*
X124246118Y-106857318D01*
X124225476Y-106840684D01*
X124197718Y-106812926D01*
X124164233Y-106751603D01*
X124161399Y-106725245D01*
X124161399Y-103958833D01*
X124161398Y-103958829D01*
X124145079Y-103876786D01*
X124129964Y-103800798D01*
X124074095Y-103665920D01*
X124068301Y-103651931D01*
X124028148Y-103591838D01*
X123978781Y-103517954D01*
X122822447Y-102361620D01*
X122822443Y-102361617D01*
X122688473Y-102272100D01*
X122688460Y-102272093D01*
X122539605Y-102210436D01*
X122539593Y-102210433D01*
X122381569Y-102179000D01*
X122381565Y-102179000D01*
X119696180Y-102179000D01*
X119629141Y-102159315D01*
X119595863Y-102127887D01*
X119593382Y-102124472D01*
X119588104Y-102117208D01*
X119437792Y-101966896D01*
X119437786Y-101966890D01*
X119265820Y-101841951D01*
X119265115Y-101841591D01*
X119257054Y-101837485D01*
X119206259Y-101789512D01*
X119189463Y-101721692D01*
X119211999Y-101655556D01*
X119257054Y-101616515D01*
X119265816Y-101612051D01*
X119287789Y-101596086D01*
X119437786Y-101487109D01*
X119437788Y-101487106D01*
X119437792Y-101487104D01*
X119588104Y-101336792D01*
X119588106Y-101336788D01*
X119588109Y-101336786D01*
X119713048Y-101164820D01*
X119713047Y-101164820D01*
X119713051Y-101164816D01*
X119809557Y-100975412D01*
X119875246Y-100773243D01*
X119908500Y-100563287D01*
X119908500Y-100350713D01*
X119875246Y-100140757D01*
X119809557Y-99938588D01*
X119713051Y-99749184D01*
X119713049Y-99749181D01*
X119713048Y-99749179D01*
X119588109Y-99577213D01*
X119437786Y-99426890D01*
X119265820Y-99301951D01*
X119265115Y-99301591D01*
X119257054Y-99297485D01*
X119206259Y-99249512D01*
X119189463Y-99181692D01*
X119211999Y-99115556D01*
X119257054Y-99076515D01*
X119265816Y-99072051D01*
X119341062Y-99017382D01*
X119437786Y-98947109D01*
X119437788Y-98947106D01*
X119437792Y-98947104D01*
X119588104Y-98796792D01*
X119595863Y-98786113D01*
X119651194Y-98743448D01*
X119696180Y-98735000D01*
X127708999Y-98735000D01*
X127776038Y-98754685D01*
X127821793Y-98807489D01*
X127832999Y-98859000D01*
X127832999Y-103204570D01*
X127864432Y-103362594D01*
X127864434Y-103362602D01*
X127892348Y-103429992D01*
X127892348Y-103429993D01*
X127926096Y-103511468D01*
X127926097Y-103511471D01*
X128015616Y-103645444D01*
X128015619Y-103645448D01*
X128390067Y-104019894D01*
X128423552Y-104081217D01*
X128424003Y-104083384D01*
X128443253Y-104180161D01*
X128443255Y-104180169D01*
X128519276Y-104363701D01*
X128519281Y-104363710D01*
X128629645Y-104528880D01*
X128629648Y-104528884D01*
X128770114Y-104669350D01*
X128770118Y-104669353D01*
X128935288Y-104779717D01*
X128935294Y-104779720D01*
X128935295Y-104779721D01*
X129118830Y-104855744D01*
X129313665Y-104894499D01*
X129313669Y-104894500D01*
X129313670Y-104894500D01*
X129512329Y-104894500D01*
X129512330Y-104894499D01*
X129707168Y-104855744D01*
X129890703Y-104779721D01*
X130055880Y-104669353D01*
X130196352Y-104528881D01*
X130306720Y-104363704D01*
X130382743Y-104180169D01*
X130421499Y-103985329D01*
X130421499Y-103786671D01*
X130382743Y-103591831D01*
X130306720Y-103408296D01*
X130306719Y-103408295D01*
X130306716Y-103408289D01*
X130196352Y-103243119D01*
X130196349Y-103243115D01*
X130055883Y-103102649D01*
X130055879Y-103102646D01*
X129890709Y-102992282D01*
X129890699Y-102992277D01*
X129757005Y-102936899D01*
X129739993Y-102923190D01*
X129720412Y-102913509D01*
X129713326Y-102901700D01*
X129702602Y-102893058D01*
X129695702Y-102872328D01*
X129684463Y-102853597D01*
X129684886Y-102839831D01*
X129680537Y-102826764D01*
X129685939Y-102805597D01*
X129686611Y-102783761D01*
X129694409Y-102772409D01*
X129697816Y-102759064D01*
X129713806Y-102744177D01*
X129726176Y-102726172D01*
X129745582Y-102714592D01*
X129748954Y-102711454D01*
X129756440Y-102708013D01*
X129759986Y-102706523D01*
X129760079Y-102706505D01*
X129897389Y-102649629D01*
X129900680Y-102647429D01*
X129909858Y-102643575D01*
X129926915Y-102641655D01*
X129957876Y-102633900D01*
X134583122Y-102633900D01*
X134637851Y-102647610D01*
X134637981Y-102647298D01*
X134640084Y-102648169D01*
X134641580Y-102648544D01*
X134643613Y-102649631D01*
X134689609Y-102668683D01*
X134780919Y-102706505D01*
X134926682Y-102735499D01*
X134926686Y-102735500D01*
X134926687Y-102735500D01*
X135075312Y-102735500D01*
X135075313Y-102735499D01*
X135221079Y-102706505D01*
X135358389Y-102649629D01*
X135481965Y-102567059D01*
X135587058Y-102461966D01*
X135669628Y-102338390D01*
X135726504Y-102201080D01*
X135755499Y-102055312D01*
X135755499Y-101906688D01*
X135726504Y-101760920D01*
X135669628Y-101623610D01*
X135587058Y-101500034D01*
X135587053Y-101500028D01*
X135481970Y-101394945D01*
X135481963Y-101394939D01*
X135358390Y-101312371D01*
X135221079Y-101255495D01*
X135221071Y-101255493D01*
X135075315Y-101226500D01*
X135075311Y-101226500D01*
X134926687Y-101226500D01*
X134926682Y-101226500D01*
X134780926Y-101255493D01*
X134780918Y-101255495D01*
X134643613Y-101312368D01*
X134641580Y-101313456D01*
X134640084Y-101313830D01*
X134637981Y-101314702D01*
X134637851Y-101314389D01*
X134583122Y-101328100D01*
X129957876Y-101328100D01*
X129903146Y-101314389D01*
X129903017Y-101314702D01*
X129900913Y-101313830D01*
X129899418Y-101313456D01*
X129897384Y-101312368D01*
X129760079Y-101255495D01*
X129760071Y-101255493D01*
X129614315Y-101226500D01*
X129614311Y-101226500D01*
X129592999Y-101226500D01*
X129525960Y-101206815D01*
X129480205Y-101154011D01*
X129468999Y-101102500D01*
X129468999Y-98859000D01*
X129488684Y-98791961D01*
X129541488Y-98746206D01*
X129592999Y-98735000D01*
X129620566Y-98735000D01*
X129620567Y-98734999D01*
X129778601Y-98703565D01*
X129853034Y-98672733D01*
X129927467Y-98641903D01*
X130061444Y-98552382D01*
X130696441Y-97917383D01*
X130696444Y-97917382D01*
X130810381Y-97803445D01*
X130823859Y-97783273D01*
X130850272Y-97743745D01*
X130850272Y-97743744D01*
X130899902Y-97669468D01*
X130961564Y-97520602D01*
X130966639Y-97495088D01*
X130969838Y-97479007D01*
X130977792Y-97439016D01*
X130987489Y-97390259D01*
X131006004Y-97345563D01*
X131068720Y-97251704D01*
X131144743Y-97068169D01*
X131183499Y-96873329D01*
X131183499Y-96674671D01*
X131144743Y-96479831D01*
X131068720Y-96296296D01*
X131068719Y-96296294D01*
X131013897Y-96214246D01*
X130993019Y-96147569D01*
X130992999Y-96145356D01*
X130992999Y-94608642D01*
X131012684Y-94541603D01*
X131013861Y-94539804D01*
X131068720Y-94457704D01*
X131144743Y-94274169D01*
X131183499Y-94079329D01*
X131183499Y-93880671D01*
X131144743Y-93685831D01*
X131068720Y-93502296D01*
X131068719Y-93502294D01*
X131013897Y-93420246D01*
X130993019Y-93353569D01*
X130992999Y-93351356D01*
X130992999Y-80400189D01*
X131012684Y-80333150D01*
X131029318Y-80312508D01*
X131507507Y-79834319D01*
X131568830Y-79800834D01*
X131595188Y-79798000D01*
X133203856Y-79798000D01*
X133270895Y-79817685D01*
X133272743Y-79818895D01*
X133354795Y-79873721D01*
X133354796Y-79873721D01*
X133354797Y-79873722D01*
X133371593Y-79880679D01*
X133538330Y-79949744D01*
X133733165Y-79988499D01*
X133733169Y-79988500D01*
X133733170Y-79988500D01*
X133931829Y-79988500D01*
X133931830Y-79988499D01*
X134126668Y-79949744D01*
X134310203Y-79873721D01*
X134475380Y-79763353D01*
X134569515Y-79669217D01*
X134630836Y-79635734D01*
X134657195Y-79632900D01*
X135935196Y-79632900D01*
X136002235Y-79652585D01*
X136022877Y-79669219D01*
X136216780Y-79863121D01*
X136250265Y-79924444D01*
X136253099Y-79950802D01*
X136253099Y-83783123D01*
X136239389Y-83837854D01*
X136239701Y-83837983D01*
X136238832Y-83840079D01*
X136238458Y-83841575D01*
X136237369Y-83843610D01*
X136180494Y-83980919D01*
X136180492Y-83980927D01*
X136151499Y-84126683D01*
X136151499Y-84275316D01*
X136180492Y-84421072D01*
X136180494Y-84421080D01*
X136237370Y-84558391D01*
X136319938Y-84681964D01*
X136319944Y-84681971D01*
X136425027Y-84787054D01*
X136425034Y-84787060D01*
X136548607Y-84869628D01*
X136548608Y-84869628D01*
X136548609Y-84869629D01*
X136685919Y-84926505D01*
X136831682Y-84955499D01*
X136831686Y-84955500D01*
X136831687Y-84955500D01*
X136980312Y-84955500D01*
X136980313Y-84955499D01*
X137126079Y-84926505D01*
X137263389Y-84869629D01*
X137386965Y-84787059D01*
X137492058Y-84681966D01*
X137574628Y-84558390D01*
X137631504Y-84421080D01*
X137660499Y-84275312D01*
X137660499Y-84126688D01*
X137631504Y-83980920D01*
X137574628Y-83843610D01*
X137573540Y-83841575D01*
X137573165Y-83840079D01*
X137572297Y-83837983D01*
X137572608Y-83837854D01*
X137558899Y-83783123D01*
X137558899Y-79564692D01*
X137533809Y-79438561D01*
X137533808Y-79438560D01*
X137533808Y-79438556D01*
X137491904Y-79337390D01*
X137484592Y-79319737D01*
X137413140Y-79212801D01*
X137413138Y-79212798D01*
X137413137Y-79212797D01*
X136673204Y-78472863D01*
X136673203Y-78472862D01*
X136673199Y-78472859D01*
X136566263Y-78401408D01*
X136545066Y-78392628D01*
X136483395Y-78367083D01*
X136447443Y-78352191D01*
X136447441Y-78352190D01*
X136447434Y-78352188D01*
X136443968Y-78351499D01*
X136443966Y-78351499D01*
X136321306Y-78327100D01*
X136321304Y-78327100D01*
X134657195Y-78327100D01*
X134590156Y-78307415D01*
X134569518Y-78290785D01*
X134475380Y-78196647D01*
X134475379Y-78196646D01*
X134475378Y-78196645D01*
X134310209Y-78086282D01*
X134310200Y-78086277D01*
X134126668Y-78010256D01*
X134126660Y-78010254D01*
X133931832Y-77971500D01*
X133931828Y-77971500D01*
X133733170Y-77971500D01*
X133733165Y-77971500D01*
X133538337Y-78010254D01*
X133538329Y-78010256D01*
X133354797Y-78086277D01*
X133272747Y-78141102D01*
X133206069Y-78161980D01*
X133203856Y-78162000D01*
X131124428Y-78162000D01*
X130966404Y-78193433D01*
X130966392Y-78193436D01*
X130817537Y-78255093D01*
X130817524Y-78255100D01*
X130683554Y-78344617D01*
X130683550Y-78344620D01*
X129539619Y-79488551D01*
X129539616Y-79488555D01*
X129450099Y-79622525D01*
X129450092Y-79622538D01*
X129388435Y-79771393D01*
X129388432Y-79771405D01*
X129356999Y-79929429D01*
X129356999Y-93351356D01*
X129337314Y-93418395D01*
X129336101Y-93420246D01*
X129281278Y-93502294D01*
X129205255Y-93685830D01*
X129205253Y-93685838D01*
X129166499Y-93880666D01*
X129166499Y-94079333D01*
X129205253Y-94274161D01*
X129205255Y-94274169D01*
X129281276Y-94457701D01*
X129281277Y-94457703D01*
X129281278Y-94457704D01*
X129336101Y-94539753D01*
X129356979Y-94606428D01*
X129356999Y-94608642D01*
X129356999Y-96145356D01*
X129337314Y-96212395D01*
X129336101Y-96214246D01*
X129281278Y-96296294D01*
X129205255Y-96479830D01*
X129205253Y-96479838D01*
X129166499Y-96674666D01*
X129166499Y-96873333D01*
X129181910Y-96950809D01*
X129175683Y-97020401D01*
X129132820Y-97075578D01*
X129066930Y-97098822D01*
X129060293Y-97099000D01*
X119696180Y-97099000D01*
X119629141Y-97079315D01*
X119595863Y-97047887D01*
X119593382Y-97044472D01*
X119588104Y-97037208D01*
X119437792Y-96886896D01*
X119437786Y-96886890D01*
X119265820Y-96761951D01*
X119265115Y-96761591D01*
X119257054Y-96757485D01*
X119206259Y-96709512D01*
X119189463Y-96641692D01*
X119211999Y-96575556D01*
X119257054Y-96536515D01*
X119265816Y-96532051D01*
X119349897Y-96470963D01*
X119437786Y-96407109D01*
X119437788Y-96407106D01*
X119437792Y-96407104D01*
X119588104Y-96256792D01*
X119588106Y-96256788D01*
X119588109Y-96256786D01*
X119713048Y-96084820D01*
X119713047Y-96084820D01*
X119713051Y-96084816D01*
X119809557Y-95895412D01*
X119875246Y-95693243D01*
X119908500Y-95483287D01*
X119908500Y-95270713D01*
X119875246Y-95060757D01*
X119809557Y-94858588D01*
X119713051Y-94669184D01*
X119713049Y-94669181D01*
X119713048Y-94669179D01*
X119588109Y-94497213D01*
X119437786Y-94346890D01*
X119265820Y-94221951D01*
X119265115Y-94221591D01*
X119257054Y-94217485D01*
X119206259Y-94169512D01*
X119189463Y-94101692D01*
X119211999Y-94035556D01*
X119257054Y-93996515D01*
X119265816Y-93992051D01*
X119294025Y-93971556D01*
X119437786Y-93867109D01*
X119437788Y-93867106D01*
X119437792Y-93867104D01*
X119588104Y-93716792D01*
X119588106Y-93716788D01*
X119588109Y-93716786D01*
X119713048Y-93544820D01*
X119713047Y-93544820D01*
X119713051Y-93544816D01*
X119809557Y-93355412D01*
X119875246Y-93153243D01*
X119908500Y-92943287D01*
X119908500Y-92730713D01*
X119875246Y-92520757D01*
X119809557Y-92318588D01*
X119713051Y-92129184D01*
X119713049Y-92129181D01*
X119713048Y-92129179D01*
X119588109Y-91957213D01*
X119437786Y-91806890D01*
X119265820Y-91681951D01*
X119076414Y-91585444D01*
X119076413Y-91585443D01*
X119076412Y-91585443D01*
X118874243Y-91519754D01*
X118874241Y-91519753D01*
X118874240Y-91519753D01*
X118712957Y-91494208D01*
X118664287Y-91486500D01*
X118451713Y-91486500D01*
X118403042Y-91494208D01*
X118241760Y-91519753D01*
X118039585Y-91585444D01*
X117850179Y-91681951D01*
X117678213Y-91806890D01*
X117527890Y-91957213D01*
X117402951Y-92129179D01*
X117306444Y-92318585D01*
X117240753Y-92520760D01*
X117207500Y-92730713D01*
X108331499Y-92730713D01*
X108331499Y-91416739D01*
X108331499Y-90010502D01*
X108351184Y-89943465D01*
X108403988Y-89897710D01*
X108473146Y-89887766D01*
X108536702Y-89916791D01*
X108565984Y-89954209D01*
X108629896Y-90079642D01*
X108773339Y-90277076D01*
X108773343Y-90277081D01*
X108945918Y-90449656D01*
X108945923Y-90449660D01*
X109118136Y-90574779D01*
X109143361Y-90593106D01*
X109360815Y-90703904D01*
X109592924Y-90779321D01*
X109833973Y-90817500D01*
X109833974Y-90817500D01*
X110078026Y-90817500D01*
X110078027Y-90817500D01*
X110319076Y-90779321D01*
X110551185Y-90703904D01*
X110768639Y-90593106D01*
X110966083Y-90449655D01*
X111138655Y-90277083D01*
X111282106Y-90079639D01*
X111392904Y-89862185D01*
X111468321Y-89630076D01*
X111506500Y-89389027D01*
X111506500Y-89144973D01*
X111468321Y-88903924D01*
X111392904Y-88671815D01*
X111282106Y-88454361D01*
X111282105Y-88454359D01*
X111254884Y-88416893D01*
X118105500Y-88416893D01*
X118105500Y-90117091D01*
X118105501Y-90117108D01*
X118115999Y-90219876D01*
X118116000Y-90219879D01*
X118171176Y-90386388D01*
X118171181Y-90386399D01*
X118263265Y-90535689D01*
X118263268Y-90535693D01*
X118387306Y-90659731D01*
X118387310Y-90659734D01*
X118536600Y-90751818D01*
X118536603Y-90751819D01*
X118536609Y-90751823D01*
X118703123Y-90807000D01*
X118805901Y-90817500D01*
X120506098Y-90817499D01*
X120608877Y-90807000D01*
X120775391Y-90751823D01*
X120924693Y-90659732D01*
X121048732Y-90535693D01*
X121140823Y-90386391D01*
X121196000Y-90219877D01*
X121206500Y-90117099D01*
X121206499Y-88416902D01*
X121196000Y-88314123D01*
X121140823Y-88147609D01*
X121140819Y-88147603D01*
X121140818Y-88147600D01*
X121048734Y-87998310D01*
X121048731Y-87998306D01*
X120924693Y-87874268D01*
X120924689Y-87874265D01*
X120775399Y-87782181D01*
X120775393Y-87782178D01*
X120775391Y-87782177D01*
X120775388Y-87782176D01*
X120608878Y-87727000D01*
X120506100Y-87716500D01*
X118805908Y-87716500D01*
X118805891Y-87716501D01*
X118703123Y-87726999D01*
X118703120Y-87727000D01*
X118536611Y-87782176D01*
X118536600Y-87782181D01*
X118387310Y-87874265D01*
X118387306Y-87874268D01*
X118263268Y-87998306D01*
X118263265Y-87998310D01*
X118171181Y-88147600D01*
X118171176Y-88147611D01*
X118116000Y-88314121D01*
X118105500Y-88416893D01*
X111254884Y-88416893D01*
X111138660Y-88256923D01*
X111138656Y-88256918D01*
X110966081Y-88084343D01*
X110966076Y-88084339D01*
X110768642Y-87940896D01*
X110768641Y-87940895D01*
X110768639Y-87940894D01*
X110551185Y-87830096D01*
X110319076Y-87754679D01*
X110319074Y-87754678D01*
X110319072Y-87754678D01*
X110144314Y-87726999D01*
X110078027Y-87716500D01*
X109833973Y-87716500D01*
X109778093Y-87725350D01*
X109592927Y-87754678D01*
X109360812Y-87830097D01*
X109143357Y-87940896D01*
X108945923Y-88084339D01*
X108945918Y-88084343D01*
X108773343Y-88256918D01*
X108773339Y-88256923D01*
X108629896Y-88454357D01*
X108565984Y-88579790D01*
X108518009Y-88630586D01*
X108450188Y-88647381D01*
X108384053Y-88624843D01*
X108340602Y-88570128D01*
X108331499Y-88523497D01*
X108331499Y-85974501D01*
X108351184Y-85907465D01*
X108403988Y-85861710D01*
X108473146Y-85851766D01*
X108536702Y-85880791D01*
X108565984Y-85918209D01*
X108623804Y-86031687D01*
X108629896Y-86043642D01*
X108773339Y-86241076D01*
X108773343Y-86241081D01*
X108945918Y-86413656D01*
X108945923Y-86413660D01*
X109097099Y-86523495D01*
X109143361Y-86557106D01*
X109360815Y-86667904D01*
X109592924Y-86743321D01*
X109833973Y-86781500D01*
X109833974Y-86781500D01*
X110078026Y-86781500D01*
X110078027Y-86781500D01*
X110319076Y-86743321D01*
X110551185Y-86667904D01*
X110768639Y-86557106D01*
X110966083Y-86413655D01*
X111138655Y-86241083D01*
X111282106Y-86043639D01*
X111392904Y-85826185D01*
X111468321Y-85594076D01*
X111506500Y-85353027D01*
X111506500Y-85108973D01*
X118105500Y-85108973D01*
X118105500Y-85353026D01*
X118131937Y-85519945D01*
X118143679Y-85594076D01*
X118219096Y-85826185D01*
X118323804Y-86031687D01*
X118329896Y-86043642D01*
X118473339Y-86241076D01*
X118473343Y-86241081D01*
X118645918Y-86413656D01*
X118645923Y-86413660D01*
X118797099Y-86523495D01*
X118843361Y-86557106D01*
X119060815Y-86667904D01*
X119292924Y-86743321D01*
X119533973Y-86781500D01*
X119533974Y-86781500D01*
X119778026Y-86781500D01*
X119778027Y-86781500D01*
X120019076Y-86743321D01*
X120251185Y-86667904D01*
X120468639Y-86557106D01*
X120666083Y-86413655D01*
X120838655Y-86241083D01*
X120982106Y-86043639D01*
X121092904Y-85826185D01*
X121168321Y-85594076D01*
X121206500Y-85353027D01*
X121206500Y-85108973D01*
X121168321Y-84867924D01*
X121092904Y-84635815D01*
X120982106Y-84418361D01*
X120903485Y-84310148D01*
X120838660Y-84220923D01*
X120838656Y-84220918D01*
X120666081Y-84048343D01*
X120666076Y-84048339D01*
X120468642Y-83904896D01*
X120468641Y-83904895D01*
X120468639Y-83904894D01*
X120251185Y-83794096D01*
X120019076Y-83718679D01*
X120019074Y-83718678D01*
X120019072Y-83718678D01*
X119850769Y-83692021D01*
X119778027Y-83680500D01*
X119533973Y-83680500D01*
X119478093Y-83689350D01*
X119292927Y-83718678D01*
X119060812Y-83794097D01*
X118843357Y-83904896D01*
X118645923Y-84048339D01*
X118645918Y-84048343D01*
X118473343Y-84220918D01*
X118473339Y-84220923D01*
X118329896Y-84418357D01*
X118219097Y-84635812D01*
X118143678Y-84867927D01*
X118105500Y-85108973D01*
X111506500Y-85108973D01*
X111468321Y-84867924D01*
X111392904Y-84635815D01*
X111282106Y-84418361D01*
X111203485Y-84310148D01*
X111138660Y-84220923D01*
X111138656Y-84220918D01*
X110966081Y-84048343D01*
X110966076Y-84048339D01*
X110768642Y-83904896D01*
X110768641Y-83904895D01*
X110768639Y-83904894D01*
X110551185Y-83794096D01*
X110319076Y-83718679D01*
X110319074Y-83718678D01*
X110319072Y-83718678D01*
X110150769Y-83692021D01*
X110078027Y-83680500D01*
X109833973Y-83680500D01*
X109778093Y-83689350D01*
X109592927Y-83718678D01*
X109360812Y-83794097D01*
X109143357Y-83904896D01*
X108945923Y-84048339D01*
X108945918Y-84048343D01*
X108773343Y-84220918D01*
X108773339Y-84220923D01*
X108629896Y-84418357D01*
X108565984Y-84543790D01*
X108518009Y-84594586D01*
X108450188Y-84611381D01*
X108384053Y-84588843D01*
X108340602Y-84534128D01*
X108331499Y-84487498D01*
X108331499Y-82136501D01*
X108351184Y-82069465D01*
X108403988Y-82023710D01*
X108473146Y-82013766D01*
X108536702Y-82042791D01*
X108565984Y-82080209D01*
X108629896Y-82205642D01*
X108773339Y-82403076D01*
X108773343Y-82403081D01*
X108945918Y-82575656D01*
X108945923Y-82575660D01*
X109118136Y-82700779D01*
X109143361Y-82719106D01*
X109360815Y-82829904D01*
X109592924Y-82905321D01*
X109833973Y-82943500D01*
X109833974Y-82943500D01*
X110078026Y-82943500D01*
X110078027Y-82943500D01*
X110319076Y-82905321D01*
X110551185Y-82829904D01*
X110768639Y-82719106D01*
X110966083Y-82575655D01*
X111138655Y-82403083D01*
X111282106Y-82205639D01*
X111392904Y-81988185D01*
X111468321Y-81756076D01*
X111506500Y-81515027D01*
X111506500Y-81270973D01*
X111468321Y-81029924D01*
X111392904Y-80797815D01*
X111282106Y-80580361D01*
X111282105Y-80580359D01*
X111254884Y-80542893D01*
X118105500Y-80542893D01*
X118105500Y-82243091D01*
X118105501Y-82243108D01*
X118115999Y-82345876D01*
X118116000Y-82345879D01*
X118171176Y-82512388D01*
X118171181Y-82512399D01*
X118263265Y-82661689D01*
X118263268Y-82661693D01*
X118387306Y-82785731D01*
X118387310Y-82785734D01*
X118536600Y-82877818D01*
X118536603Y-82877819D01*
X118536609Y-82877823D01*
X118703123Y-82933000D01*
X118805901Y-82943500D01*
X120506098Y-82943499D01*
X120608877Y-82933000D01*
X120775391Y-82877823D01*
X120924693Y-82785732D01*
X121048732Y-82661693D01*
X121140823Y-82512391D01*
X121196000Y-82345877D01*
X121206500Y-82243099D01*
X121206499Y-80542902D01*
X121196000Y-80440123D01*
X121140823Y-80273609D01*
X121140819Y-80273603D01*
X121140818Y-80273600D01*
X121048734Y-80124310D01*
X121048731Y-80124306D01*
X120924693Y-80000268D01*
X120924689Y-80000265D01*
X120775399Y-79908181D01*
X120775393Y-79908178D01*
X120775391Y-79908177D01*
X120775388Y-79908176D01*
X120608878Y-79853000D01*
X120506100Y-79842500D01*
X118805908Y-79842500D01*
X118805891Y-79842501D01*
X118703123Y-79852999D01*
X118703120Y-79853000D01*
X118536611Y-79908176D01*
X118536600Y-79908181D01*
X118387310Y-80000265D01*
X118387306Y-80000268D01*
X118263268Y-80124306D01*
X118263265Y-80124310D01*
X118171181Y-80273600D01*
X118171176Y-80273611D01*
X118116000Y-80440121D01*
X118105500Y-80542893D01*
X111254884Y-80542893D01*
X111138660Y-80382923D01*
X111138656Y-80382918D01*
X110966081Y-80210343D01*
X110966076Y-80210339D01*
X110768642Y-80066896D01*
X110768641Y-80066895D01*
X110768639Y-80066894D01*
X110551185Y-79956096D01*
X110319076Y-79880679D01*
X110319074Y-79880678D01*
X110319072Y-79880678D01*
X110144314Y-79852999D01*
X110078027Y-79842500D01*
X109833973Y-79842500D01*
X109778093Y-79851350D01*
X109592927Y-79880678D01*
X109592924Y-79880679D01*
X109380368Y-79949743D01*
X109360812Y-79956097D01*
X109143357Y-80066896D01*
X108945923Y-80210339D01*
X108945918Y-80210343D01*
X108773343Y-80382918D01*
X108773339Y-80382923D01*
X108629896Y-80580357D01*
X108565984Y-80705790D01*
X108518009Y-80756586D01*
X108450188Y-80773381D01*
X108384053Y-80750843D01*
X108340602Y-80696128D01*
X108331499Y-80649499D01*
X108331499Y-78100501D01*
X108351184Y-78033465D01*
X108403988Y-77987710D01*
X108473146Y-77977766D01*
X108536702Y-78006791D01*
X108565984Y-78044209D01*
X108629896Y-78169642D01*
X108773339Y-78367076D01*
X108773343Y-78367081D01*
X108945918Y-78539656D01*
X108945923Y-78539660D01*
X109032416Y-78602500D01*
X109143361Y-78683106D01*
X109360815Y-78793904D01*
X109592924Y-78869321D01*
X109833973Y-78907500D01*
X109833974Y-78907500D01*
X110078026Y-78907500D01*
X110078027Y-78907500D01*
X110319076Y-78869321D01*
X110551185Y-78793904D01*
X110768639Y-78683106D01*
X110966083Y-78539655D01*
X111138655Y-78367083D01*
X111282106Y-78169639D01*
X111392904Y-77952185D01*
X111468321Y-77720076D01*
X111506500Y-77479027D01*
X111506500Y-77234973D01*
X118105500Y-77234973D01*
X118105500Y-77479026D01*
X118132529Y-77649683D01*
X118143679Y-77720076D01*
X118219096Y-77952185D01*
X118265984Y-78044209D01*
X118329896Y-78169642D01*
X118473339Y-78367076D01*
X118473343Y-78367081D01*
X118645918Y-78539656D01*
X118645923Y-78539660D01*
X118732416Y-78602500D01*
X118843361Y-78683106D01*
X119060815Y-78793904D01*
X119292924Y-78869321D01*
X119533973Y-78907500D01*
X119533974Y-78907500D01*
X119778026Y-78907500D01*
X119778027Y-78907500D01*
X120019076Y-78869321D01*
X120251185Y-78793904D01*
X120468639Y-78683106D01*
X120666083Y-78539655D01*
X120838655Y-78367083D01*
X120982106Y-78169639D01*
X121092904Y-77952185D01*
X121168321Y-77720076D01*
X121206500Y-77479027D01*
X121206500Y-77234973D01*
X121168321Y-76993924D01*
X121092904Y-76761815D01*
X120982106Y-76544361D01*
X120963779Y-76519136D01*
X120838660Y-76346923D01*
X120838656Y-76346918D01*
X120666081Y-76174343D01*
X120666076Y-76174339D01*
X120468642Y-76030896D01*
X120468641Y-76030895D01*
X120468639Y-76030894D01*
X120251185Y-75920096D01*
X120019076Y-75844679D01*
X120019074Y-75844678D01*
X120019072Y-75844678D01*
X119850769Y-75818021D01*
X119778027Y-75806500D01*
X119533973Y-75806500D01*
X119478093Y-75815350D01*
X119292927Y-75844678D01*
X119060812Y-75920097D01*
X118843357Y-76030896D01*
X118645923Y-76174339D01*
X118645918Y-76174343D01*
X118473343Y-76346918D01*
X118473339Y-76346923D01*
X118329896Y-76544357D01*
X118219097Y-76761812D01*
X118143678Y-76993927D01*
X118105500Y-77234973D01*
X111506500Y-77234973D01*
X111468321Y-76993924D01*
X111392904Y-76761815D01*
X111282106Y-76544361D01*
X111263779Y-76519136D01*
X111138660Y-76346923D01*
X111138656Y-76346918D01*
X110966081Y-76174343D01*
X110966076Y-76174339D01*
X110768642Y-76030896D01*
X110768641Y-76030895D01*
X110768639Y-76030894D01*
X110551185Y-75920096D01*
X110319076Y-75844679D01*
X110319074Y-75844678D01*
X110319072Y-75844678D01*
X110150769Y-75818021D01*
X110078027Y-75806500D01*
X109833973Y-75806500D01*
X109778093Y-75815350D01*
X109592927Y-75844678D01*
X109360812Y-75920097D01*
X109143357Y-76030896D01*
X108945923Y-76174339D01*
X108945918Y-76174343D01*
X108773343Y-76346918D01*
X108773339Y-76346923D01*
X108629896Y-76544357D01*
X108565984Y-76669790D01*
X108518009Y-76720586D01*
X108450188Y-76737381D01*
X108384053Y-76714843D01*
X108340602Y-76660128D01*
X108331499Y-76613499D01*
X108331499Y-72393009D01*
X108331646Y-72387007D01*
X108338136Y-72254904D01*
X109354499Y-72254904D01*
X109354499Y-72525093D01*
X109384748Y-72793557D01*
X109384750Y-72793569D01*
X109444871Y-73056978D01*
X109534105Y-73311995D01*
X109651330Y-73555415D01*
X109651332Y-73555418D01*
X109795076Y-73784186D01*
X109963531Y-73995421D01*
X110154577Y-74186467D01*
X110365812Y-74354922D01*
X110594580Y-74498666D01*
X110838004Y-74615893D01*
X111093019Y-74705126D01*
X111093021Y-74705126D01*
X111093022Y-74705127D01*
X111356428Y-74765248D01*
X111624904Y-74795498D01*
X111624905Y-74795499D01*
X111624909Y-74795499D01*
X111895093Y-74795499D01*
X111895093Y-74795498D01*
X112163570Y-74765248D01*
X112426976Y-74705127D01*
X112681994Y-74615893D01*
X112779050Y-74569153D01*
X139747499Y-74569153D01*
X139747499Y-74726846D01*
X139778260Y-74881489D01*
X139778263Y-74881501D01*
X139838601Y-75027172D01*
X139838608Y-75027185D01*
X139926209Y-75158288D01*
X139926212Y-75158292D01*
X140037706Y-75269786D01*
X140037710Y-75269789D01*
X140168813Y-75357390D01*
X140168826Y-75357397D01*
X140314497Y-75417735D01*
X140314502Y-75417737D01*
X140469152Y-75448499D01*
X140469155Y-75448500D01*
X140469157Y-75448500D01*
X140626843Y-75448500D01*
X140626844Y-75448499D01*
X140781496Y-75417737D01*
X140927178Y-75357394D01*
X141058288Y-75269789D01*
X141169788Y-75158289D01*
X141257393Y-75027179D01*
X141317736Y-74881497D01*
X141348499Y-74726842D01*
X141348499Y-74569158D01*
X141348499Y-74569155D01*
X141348498Y-74569153D01*
X144147499Y-74569153D01*
X144147499Y-74726846D01*
X144178260Y-74881489D01*
X144178263Y-74881501D01*
X144238601Y-75027172D01*
X144238608Y-75027185D01*
X144326209Y-75158288D01*
X144326212Y-75158292D01*
X144437706Y-75269786D01*
X144437710Y-75269789D01*
X144568813Y-75357390D01*
X144568826Y-75357397D01*
X144714497Y-75417735D01*
X144714502Y-75417737D01*
X144869152Y-75448499D01*
X144869155Y-75448500D01*
X144869157Y-75448500D01*
X145026843Y-75448500D01*
X145026844Y-75448499D01*
X145181496Y-75417737D01*
X145327178Y-75357394D01*
X145458288Y-75269789D01*
X145569788Y-75158289D01*
X145657393Y-75027179D01*
X145717736Y-74881497D01*
X145748499Y-74726842D01*
X145748499Y-74569158D01*
X145748499Y-74569155D01*
X145748498Y-74569153D01*
X145717737Y-74414510D01*
X145717736Y-74414503D01*
X145693057Y-74354922D01*
X145657396Y-74268827D01*
X145657389Y-74268814D01*
X145569788Y-74137711D01*
X145569785Y-74137707D01*
X145458291Y-74026213D01*
X145458287Y-74026210D01*
X145327184Y-73938609D01*
X145327171Y-73938602D01*
X145181500Y-73878264D01*
X145181488Y-73878261D01*
X145026844Y-73847500D01*
X145026841Y-73847500D01*
X144869157Y-73847500D01*
X144869154Y-73847500D01*
X144714509Y-73878261D01*
X144714497Y-73878264D01*
X144568826Y-73938602D01*
X144568813Y-73938609D01*
X144437710Y-74026210D01*
X144437706Y-74026213D01*
X144326212Y-74137707D01*
X144326209Y-74137711D01*
X144238608Y-74268814D01*
X144238601Y-74268827D01*
X144178263Y-74414498D01*
X144178260Y-74414510D01*
X144147499Y-74569153D01*
X141348498Y-74569153D01*
X141317737Y-74414510D01*
X141317736Y-74414503D01*
X141293057Y-74354922D01*
X141257396Y-74268827D01*
X141257389Y-74268814D01*
X141169788Y-74137711D01*
X141169785Y-74137707D01*
X141058291Y-74026213D01*
X141058287Y-74026210D01*
X140927184Y-73938609D01*
X140927171Y-73938602D01*
X140781500Y-73878264D01*
X140781488Y-73878261D01*
X140626844Y-73847500D01*
X140626841Y-73847500D01*
X140469157Y-73847500D01*
X140469154Y-73847500D01*
X140314509Y-73878261D01*
X140314497Y-73878264D01*
X140168826Y-73938602D01*
X140168813Y-73938609D01*
X140037710Y-74026210D01*
X140037706Y-74026213D01*
X139926212Y-74137707D01*
X139926209Y-74137711D01*
X139838608Y-74268814D01*
X139838601Y-74268827D01*
X139778263Y-74414498D01*
X139778260Y-74414510D01*
X139747499Y-74569153D01*
X112779050Y-74569153D01*
X112925418Y-74498666D01*
X113154186Y-74354922D01*
X113365421Y-74186467D01*
X113556467Y-73995421D01*
X113724922Y-73784186D01*
X113868666Y-73555418D01*
X113985893Y-73311994D01*
X114075127Y-73056976D01*
X114135248Y-72793570D01*
X114165499Y-72525089D01*
X114165499Y-72254909D01*
X114135248Y-71986428D01*
X114075127Y-71723022D01*
X114013685Y-71547429D01*
X139389999Y-71547429D01*
X139389999Y-71708570D01*
X139421432Y-71866594D01*
X139421434Y-71866602D01*
X139483095Y-72015466D01*
X139572618Y-72149447D01*
X139686551Y-72263380D01*
X139820532Y-72352903D01*
X139894964Y-72383733D01*
X139969397Y-72414565D01*
X140127428Y-72445999D01*
X140127432Y-72446000D01*
X140127433Y-72446000D01*
X145241566Y-72446000D01*
X145241567Y-72445999D01*
X145399601Y-72414565D01*
X145548467Y-72352902D01*
X145682444Y-72263382D01*
X145796381Y-72149445D01*
X145885901Y-72015468D01*
X145947564Y-71866602D01*
X145978999Y-71708566D01*
X145978999Y-71547434D01*
X145947564Y-71389398D01*
X145892893Y-71257412D01*
X145885902Y-71240533D01*
X145796379Y-71106552D01*
X145682446Y-70992619D01*
X145548465Y-70903096D01*
X145399601Y-70841435D01*
X145399593Y-70841433D01*
X145241569Y-70810000D01*
X145241565Y-70810000D01*
X140127433Y-70810000D01*
X140127428Y-70810000D01*
X139969404Y-70841433D01*
X139969396Y-70841435D01*
X139820532Y-70903096D01*
X139686551Y-70992619D01*
X139572618Y-71106552D01*
X139483095Y-71240533D01*
X139421434Y-71389397D01*
X139421432Y-71389405D01*
X139389999Y-71547429D01*
X114013685Y-71547429D01*
X113985893Y-71468004D01*
X113868666Y-71224580D01*
X113724922Y-70995812D01*
X113556467Y-70784577D01*
X113365421Y-70593531D01*
X113154186Y-70425076D01*
X112925418Y-70281332D01*
X112925415Y-70281330D01*
X112681995Y-70164105D01*
X112426977Y-70074871D01*
X112426979Y-70074871D01*
X112180880Y-70018701D01*
X112163570Y-70014750D01*
X112163566Y-70014749D01*
X112163557Y-70014748D01*
X111895093Y-69984499D01*
X111895089Y-69984499D01*
X111624909Y-69984499D01*
X111624905Y-69984499D01*
X111356440Y-70014748D01*
X111356428Y-70014750D01*
X111093019Y-70074871D01*
X110838002Y-70164105D01*
X110594582Y-70281330D01*
X110365813Y-70425075D01*
X110154577Y-70593530D01*
X109963530Y-70784577D01*
X109795075Y-70995813D01*
X109651330Y-71224582D01*
X109534105Y-71468002D01*
X109444871Y-71723019D01*
X109384750Y-71986428D01*
X109384748Y-71986440D01*
X109354499Y-72254904D01*
X108338136Y-72254904D01*
X108347710Y-72060027D01*
X108348903Y-72047920D01*
X108351146Y-72032797D01*
X108396486Y-71727144D01*
X108398854Y-71715237D01*
X108477653Y-71400654D01*
X108481176Y-71389039D01*
X108590434Y-71083682D01*
X108595073Y-71072485D01*
X108733740Y-70779297D01*
X108739456Y-70768605D01*
X108906185Y-70490433D01*
X108912915Y-70480360D01*
X109106126Y-70219847D01*
X109113808Y-70210487D01*
X109331609Y-69970179D01*
X109340179Y-69961609D01*
X109580487Y-69743808D01*
X109589847Y-69736126D01*
X109850360Y-69542915D01*
X109860433Y-69536185D01*
X110138605Y-69369456D01*
X110149297Y-69363740D01*
X110442485Y-69225073D01*
X110453682Y-69220434D01*
X110759039Y-69111176D01*
X110770654Y-69107653D01*
X111085237Y-69028854D01*
X111097144Y-69026486D01*
X111417923Y-68978902D01*
X111430027Y-68977710D01*
X111756967Y-68961648D01*
X111763050Y-68961500D01*
X111814851Y-68961500D01*
X111814851Y-68961499D01*
X111866213Y-68961499D01*
X170049947Y-68961499D01*
X170056030Y-68961647D01*
G37*
%TD.AperFunction*%
%TD*%
M02*
