M48
; DRILL file {KiCad 9.0.1} date 2025-05-27T12:36:54-0500
; FORMAT={-:-/ absolute / inch / decimal}
; #@! TF.CreationDate,2025-05-27T12:36:54-05:00
; #@! TF.GenerationSoftware,Kicad,Pcbnew,9.0.1
; #@! TF.FileFunction,Plated,1,2,PTH
FMAT,2
INCH
; #@! TA.AperFunction,Plated,PTH,ViaDrill
T1C0.0100
; #@! TA.AperFunction,Plated,PTH,ViaDrill
T2C0.0200
; #@! TA.AperFunction,Plated,PTH,ComponentDrill
T3C0.0380
; #@! TA.AperFunction,Plated,PTH,ComponentDrill
T4C0.0394
; #@! TA.AperFunction,Plated,PTH,ComponentDrill
T5C0.0433
; #@! TA.AperFunction,Plated,PTH,ComponentDrill
T6C0.0440
; #@! TA.AperFunction,Plated,PTH,ComponentDrill
T7C0.0590
%
G90
G05
T1
X5.1Y-4.015
X5.17Y-3.355
X5.2626Y-3.8574
X5.2627Y-3.7124
X5.29Y-3.985
X5.305Y-4.095
X5.315Y-4.015
X5.39Y-3.315
X5.4Y-3.57
X5.4Y-3.71
X5.415Y-4.165
X5.5Y-3.435
X5.52Y-2.82
X5.565Y-3.57
X5.565Y-3.71
X5.57Y-3.87
X5.57Y-3.8973
X5.638Y-3.305
X5.64Y-3.39
X5.65Y-3.955
X5.6507Y-3.8309
X5.676Y-3.825
X5.69Y-3.96
X5.705Y-3.27
X5.715Y-2.82
X5.7272Y-3.96
X5.7272Y-4.0878
X5.805Y-3.145
X5.845Y-4.245
X5.86Y-3.63
X5.8741Y-3.7281
X5.895Y-3.75
X5.905Y-4.255
X5.91Y-4.06
X6.015Y-3.19
X6.02Y-4.13
X6.025Y-4.245
X6.08Y-3.19
X6.11Y-3.79
X6.12Y-3.6222
X6.135Y-3.034
X6.135Y-3.06
X6.135Y-4.295
X6.19Y-2.89
X6.21Y-4.065
X6.235Y-3.39
X6.2373Y-3.8242
X6.24Y-3.525
X6.25Y-3.23
X6.252Y-3.6874
X6.2569Y-3.5447
X6.2594Y-4.17
X6.265Y-3.854
X6.265Y-3.88
X6.28Y-3.69
X6.29Y-3.72
X6.29Y-4.17
X6.3079Y-3.3841
X6.315Y-4.16
X6.315Y-3.505
X6.3572Y-3.39
X6.3675Y-3.5252
X6.395Y-3.8363
X6.415Y-3.525
X6.4162Y-3.495
X6.42Y-4.045
X6.4276Y-3.36
X6.4282Y-3.386
X6.446Y-4.045
X6.459Y-3.06
X6.485Y-3.06
X6.495Y-3.865
X6.54Y-3.825
X6.545Y-4.195
X6.56Y-3.5
X6.575Y-3.6
X6.5934Y-3.6184
X6.69Y-4.13
X6.79Y-3.02
X6.79Y-3.1
T2
X5.095Y-4.09
X5.125Y-3.7
X5.125Y-3.81
X5.269Y-3.1094
X5.498Y-4.225
X5.498Y-4.271
T3
X6.271Y-4.4345
X6.321Y-4.3345
X6.371Y-4.4345
X6.421Y-4.3345
T4
X4.6676Y-3.655
X4.6676Y-3.755
X4.6676Y-3.855
X4.6676Y-3.955
X4.6676Y-4.055
X4.6676Y-4.155
X5.9198Y-2.785
X6.0198Y-2.785
X6.19Y-2.785
X6.29Y-2.785
X6.39Y-2.785
X6.49Y-2.785
X6.76Y-3.4504
X6.76Y-3.5504
X6.76Y-3.6504
X6.76Y-3.7504
T5
X4.7109Y-3.0456
X4.7109Y-3.2044
X4.7109Y-3.3556
X4.7109Y-3.5144
T6
X4.695Y-4.36
X5.529Y-4.36
T7
X6.2Y-4.2765
X6.4917Y-4.2765
M30
