%TF.GenerationSoftware,KiCad,Pcbnew,9.0.1*%
%TF.CreationDate,2025-05-27T12:36:52-05:00*%
%TF.ProjectId,Motor_PCB,4d6f746f-725f-4504-9342-2e6b69636164,1.2*%
%TF.SameCoordinates,Original*%
%TF.FileFunction,Legend,Top*%
%TF.FilePolarity,Positive*%
%FSLAX46Y46*%
G04 Gerber Fmt 4.6, Leading zero omitted, Abs format (unit mm)*
G04 Created by KiCad (PCBNEW 9.0.1) date 2025-05-27 12:36:52*
%MOMM*%
%LPD*%
G01*
G04 APERTURE LIST*
%ADD10C,0.250000*%
%ADD11C,0.158750*%
%ADD12C,0.150000*%
%ADD13C,0.120000*%
%ADD14C,0.152400*%
%ADD15C,0.127000*%
%ADD16C,0.200000*%
%ADD17C,0.203200*%
G04 APERTURE END LIST*
D10*
X113911191Y-84666619D02*
X114244524Y-85666619D01*
X114244524Y-85666619D02*
X114577857Y-84666619D01*
X114911191Y-85666619D02*
X114911191Y-84999952D01*
X114911191Y-84666619D02*
X114863572Y-84714238D01*
X114863572Y-84714238D02*
X114911191Y-84761857D01*
X114911191Y-84761857D02*
X114958810Y-84714238D01*
X114958810Y-84714238D02*
X114911191Y-84666619D01*
X114911191Y-84666619D02*
X114911191Y-84761857D01*
X115387381Y-84999952D02*
X115387381Y-85666619D01*
X115387381Y-85095190D02*
X115435000Y-85047571D01*
X115435000Y-85047571D02*
X115530238Y-84999952D01*
X115530238Y-84999952D02*
X115673095Y-84999952D01*
X115673095Y-84999952D02*
X115768333Y-85047571D01*
X115768333Y-85047571D02*
X115815952Y-85142809D01*
X115815952Y-85142809D02*
X115815952Y-85666619D01*
X114173095Y-88778238D02*
X114077857Y-88730619D01*
X114077857Y-88730619D02*
X113935000Y-88730619D01*
X113935000Y-88730619D02*
X113792143Y-88778238D01*
X113792143Y-88778238D02*
X113696905Y-88873476D01*
X113696905Y-88873476D02*
X113649286Y-88968714D01*
X113649286Y-88968714D02*
X113601667Y-89159190D01*
X113601667Y-89159190D02*
X113601667Y-89302047D01*
X113601667Y-89302047D02*
X113649286Y-89492523D01*
X113649286Y-89492523D02*
X113696905Y-89587761D01*
X113696905Y-89587761D02*
X113792143Y-89683000D01*
X113792143Y-89683000D02*
X113935000Y-89730619D01*
X113935000Y-89730619D02*
X114030238Y-89730619D01*
X114030238Y-89730619D02*
X114173095Y-89683000D01*
X114173095Y-89683000D02*
X114220714Y-89635380D01*
X114220714Y-89635380D02*
X114220714Y-89302047D01*
X114220714Y-89302047D02*
X114030238Y-89302047D01*
X114649286Y-89730619D02*
X114649286Y-88730619D01*
X114649286Y-88730619D02*
X115220714Y-89730619D01*
X115220714Y-89730619D02*
X115220714Y-88730619D01*
X115696905Y-89730619D02*
X115696905Y-88730619D01*
X115696905Y-88730619D02*
X115935000Y-88730619D01*
X115935000Y-88730619D02*
X116077857Y-88778238D01*
X116077857Y-88778238D02*
X116173095Y-88873476D01*
X116173095Y-88873476D02*
X116220714Y-88968714D01*
X116220714Y-88968714D02*
X116268333Y-89159190D01*
X116268333Y-89159190D02*
X116268333Y-89302047D01*
X116268333Y-89302047D02*
X116220714Y-89492523D01*
X116220714Y-89492523D02*
X116173095Y-89587761D01*
X116173095Y-89587761D02*
X116077857Y-89683000D01*
X116077857Y-89683000D02*
X115935000Y-89730619D01*
X115935000Y-89730619D02*
X115696905Y-89730619D01*
X159549809Y-73474619D02*
X159549809Y-72474619D01*
X160597427Y-73379380D02*
X160549808Y-73427000D01*
X160549808Y-73427000D02*
X160406951Y-73474619D01*
X160406951Y-73474619D02*
X160311713Y-73474619D01*
X160311713Y-73474619D02*
X160168856Y-73427000D01*
X160168856Y-73427000D02*
X160073618Y-73331761D01*
X160073618Y-73331761D02*
X160025999Y-73236523D01*
X160025999Y-73236523D02*
X159978380Y-73046047D01*
X159978380Y-73046047D02*
X159978380Y-72903190D01*
X159978380Y-72903190D02*
X160025999Y-72712714D01*
X160025999Y-72712714D02*
X160073618Y-72617476D01*
X160073618Y-72617476D02*
X160168856Y-72522238D01*
X160168856Y-72522238D02*
X160311713Y-72474619D01*
X160311713Y-72474619D02*
X160406951Y-72474619D01*
X160406951Y-72474619D02*
X160549808Y-72522238D01*
X160549808Y-72522238D02*
X160597427Y-72569857D01*
X160978380Y-73427000D02*
X161121237Y-73474619D01*
X161121237Y-73474619D02*
X161359332Y-73474619D01*
X161359332Y-73474619D02*
X161454570Y-73427000D01*
X161454570Y-73427000D02*
X161502189Y-73379380D01*
X161502189Y-73379380D02*
X161549808Y-73284142D01*
X161549808Y-73284142D02*
X161549808Y-73188904D01*
X161549808Y-73188904D02*
X161502189Y-73093666D01*
X161502189Y-73093666D02*
X161454570Y-73046047D01*
X161454570Y-73046047D02*
X161359332Y-72998428D01*
X161359332Y-72998428D02*
X161168856Y-72950809D01*
X161168856Y-72950809D02*
X161073618Y-72903190D01*
X161073618Y-72903190D02*
X161025999Y-72855571D01*
X161025999Y-72855571D02*
X160978380Y-72760333D01*
X160978380Y-72760333D02*
X160978380Y-72665095D01*
X160978380Y-72665095D02*
X161025999Y-72569857D01*
X161025999Y-72569857D02*
X161073618Y-72522238D01*
X161073618Y-72522238D02*
X161168856Y-72474619D01*
X161168856Y-72474619D02*
X161406951Y-72474619D01*
X161406951Y-72474619D02*
X161549808Y-72522238D01*
X161978380Y-73474619D02*
X161978380Y-72474619D01*
X161978380Y-72474619D02*
X162359332Y-72474619D01*
X162359332Y-72474619D02*
X162454570Y-72522238D01*
X162454570Y-72522238D02*
X162502189Y-72569857D01*
X162502189Y-72569857D02*
X162549808Y-72665095D01*
X162549808Y-72665095D02*
X162549808Y-72807952D01*
X162549808Y-72807952D02*
X162502189Y-72903190D01*
X162502189Y-72903190D02*
X162454570Y-72950809D01*
X162454570Y-72950809D02*
X162359332Y-72998428D01*
X162359332Y-72998428D02*
X161978380Y-72998428D01*
X157524145Y-107205567D02*
X157667002Y-107253186D01*
X157667002Y-107253186D02*
X157905097Y-107253186D01*
X157905097Y-107253186D02*
X158000335Y-107205567D01*
X158000335Y-107205567D02*
X158047954Y-107157947D01*
X158047954Y-107157947D02*
X158095573Y-107062709D01*
X158095573Y-107062709D02*
X158095573Y-106967471D01*
X158095573Y-106967471D02*
X158047954Y-106872233D01*
X158047954Y-106872233D02*
X158000335Y-106824614D01*
X158000335Y-106824614D02*
X157905097Y-106776995D01*
X157905097Y-106776995D02*
X157714621Y-106729376D01*
X157714621Y-106729376D02*
X157619383Y-106681757D01*
X157619383Y-106681757D02*
X157571764Y-106634138D01*
X157571764Y-106634138D02*
X157524145Y-106538900D01*
X157524145Y-106538900D02*
X157524145Y-106443662D01*
X157524145Y-106443662D02*
X157571764Y-106348424D01*
X157571764Y-106348424D02*
X157619383Y-106300805D01*
X157619383Y-106300805D02*
X157714621Y-106253186D01*
X157714621Y-106253186D02*
X157952716Y-106253186D01*
X157952716Y-106253186D02*
X158095573Y-106300805D01*
X158524145Y-107253186D02*
X158524145Y-106253186D01*
X158524145Y-106253186D02*
X158857478Y-106967471D01*
X158857478Y-106967471D02*
X159190811Y-106253186D01*
X159190811Y-106253186D02*
X159190811Y-107253186D01*
X159667002Y-107253186D02*
X159667002Y-106253186D01*
X159667002Y-106253186D02*
X160047954Y-106253186D01*
X160047954Y-106253186D02*
X160143192Y-106300805D01*
X160143192Y-106300805D02*
X160190811Y-106348424D01*
X160190811Y-106348424D02*
X160238430Y-106443662D01*
X160238430Y-106443662D02*
X160238430Y-106586519D01*
X160238430Y-106586519D02*
X160190811Y-106681757D01*
X160190811Y-106681757D02*
X160143192Y-106729376D01*
X160143192Y-106729376D02*
X160047954Y-106776995D01*
X160047954Y-106776995D02*
X159667002Y-106776995D01*
X161143192Y-107253186D02*
X160667002Y-107253186D01*
X160667002Y-107253186D02*
X160667002Y-106253186D01*
X162809859Y-107253186D02*
X162476526Y-106776995D01*
X162238431Y-107253186D02*
X162238431Y-106253186D01*
X162238431Y-106253186D02*
X162619383Y-106253186D01*
X162619383Y-106253186D02*
X162714621Y-106300805D01*
X162714621Y-106300805D02*
X162762240Y-106348424D01*
X162762240Y-106348424D02*
X162809859Y-106443662D01*
X162809859Y-106443662D02*
X162809859Y-106586519D01*
X162809859Y-106586519D02*
X162762240Y-106681757D01*
X162762240Y-106681757D02*
X162714621Y-106729376D01*
X162714621Y-106729376D02*
X162619383Y-106776995D01*
X162619383Y-106776995D02*
X162238431Y-106776995D01*
X163762240Y-106300805D02*
X163667002Y-106253186D01*
X163667002Y-106253186D02*
X163524145Y-106253186D01*
X163524145Y-106253186D02*
X163381288Y-106300805D01*
X163381288Y-106300805D02*
X163286050Y-106396043D01*
X163286050Y-106396043D02*
X163238431Y-106491281D01*
X163238431Y-106491281D02*
X163190812Y-106681757D01*
X163190812Y-106681757D02*
X163190812Y-106824614D01*
X163190812Y-106824614D02*
X163238431Y-107015090D01*
X163238431Y-107015090D02*
X163286050Y-107110328D01*
X163286050Y-107110328D02*
X163381288Y-107205567D01*
X163381288Y-107205567D02*
X163524145Y-107253186D01*
X163524145Y-107253186D02*
X163619383Y-107253186D01*
X163619383Y-107253186D02*
X163762240Y-107205567D01*
X163762240Y-107205567D02*
X163809859Y-107157947D01*
X163809859Y-107157947D02*
X163809859Y-106824614D01*
X163809859Y-106824614D02*
X163619383Y-106824614D01*
X164571764Y-106729376D02*
X164714621Y-106776995D01*
X164714621Y-106776995D02*
X164762240Y-106824614D01*
X164762240Y-106824614D02*
X164809859Y-106919852D01*
X164809859Y-106919852D02*
X164809859Y-107062709D01*
X164809859Y-107062709D02*
X164762240Y-107157947D01*
X164762240Y-107157947D02*
X164714621Y-107205567D01*
X164714621Y-107205567D02*
X164619383Y-107253186D01*
X164619383Y-107253186D02*
X164238431Y-107253186D01*
X164238431Y-107253186D02*
X164238431Y-106253186D01*
X164238431Y-106253186D02*
X164571764Y-106253186D01*
X164571764Y-106253186D02*
X164667002Y-106300805D01*
X164667002Y-106300805D02*
X164714621Y-106348424D01*
X164714621Y-106348424D02*
X164762240Y-106443662D01*
X164762240Y-106443662D02*
X164762240Y-106538900D01*
X164762240Y-106538900D02*
X164714621Y-106634138D01*
X164714621Y-106634138D02*
X164667002Y-106681757D01*
X164667002Y-106681757D02*
X164571764Y-106729376D01*
X164571764Y-106729376D02*
X164238431Y-106729376D01*
X120396380Y-103446619D02*
X120396380Y-102446619D01*
X120396380Y-102446619D02*
X120729713Y-103160904D01*
X120729713Y-103160904D02*
X121063046Y-102446619D01*
X121063046Y-102446619D02*
X121063046Y-103446619D01*
X121682094Y-103446619D02*
X121586856Y-103399000D01*
X121586856Y-103399000D02*
X121539237Y-103351380D01*
X121539237Y-103351380D02*
X121491618Y-103256142D01*
X121491618Y-103256142D02*
X121491618Y-102970428D01*
X121491618Y-102970428D02*
X121539237Y-102875190D01*
X121539237Y-102875190D02*
X121586856Y-102827571D01*
X121586856Y-102827571D02*
X121682094Y-102779952D01*
X121682094Y-102779952D02*
X121824951Y-102779952D01*
X121824951Y-102779952D02*
X121920189Y-102827571D01*
X121920189Y-102827571D02*
X121967808Y-102875190D01*
X121967808Y-102875190D02*
X122015427Y-102970428D01*
X122015427Y-102970428D02*
X122015427Y-103256142D01*
X122015427Y-103256142D02*
X121967808Y-103351380D01*
X121967808Y-103351380D02*
X121920189Y-103399000D01*
X121920189Y-103399000D02*
X121824951Y-103446619D01*
X121824951Y-103446619D02*
X121682094Y-103446619D01*
X122301142Y-102779952D02*
X122682094Y-102779952D01*
X122443999Y-102446619D02*
X122443999Y-103303761D01*
X122443999Y-103303761D02*
X122491618Y-103399000D01*
X122491618Y-103399000D02*
X122586856Y-103446619D01*
X122586856Y-103446619D02*
X122682094Y-103446619D01*
X123158285Y-103446619D02*
X123063047Y-103399000D01*
X123063047Y-103399000D02*
X123015428Y-103351380D01*
X123015428Y-103351380D02*
X122967809Y-103256142D01*
X122967809Y-103256142D02*
X122967809Y-102970428D01*
X122967809Y-102970428D02*
X123015428Y-102875190D01*
X123015428Y-102875190D02*
X123063047Y-102827571D01*
X123063047Y-102827571D02*
X123158285Y-102779952D01*
X123158285Y-102779952D02*
X123301142Y-102779952D01*
X123301142Y-102779952D02*
X123396380Y-102827571D01*
X123396380Y-102827571D02*
X123443999Y-102875190D01*
X123443999Y-102875190D02*
X123491618Y-102970428D01*
X123491618Y-102970428D02*
X123491618Y-103256142D01*
X123491618Y-103256142D02*
X123443999Y-103351380D01*
X123443999Y-103351380D02*
X123396380Y-103399000D01*
X123396380Y-103399000D02*
X123301142Y-103446619D01*
X123301142Y-103446619D02*
X123158285Y-103446619D01*
X123920190Y-103446619D02*
X123920190Y-102779952D01*
X123920190Y-102970428D02*
X123967809Y-102875190D01*
X123967809Y-102875190D02*
X124015428Y-102827571D01*
X124015428Y-102827571D02*
X124110666Y-102779952D01*
X124110666Y-102779952D02*
X124205904Y-102779952D01*
X124491619Y-103160904D02*
X124967809Y-103160904D01*
X124396381Y-103446619D02*
X124729714Y-102446619D01*
X124729714Y-102446619D02*
X125063047Y-103446619D01*
X125586857Y-102446619D02*
X125682095Y-102446619D01*
X125682095Y-102446619D02*
X125777333Y-102494238D01*
X125777333Y-102494238D02*
X125824952Y-102541857D01*
X125824952Y-102541857D02*
X125872571Y-102637095D01*
X125872571Y-102637095D02*
X125920190Y-102827571D01*
X125920190Y-102827571D02*
X125920190Y-103065666D01*
X125920190Y-103065666D02*
X125872571Y-103256142D01*
X125872571Y-103256142D02*
X125824952Y-103351380D01*
X125824952Y-103351380D02*
X125777333Y-103399000D01*
X125777333Y-103399000D02*
X125682095Y-103446619D01*
X125682095Y-103446619D02*
X125586857Y-103446619D01*
X125586857Y-103446619D02*
X125491619Y-103399000D01*
X125491619Y-103399000D02*
X125444000Y-103351380D01*
X125444000Y-103351380D02*
X125396381Y-103256142D01*
X125396381Y-103256142D02*
X125348762Y-103065666D01*
X125348762Y-103065666D02*
X125348762Y-102827571D01*
X125348762Y-102827571D02*
X125396381Y-102637095D01*
X125396381Y-102637095D02*
X125444000Y-102541857D01*
X125444000Y-102541857D02*
X125491619Y-102494238D01*
X125491619Y-102494238D02*
X125586857Y-102446619D01*
X126301143Y-102541857D02*
X126348762Y-102494238D01*
X126348762Y-102494238D02*
X126444000Y-102446619D01*
X126444000Y-102446619D02*
X126682095Y-102446619D01*
X126682095Y-102446619D02*
X126777333Y-102494238D01*
X126777333Y-102494238D02*
X126824952Y-102541857D01*
X126824952Y-102541857D02*
X126872571Y-102637095D01*
X126872571Y-102637095D02*
X126872571Y-102732333D01*
X126872571Y-102732333D02*
X126824952Y-102875190D01*
X126824952Y-102875190D02*
X126253524Y-103446619D01*
X126253524Y-103446619D02*
X126872571Y-103446619D01*
X120396380Y-97588809D02*
X120729713Y-97588809D01*
X120872570Y-98112619D02*
X120396380Y-98112619D01*
X120396380Y-98112619D02*
X120396380Y-97112619D01*
X120396380Y-97112619D02*
X120872570Y-97112619D01*
X121301142Y-98112619D02*
X121301142Y-97112619D01*
X121301142Y-97112619D02*
X121872570Y-98112619D01*
X121872570Y-98112619D02*
X121872570Y-97112619D01*
X122920189Y-98017380D02*
X122872570Y-98065000D01*
X122872570Y-98065000D02*
X122729713Y-98112619D01*
X122729713Y-98112619D02*
X122634475Y-98112619D01*
X122634475Y-98112619D02*
X122491618Y-98065000D01*
X122491618Y-98065000D02*
X122396380Y-97969761D01*
X122396380Y-97969761D02*
X122348761Y-97874523D01*
X122348761Y-97874523D02*
X122301142Y-97684047D01*
X122301142Y-97684047D02*
X122301142Y-97541190D01*
X122301142Y-97541190D02*
X122348761Y-97350714D01*
X122348761Y-97350714D02*
X122396380Y-97255476D01*
X122396380Y-97255476D02*
X122491618Y-97160238D01*
X122491618Y-97160238D02*
X122634475Y-97112619D01*
X122634475Y-97112619D02*
X122729713Y-97112619D01*
X122729713Y-97112619D02*
X122872570Y-97160238D01*
X122872570Y-97160238D02*
X122920189Y-97207857D01*
X123967809Y-97112619D02*
X124301142Y-98112619D01*
X124301142Y-98112619D02*
X124634475Y-97112619D01*
X124967809Y-98112619D02*
X124967809Y-97112619D01*
X124967809Y-97112619D02*
X125205904Y-97112619D01*
X125205904Y-97112619D02*
X125348761Y-97160238D01*
X125348761Y-97160238D02*
X125443999Y-97255476D01*
X125443999Y-97255476D02*
X125491618Y-97350714D01*
X125491618Y-97350714D02*
X125539237Y-97541190D01*
X125539237Y-97541190D02*
X125539237Y-97684047D01*
X125539237Y-97684047D02*
X125491618Y-97874523D01*
X125491618Y-97874523D02*
X125443999Y-97969761D01*
X125443999Y-97969761D02*
X125348761Y-98065000D01*
X125348761Y-98065000D02*
X125205904Y-98112619D01*
X125205904Y-98112619D02*
X124967809Y-98112619D01*
X125967809Y-98112619D02*
X125967809Y-97112619D01*
X125967809Y-97112619D02*
X126205904Y-97112619D01*
X126205904Y-97112619D02*
X126348761Y-97160238D01*
X126348761Y-97160238D02*
X126443999Y-97255476D01*
X126443999Y-97255476D02*
X126491618Y-97350714D01*
X126491618Y-97350714D02*
X126539237Y-97541190D01*
X126539237Y-97541190D02*
X126539237Y-97684047D01*
X126539237Y-97684047D02*
X126491618Y-97874523D01*
X126491618Y-97874523D02*
X126443999Y-97969761D01*
X126443999Y-97969761D02*
X126348761Y-98065000D01*
X126348761Y-98065000D02*
X126205904Y-98112619D01*
X126205904Y-98112619D02*
X125967809Y-98112619D01*
X114077857Y-77872000D02*
X114220714Y-77919619D01*
X114220714Y-77919619D02*
X114458809Y-77919619D01*
X114458809Y-77919619D02*
X114554047Y-77872000D01*
X114554047Y-77872000D02*
X114601666Y-77824380D01*
X114601666Y-77824380D02*
X114649285Y-77729142D01*
X114649285Y-77729142D02*
X114649285Y-77633904D01*
X114649285Y-77633904D02*
X114601666Y-77538666D01*
X114601666Y-77538666D02*
X114554047Y-77491047D01*
X114554047Y-77491047D02*
X114458809Y-77443428D01*
X114458809Y-77443428D02*
X114268333Y-77395809D01*
X114268333Y-77395809D02*
X114173095Y-77348190D01*
X114173095Y-77348190D02*
X114125476Y-77300571D01*
X114125476Y-77300571D02*
X114077857Y-77205333D01*
X114077857Y-77205333D02*
X114077857Y-77110095D01*
X114077857Y-77110095D02*
X114125476Y-77014857D01*
X114125476Y-77014857D02*
X114173095Y-76967238D01*
X114173095Y-76967238D02*
X114268333Y-76919619D01*
X114268333Y-76919619D02*
X114506428Y-76919619D01*
X114506428Y-76919619D02*
X114649285Y-76967238D01*
X114982619Y-76919619D02*
X115220714Y-77919619D01*
X115220714Y-77919619D02*
X115411190Y-77205333D01*
X115411190Y-77205333D02*
X115601666Y-77919619D01*
X115601666Y-77919619D02*
X115839762Y-76919619D01*
X114077857Y-81936000D02*
X114220714Y-81983619D01*
X114220714Y-81983619D02*
X114458809Y-81983619D01*
X114458809Y-81983619D02*
X114554047Y-81936000D01*
X114554047Y-81936000D02*
X114601666Y-81888380D01*
X114601666Y-81888380D02*
X114649285Y-81793142D01*
X114649285Y-81793142D02*
X114649285Y-81697904D01*
X114649285Y-81697904D02*
X114601666Y-81602666D01*
X114601666Y-81602666D02*
X114554047Y-81555047D01*
X114554047Y-81555047D02*
X114458809Y-81507428D01*
X114458809Y-81507428D02*
X114268333Y-81459809D01*
X114268333Y-81459809D02*
X114173095Y-81412190D01*
X114173095Y-81412190D02*
X114125476Y-81364571D01*
X114125476Y-81364571D02*
X114077857Y-81269333D01*
X114077857Y-81269333D02*
X114077857Y-81174095D01*
X114077857Y-81174095D02*
X114125476Y-81078857D01*
X114125476Y-81078857D02*
X114173095Y-81031238D01*
X114173095Y-81031238D02*
X114268333Y-80983619D01*
X114268333Y-80983619D02*
X114506428Y-80983619D01*
X114506428Y-80983619D02*
X114649285Y-81031238D01*
X114982619Y-80983619D02*
X115220714Y-81983619D01*
X115220714Y-81983619D02*
X115411190Y-81269333D01*
X115411190Y-81269333D02*
X115601666Y-81983619D01*
X115601666Y-81983619D02*
X115839762Y-80983619D01*
X120920189Y-99954238D02*
X120824951Y-99906619D01*
X120824951Y-99906619D02*
X120682094Y-99906619D01*
X120682094Y-99906619D02*
X120539237Y-99954238D01*
X120539237Y-99954238D02*
X120443999Y-100049476D01*
X120443999Y-100049476D02*
X120396380Y-100144714D01*
X120396380Y-100144714D02*
X120348761Y-100335190D01*
X120348761Y-100335190D02*
X120348761Y-100478047D01*
X120348761Y-100478047D02*
X120396380Y-100668523D01*
X120396380Y-100668523D02*
X120443999Y-100763761D01*
X120443999Y-100763761D02*
X120539237Y-100859000D01*
X120539237Y-100859000D02*
X120682094Y-100906619D01*
X120682094Y-100906619D02*
X120777332Y-100906619D01*
X120777332Y-100906619D02*
X120920189Y-100859000D01*
X120920189Y-100859000D02*
X120967808Y-100811380D01*
X120967808Y-100811380D02*
X120967808Y-100478047D01*
X120967808Y-100478047D02*
X120777332Y-100478047D01*
X121396380Y-100906619D02*
X121396380Y-99906619D01*
X121396380Y-99906619D02*
X121967808Y-100906619D01*
X121967808Y-100906619D02*
X121967808Y-99906619D01*
X122443999Y-100906619D02*
X122443999Y-99906619D01*
X122443999Y-99906619D02*
X122682094Y-99906619D01*
X122682094Y-99906619D02*
X122824951Y-99954238D01*
X122824951Y-99954238D02*
X122920189Y-100049476D01*
X122920189Y-100049476D02*
X122967808Y-100144714D01*
X122967808Y-100144714D02*
X123015427Y-100335190D01*
X123015427Y-100335190D02*
X123015427Y-100478047D01*
X123015427Y-100478047D02*
X122967808Y-100668523D01*
X122967808Y-100668523D02*
X122920189Y-100763761D01*
X122920189Y-100763761D02*
X122824951Y-100859000D01*
X122824951Y-100859000D02*
X122682094Y-100906619D01*
X122682094Y-100906619D02*
X122443999Y-100906619D01*
X120396380Y-95302809D02*
X120729713Y-95302809D01*
X120872570Y-95826619D02*
X120396380Y-95826619D01*
X120396380Y-95826619D02*
X120396380Y-94826619D01*
X120396380Y-94826619D02*
X120872570Y-94826619D01*
X121301142Y-95826619D02*
X121301142Y-94826619D01*
X121301142Y-94826619D02*
X121872570Y-95826619D01*
X121872570Y-95826619D02*
X121872570Y-94826619D01*
X122920189Y-95731380D02*
X122872570Y-95779000D01*
X122872570Y-95779000D02*
X122729713Y-95826619D01*
X122729713Y-95826619D02*
X122634475Y-95826619D01*
X122634475Y-95826619D02*
X122491618Y-95779000D01*
X122491618Y-95779000D02*
X122396380Y-95683761D01*
X122396380Y-95683761D02*
X122348761Y-95588523D01*
X122348761Y-95588523D02*
X122301142Y-95398047D01*
X122301142Y-95398047D02*
X122301142Y-95255190D01*
X122301142Y-95255190D02*
X122348761Y-95064714D01*
X122348761Y-95064714D02*
X122396380Y-94969476D01*
X122396380Y-94969476D02*
X122491618Y-94874238D01*
X122491618Y-94874238D02*
X122634475Y-94826619D01*
X122634475Y-94826619D02*
X122729713Y-94826619D01*
X122729713Y-94826619D02*
X122872570Y-94874238D01*
X122872570Y-94874238D02*
X122920189Y-94921857D01*
X123301142Y-95540904D02*
X123777332Y-95540904D01*
X123205904Y-95826619D02*
X123539237Y-94826619D01*
X123539237Y-94826619D02*
X123872570Y-95826619D01*
D11*
X159590617Y-108332270D02*
X159681331Y-108362508D01*
X159681331Y-108362508D02*
X159832522Y-108362508D01*
X159832522Y-108362508D02*
X159892998Y-108332270D01*
X159892998Y-108332270D02*
X159923236Y-108302031D01*
X159923236Y-108302031D02*
X159953474Y-108241555D01*
X159953474Y-108241555D02*
X159953474Y-108181079D01*
X159953474Y-108181079D02*
X159923236Y-108120603D01*
X159923236Y-108120603D02*
X159892998Y-108090365D01*
X159892998Y-108090365D02*
X159832522Y-108060127D01*
X159832522Y-108060127D02*
X159711569Y-108029889D01*
X159711569Y-108029889D02*
X159651093Y-107999650D01*
X159651093Y-107999650D02*
X159620855Y-107969412D01*
X159620855Y-107969412D02*
X159590617Y-107908936D01*
X159590617Y-107908936D02*
X159590617Y-107848460D01*
X159590617Y-107848460D02*
X159620855Y-107787984D01*
X159620855Y-107787984D02*
X159651093Y-107757746D01*
X159651093Y-107757746D02*
X159711569Y-107727508D01*
X159711569Y-107727508D02*
X159862760Y-107727508D01*
X159862760Y-107727508D02*
X159953474Y-107757746D01*
X160134903Y-107727508D02*
X160497760Y-107727508D01*
X160316331Y-108362508D02*
X160316331Y-107727508D01*
X160679189Y-108181079D02*
X160981570Y-108181079D01*
X160618713Y-108362508D02*
X160830379Y-107727508D01*
X160830379Y-107727508D02*
X161042046Y-108362508D01*
X161162999Y-107727508D02*
X161525856Y-107727508D01*
X161344427Y-108362508D02*
X161344427Y-107727508D01*
X161737523Y-107727508D02*
X161737523Y-108241555D01*
X161737523Y-108241555D02*
X161767761Y-108302031D01*
X161767761Y-108302031D02*
X161797999Y-108332270D01*
X161797999Y-108332270D02*
X161858475Y-108362508D01*
X161858475Y-108362508D02*
X161979428Y-108362508D01*
X161979428Y-108362508D02*
X162039904Y-108332270D01*
X162039904Y-108332270D02*
X162070142Y-108302031D01*
X162070142Y-108302031D02*
X162100380Y-108241555D01*
X162100380Y-108241555D02*
X162100380Y-107727508D01*
X162372523Y-108332270D02*
X162463237Y-108362508D01*
X162463237Y-108362508D02*
X162614428Y-108362508D01*
X162614428Y-108362508D02*
X162674904Y-108332270D01*
X162674904Y-108332270D02*
X162705142Y-108302031D01*
X162705142Y-108302031D02*
X162735380Y-108241555D01*
X162735380Y-108241555D02*
X162735380Y-108181079D01*
X162735380Y-108181079D02*
X162705142Y-108120603D01*
X162705142Y-108120603D02*
X162674904Y-108090365D01*
X162674904Y-108090365D02*
X162614428Y-108060127D01*
X162614428Y-108060127D02*
X162493475Y-108029889D01*
X162493475Y-108029889D02*
X162432999Y-107999650D01*
X162432999Y-107999650D02*
X162402761Y-107969412D01*
X162402761Y-107969412D02*
X162372523Y-107908936D01*
X162372523Y-107908936D02*
X162372523Y-107848460D01*
X162372523Y-107848460D02*
X162402761Y-107787984D01*
X162402761Y-107787984D02*
X162432999Y-107757746D01*
X162432999Y-107757746D02*
X162493475Y-107727508D01*
X162493475Y-107727508D02*
X162644666Y-107727508D01*
X162644666Y-107727508D02*
X162735380Y-107757746D01*
D10*
X169327903Y-95344760D02*
X169327903Y-94868570D01*
X169613618Y-95439998D02*
X168613618Y-95106665D01*
X168613618Y-95106665D02*
X169613618Y-94773332D01*
X168946951Y-94011427D02*
X169613618Y-94011427D01*
X168946951Y-94439998D02*
X169470760Y-94439998D01*
X169470760Y-94439998D02*
X169565999Y-94392379D01*
X169565999Y-94392379D02*
X169613618Y-94297141D01*
X169613618Y-94297141D02*
X169613618Y-94154284D01*
X169613618Y-94154284D02*
X169565999Y-94059046D01*
X169565999Y-94059046D02*
X169518379Y-94011427D01*
X169613618Y-93630474D02*
X168946951Y-93106665D01*
X168946951Y-93630474D02*
X169613618Y-93106665D01*
X169613618Y-91963807D02*
X168613618Y-91963807D01*
X168613618Y-91963807D02*
X168613618Y-91725712D01*
X168613618Y-91725712D02*
X168661237Y-91582855D01*
X168661237Y-91582855D02*
X168756475Y-91487617D01*
X168756475Y-91487617D02*
X168851713Y-91439998D01*
X168851713Y-91439998D02*
X169042189Y-91392379D01*
X169042189Y-91392379D02*
X169185046Y-91392379D01*
X169185046Y-91392379D02*
X169375522Y-91439998D01*
X169375522Y-91439998D02*
X169470760Y-91487617D01*
X169470760Y-91487617D02*
X169565999Y-91582855D01*
X169565999Y-91582855D02*
X169613618Y-91725712D01*
X169613618Y-91725712D02*
X169613618Y-91963807D01*
X169613618Y-90963807D02*
X168946951Y-90963807D01*
X168613618Y-90963807D02*
X168661237Y-91011426D01*
X168661237Y-91011426D02*
X168708856Y-90963807D01*
X168708856Y-90963807D02*
X168661237Y-90916188D01*
X168661237Y-90916188D02*
X168613618Y-90963807D01*
X168613618Y-90963807D02*
X168708856Y-90963807D01*
X168946951Y-90059046D02*
X169756475Y-90059046D01*
X169756475Y-90059046D02*
X169851713Y-90106665D01*
X169851713Y-90106665D02*
X169899332Y-90154284D01*
X169899332Y-90154284D02*
X169946951Y-90249522D01*
X169946951Y-90249522D02*
X169946951Y-90392379D01*
X169946951Y-90392379D02*
X169899332Y-90487617D01*
X169565999Y-90059046D02*
X169613618Y-90154284D01*
X169613618Y-90154284D02*
X169613618Y-90344760D01*
X169613618Y-90344760D02*
X169565999Y-90439998D01*
X169565999Y-90439998D02*
X169518379Y-90487617D01*
X169518379Y-90487617D02*
X169423141Y-90535236D01*
X169423141Y-90535236D02*
X169137427Y-90535236D01*
X169137427Y-90535236D02*
X169042189Y-90487617D01*
X169042189Y-90487617D02*
X168994570Y-90439998D01*
X168994570Y-90439998D02*
X168946951Y-90344760D01*
X168946951Y-90344760D02*
X168946951Y-90154284D01*
X168946951Y-90154284D02*
X168994570Y-90059046D01*
X169613618Y-89582855D02*
X168946951Y-89582855D01*
X168613618Y-89582855D02*
X168661237Y-89630474D01*
X168661237Y-89630474D02*
X168708856Y-89582855D01*
X168708856Y-89582855D02*
X168661237Y-89535236D01*
X168661237Y-89535236D02*
X168613618Y-89582855D01*
X168613618Y-89582855D02*
X168708856Y-89582855D01*
X168946951Y-89249522D02*
X168946951Y-88868570D01*
X168613618Y-89106665D02*
X169470760Y-89106665D01*
X169470760Y-89106665D02*
X169565999Y-89059046D01*
X169565999Y-89059046D02*
X169613618Y-88963808D01*
X169613618Y-88963808D02*
X169613618Y-88868570D01*
X169613618Y-88106665D02*
X169089808Y-88106665D01*
X169089808Y-88106665D02*
X168994570Y-88154284D01*
X168994570Y-88154284D02*
X168946951Y-88249522D01*
X168946951Y-88249522D02*
X168946951Y-88439998D01*
X168946951Y-88439998D02*
X168994570Y-88535236D01*
X169565999Y-88106665D02*
X169613618Y-88201903D01*
X169613618Y-88201903D02*
X169613618Y-88439998D01*
X169613618Y-88439998D02*
X169565999Y-88535236D01*
X169565999Y-88535236D02*
X169470760Y-88582855D01*
X169470760Y-88582855D02*
X169375522Y-88582855D01*
X169375522Y-88582855D02*
X169280284Y-88535236D01*
X169280284Y-88535236D02*
X169232665Y-88439998D01*
X169232665Y-88439998D02*
X169232665Y-88201903D01*
X169232665Y-88201903D02*
X169185046Y-88106665D01*
X169613618Y-87487617D02*
X169565999Y-87582855D01*
X169565999Y-87582855D02*
X169470760Y-87630474D01*
X169470760Y-87630474D02*
X168613618Y-87630474D01*
X120396380Y-92762809D02*
X120729713Y-92762809D01*
X120872570Y-93286619D02*
X120396380Y-93286619D01*
X120396380Y-93286619D02*
X120396380Y-92286619D01*
X120396380Y-92286619D02*
X120872570Y-92286619D01*
X121301142Y-93286619D02*
X121301142Y-92286619D01*
X121301142Y-92286619D02*
X121872570Y-93286619D01*
X121872570Y-93286619D02*
X121872570Y-92286619D01*
X122920189Y-93191380D02*
X122872570Y-93239000D01*
X122872570Y-93239000D02*
X122729713Y-93286619D01*
X122729713Y-93286619D02*
X122634475Y-93286619D01*
X122634475Y-93286619D02*
X122491618Y-93239000D01*
X122491618Y-93239000D02*
X122396380Y-93143761D01*
X122396380Y-93143761D02*
X122348761Y-93048523D01*
X122348761Y-93048523D02*
X122301142Y-92858047D01*
X122301142Y-92858047D02*
X122301142Y-92715190D01*
X122301142Y-92715190D02*
X122348761Y-92524714D01*
X122348761Y-92524714D02*
X122396380Y-92429476D01*
X122396380Y-92429476D02*
X122491618Y-92334238D01*
X122491618Y-92334238D02*
X122634475Y-92286619D01*
X122634475Y-92286619D02*
X122729713Y-92286619D01*
X122729713Y-92286619D02*
X122872570Y-92334238D01*
X122872570Y-92334238D02*
X122920189Y-92381857D01*
X123682094Y-92762809D02*
X123824951Y-92810428D01*
X123824951Y-92810428D02*
X123872570Y-92858047D01*
X123872570Y-92858047D02*
X123920189Y-92953285D01*
X123920189Y-92953285D02*
X123920189Y-93096142D01*
X123920189Y-93096142D02*
X123872570Y-93191380D01*
X123872570Y-93191380D02*
X123824951Y-93239000D01*
X123824951Y-93239000D02*
X123729713Y-93286619D01*
X123729713Y-93286619D02*
X123348761Y-93286619D01*
X123348761Y-93286619D02*
X123348761Y-92286619D01*
X123348761Y-92286619D02*
X123682094Y-92286619D01*
X123682094Y-92286619D02*
X123777332Y-92334238D01*
X123777332Y-92334238D02*
X123824951Y-92381857D01*
X123824951Y-92381857D02*
X123872570Y-92477095D01*
X123872570Y-92477095D02*
X123872570Y-92572333D01*
X123872570Y-92572333D02*
X123824951Y-92667571D01*
X123824951Y-92667571D02*
X123777332Y-92715190D01*
X123777332Y-92715190D02*
X123682094Y-92762809D01*
X123682094Y-92762809D02*
X123348761Y-92762809D01*
X150399903Y-73474619D02*
X150066570Y-72998428D01*
X149828475Y-73474619D02*
X149828475Y-72474619D01*
X149828475Y-72474619D02*
X150209427Y-72474619D01*
X150209427Y-72474619D02*
X150304665Y-72522238D01*
X150304665Y-72522238D02*
X150352284Y-72569857D01*
X150352284Y-72569857D02*
X150399903Y-72665095D01*
X150399903Y-72665095D02*
X150399903Y-72807952D01*
X150399903Y-72807952D02*
X150352284Y-72903190D01*
X150352284Y-72903190D02*
X150304665Y-72950809D01*
X150304665Y-72950809D02*
X150209427Y-72998428D01*
X150209427Y-72998428D02*
X149828475Y-72998428D01*
X151209427Y-73427000D02*
X151114189Y-73474619D01*
X151114189Y-73474619D02*
X150923713Y-73474619D01*
X150923713Y-73474619D02*
X150828475Y-73427000D01*
X150828475Y-73427000D02*
X150780856Y-73331761D01*
X150780856Y-73331761D02*
X150780856Y-72950809D01*
X150780856Y-72950809D02*
X150828475Y-72855571D01*
X150828475Y-72855571D02*
X150923713Y-72807952D01*
X150923713Y-72807952D02*
X151114189Y-72807952D01*
X151114189Y-72807952D02*
X151209427Y-72855571D01*
X151209427Y-72855571D02*
X151257046Y-72950809D01*
X151257046Y-72950809D02*
X151257046Y-73046047D01*
X151257046Y-73046047D02*
X150780856Y-73141285D01*
X151637999Y-73427000D02*
X151733237Y-73474619D01*
X151733237Y-73474619D02*
X151923713Y-73474619D01*
X151923713Y-73474619D02*
X152018951Y-73427000D01*
X152018951Y-73427000D02*
X152066570Y-73331761D01*
X152066570Y-73331761D02*
X152066570Y-73284142D01*
X152066570Y-73284142D02*
X152018951Y-73188904D01*
X152018951Y-73188904D02*
X151923713Y-73141285D01*
X151923713Y-73141285D02*
X151780856Y-73141285D01*
X151780856Y-73141285D02*
X151685618Y-73093666D01*
X151685618Y-73093666D02*
X151637999Y-72998428D01*
X151637999Y-72998428D02*
X151637999Y-72950809D01*
X151637999Y-72950809D02*
X151685618Y-72855571D01*
X151685618Y-72855571D02*
X151780856Y-72807952D01*
X151780856Y-72807952D02*
X151923713Y-72807952D01*
X151923713Y-72807952D02*
X152018951Y-72855571D01*
X152876094Y-73427000D02*
X152780856Y-73474619D01*
X152780856Y-73474619D02*
X152590380Y-73474619D01*
X152590380Y-73474619D02*
X152495142Y-73427000D01*
X152495142Y-73427000D02*
X152447523Y-73331761D01*
X152447523Y-73331761D02*
X152447523Y-72950809D01*
X152447523Y-72950809D02*
X152495142Y-72855571D01*
X152495142Y-72855571D02*
X152590380Y-72807952D01*
X152590380Y-72807952D02*
X152780856Y-72807952D01*
X152780856Y-72807952D02*
X152876094Y-72855571D01*
X152876094Y-72855571D02*
X152923713Y-72950809D01*
X152923713Y-72950809D02*
X152923713Y-73046047D01*
X152923713Y-73046047D02*
X152447523Y-73141285D01*
X153209428Y-72807952D02*
X153590380Y-72807952D01*
X153352285Y-72474619D02*
X153352285Y-73331761D01*
X153352285Y-73331761D02*
X153399904Y-73427000D01*
X153399904Y-73427000D02*
X153495142Y-73474619D01*
X153495142Y-73474619D02*
X153590380Y-73474619D01*
X120396380Y-105986619D02*
X120396380Y-104986619D01*
X120396380Y-104986619D02*
X120729713Y-105700904D01*
X120729713Y-105700904D02*
X121063046Y-104986619D01*
X121063046Y-104986619D02*
X121063046Y-105986619D01*
X121682094Y-105986619D02*
X121586856Y-105939000D01*
X121586856Y-105939000D02*
X121539237Y-105891380D01*
X121539237Y-105891380D02*
X121491618Y-105796142D01*
X121491618Y-105796142D02*
X121491618Y-105510428D01*
X121491618Y-105510428D02*
X121539237Y-105415190D01*
X121539237Y-105415190D02*
X121586856Y-105367571D01*
X121586856Y-105367571D02*
X121682094Y-105319952D01*
X121682094Y-105319952D02*
X121824951Y-105319952D01*
X121824951Y-105319952D02*
X121920189Y-105367571D01*
X121920189Y-105367571D02*
X121967808Y-105415190D01*
X121967808Y-105415190D02*
X122015427Y-105510428D01*
X122015427Y-105510428D02*
X122015427Y-105796142D01*
X122015427Y-105796142D02*
X121967808Y-105891380D01*
X121967808Y-105891380D02*
X121920189Y-105939000D01*
X121920189Y-105939000D02*
X121824951Y-105986619D01*
X121824951Y-105986619D02*
X121682094Y-105986619D01*
X122301142Y-105319952D02*
X122682094Y-105319952D01*
X122443999Y-104986619D02*
X122443999Y-105843761D01*
X122443999Y-105843761D02*
X122491618Y-105939000D01*
X122491618Y-105939000D02*
X122586856Y-105986619D01*
X122586856Y-105986619D02*
X122682094Y-105986619D01*
X123158285Y-105986619D02*
X123063047Y-105939000D01*
X123063047Y-105939000D02*
X123015428Y-105891380D01*
X123015428Y-105891380D02*
X122967809Y-105796142D01*
X122967809Y-105796142D02*
X122967809Y-105510428D01*
X122967809Y-105510428D02*
X123015428Y-105415190D01*
X123015428Y-105415190D02*
X123063047Y-105367571D01*
X123063047Y-105367571D02*
X123158285Y-105319952D01*
X123158285Y-105319952D02*
X123301142Y-105319952D01*
X123301142Y-105319952D02*
X123396380Y-105367571D01*
X123396380Y-105367571D02*
X123443999Y-105415190D01*
X123443999Y-105415190D02*
X123491618Y-105510428D01*
X123491618Y-105510428D02*
X123491618Y-105796142D01*
X123491618Y-105796142D02*
X123443999Y-105891380D01*
X123443999Y-105891380D02*
X123396380Y-105939000D01*
X123396380Y-105939000D02*
X123301142Y-105986619D01*
X123301142Y-105986619D02*
X123158285Y-105986619D01*
X123920190Y-105986619D02*
X123920190Y-105319952D01*
X123920190Y-105510428D02*
X123967809Y-105415190D01*
X123967809Y-105415190D02*
X124015428Y-105367571D01*
X124015428Y-105367571D02*
X124110666Y-105319952D01*
X124110666Y-105319952D02*
X124205904Y-105319952D01*
X124491619Y-105700904D02*
X124967809Y-105700904D01*
X124396381Y-105986619D02*
X124729714Y-104986619D01*
X124729714Y-104986619D02*
X125063047Y-105986619D01*
X125586857Y-104986619D02*
X125682095Y-104986619D01*
X125682095Y-104986619D02*
X125777333Y-105034238D01*
X125777333Y-105034238D02*
X125824952Y-105081857D01*
X125824952Y-105081857D02*
X125872571Y-105177095D01*
X125872571Y-105177095D02*
X125920190Y-105367571D01*
X125920190Y-105367571D02*
X125920190Y-105605666D01*
X125920190Y-105605666D02*
X125872571Y-105796142D01*
X125872571Y-105796142D02*
X125824952Y-105891380D01*
X125824952Y-105891380D02*
X125777333Y-105939000D01*
X125777333Y-105939000D02*
X125682095Y-105986619D01*
X125682095Y-105986619D02*
X125586857Y-105986619D01*
X125586857Y-105986619D02*
X125491619Y-105939000D01*
X125491619Y-105939000D02*
X125444000Y-105891380D01*
X125444000Y-105891380D02*
X125396381Y-105796142D01*
X125396381Y-105796142D02*
X125348762Y-105605666D01*
X125348762Y-105605666D02*
X125348762Y-105367571D01*
X125348762Y-105367571D02*
X125396381Y-105177095D01*
X125396381Y-105177095D02*
X125444000Y-105081857D01*
X125444000Y-105081857D02*
X125491619Y-105034238D01*
X125491619Y-105034238D02*
X125586857Y-104986619D01*
X126872571Y-105986619D02*
X126301143Y-105986619D01*
X126586857Y-105986619D02*
X126586857Y-104986619D01*
X126586857Y-104986619D02*
X126491619Y-105129476D01*
X126491619Y-105129476D02*
X126396381Y-105224714D01*
X126396381Y-105224714D02*
X126301143Y-105272333D01*
D12*
X123009818Y-78144666D02*
X122533627Y-78477999D01*
X123009818Y-78716094D02*
X122009818Y-78716094D01*
X122009818Y-78716094D02*
X122009818Y-78335142D01*
X122009818Y-78335142D02*
X122057437Y-78239904D01*
X122057437Y-78239904D02*
X122105056Y-78192285D01*
X122105056Y-78192285D02*
X122200294Y-78144666D01*
X122200294Y-78144666D02*
X122343151Y-78144666D01*
X122343151Y-78144666D02*
X122438389Y-78192285D01*
X122438389Y-78192285D02*
X122486008Y-78239904D01*
X122486008Y-78239904D02*
X122533627Y-78335142D01*
X122533627Y-78335142D02*
X122533627Y-78716094D01*
X122009818Y-77811332D02*
X122009818Y-77192285D01*
X122009818Y-77192285D02*
X122390770Y-77525618D01*
X122390770Y-77525618D02*
X122390770Y-77382761D01*
X122390770Y-77382761D02*
X122438389Y-77287523D01*
X122438389Y-77287523D02*
X122486008Y-77239904D01*
X122486008Y-77239904D02*
X122581246Y-77192285D01*
X122581246Y-77192285D02*
X122819341Y-77192285D01*
X122819341Y-77192285D02*
X122914579Y-77239904D01*
X122914579Y-77239904D02*
X122962199Y-77287523D01*
X122962199Y-77287523D02*
X123009818Y-77382761D01*
X123009818Y-77382761D02*
X123009818Y-77668475D01*
X123009818Y-77668475D02*
X122962199Y-77763713D01*
X122962199Y-77763713D02*
X122914579Y-77811332D01*
X137614818Y-90209666D02*
X137138627Y-90542999D01*
X137614818Y-90781094D02*
X136614818Y-90781094D01*
X136614818Y-90781094D02*
X136614818Y-90400142D01*
X136614818Y-90400142D02*
X136662437Y-90304904D01*
X136662437Y-90304904D02*
X136710056Y-90257285D01*
X136710056Y-90257285D02*
X136805294Y-90209666D01*
X136805294Y-90209666D02*
X136948151Y-90209666D01*
X136948151Y-90209666D02*
X137043389Y-90257285D01*
X137043389Y-90257285D02*
X137091008Y-90304904D01*
X137091008Y-90304904D02*
X137138627Y-90400142D01*
X137138627Y-90400142D02*
X137138627Y-90781094D01*
X136614818Y-89876332D02*
X136614818Y-89209666D01*
X136614818Y-89209666D02*
X137614818Y-89638237D01*
X129455056Y-74390238D02*
X129407437Y-74485476D01*
X129407437Y-74485476D02*
X129312199Y-74580714D01*
X129312199Y-74580714D02*
X129169341Y-74723571D01*
X129169341Y-74723571D02*
X129121722Y-74818809D01*
X129121722Y-74818809D02*
X129121722Y-74914047D01*
X129359818Y-74866428D02*
X129312199Y-74961666D01*
X129312199Y-74961666D02*
X129216960Y-75056904D01*
X129216960Y-75056904D02*
X129026484Y-75104523D01*
X129026484Y-75104523D02*
X128693151Y-75104523D01*
X128693151Y-75104523D02*
X128502675Y-75056904D01*
X128502675Y-75056904D02*
X128407437Y-74961666D01*
X128407437Y-74961666D02*
X128359818Y-74866428D01*
X128359818Y-74866428D02*
X128359818Y-74675952D01*
X128359818Y-74675952D02*
X128407437Y-74580714D01*
X128407437Y-74580714D02*
X128502675Y-74485476D01*
X128502675Y-74485476D02*
X128693151Y-74437857D01*
X128693151Y-74437857D02*
X129026484Y-74437857D01*
X129026484Y-74437857D02*
X129216960Y-74485476D01*
X129216960Y-74485476D02*
X129312199Y-74580714D01*
X129312199Y-74580714D02*
X129359818Y-74675952D01*
X129359818Y-74675952D02*
X129359818Y-74866428D01*
X129359818Y-73485476D02*
X129359818Y-74056904D01*
X129359818Y-73771190D02*
X128359818Y-73771190D01*
X128359818Y-73771190D02*
X128502675Y-73866428D01*
X128502675Y-73866428D02*
X128597913Y-73961666D01*
X128597913Y-73961666D02*
X128645532Y-74056904D01*
X151249141Y-98784580D02*
X151201522Y-98832200D01*
X151201522Y-98832200D02*
X151058665Y-98879819D01*
X151058665Y-98879819D02*
X150963427Y-98879819D01*
X150963427Y-98879819D02*
X150820570Y-98832200D01*
X150820570Y-98832200D02*
X150725332Y-98736961D01*
X150725332Y-98736961D02*
X150677713Y-98641723D01*
X150677713Y-98641723D02*
X150630094Y-98451247D01*
X150630094Y-98451247D02*
X150630094Y-98308390D01*
X150630094Y-98308390D02*
X150677713Y-98117914D01*
X150677713Y-98117914D02*
X150725332Y-98022676D01*
X150725332Y-98022676D02*
X150820570Y-97927438D01*
X150820570Y-97927438D02*
X150963427Y-97879819D01*
X150963427Y-97879819D02*
X151058665Y-97879819D01*
X151058665Y-97879819D02*
X151201522Y-97927438D01*
X151201522Y-97927438D02*
X151249141Y-97975057D01*
X152201522Y-98879819D02*
X151630094Y-98879819D01*
X151915808Y-98879819D02*
X151915808Y-97879819D01*
X151915808Y-97879819D02*
X151820570Y-98022676D01*
X151820570Y-98022676D02*
X151725332Y-98117914D01*
X151725332Y-98117914D02*
X151630094Y-98165533D01*
X153058665Y-97879819D02*
X152868189Y-97879819D01*
X152868189Y-97879819D02*
X152772951Y-97927438D01*
X152772951Y-97927438D02*
X152725332Y-97975057D01*
X152725332Y-97975057D02*
X152630094Y-98117914D01*
X152630094Y-98117914D02*
X152582475Y-98308390D01*
X152582475Y-98308390D02*
X152582475Y-98689342D01*
X152582475Y-98689342D02*
X152630094Y-98784580D01*
X152630094Y-98784580D02*
X152677713Y-98832200D01*
X152677713Y-98832200D02*
X152772951Y-98879819D01*
X152772951Y-98879819D02*
X152963427Y-98879819D01*
X152963427Y-98879819D02*
X153058665Y-98832200D01*
X153058665Y-98832200D02*
X153106284Y-98784580D01*
X153106284Y-98784580D02*
X153153903Y-98689342D01*
X153153903Y-98689342D02*
X153153903Y-98451247D01*
X153153903Y-98451247D02*
X153106284Y-98356009D01*
X153106284Y-98356009D02*
X153058665Y-98308390D01*
X153058665Y-98308390D02*
X152963427Y-98260771D01*
X152963427Y-98260771D02*
X152772951Y-98260771D01*
X152772951Y-98260771D02*
X152677713Y-98308390D01*
X152677713Y-98308390D02*
X152630094Y-98356009D01*
X152630094Y-98356009D02*
X152582475Y-98451247D01*
X154029579Y-94876857D02*
X154077199Y-94924476D01*
X154077199Y-94924476D02*
X154124818Y-95067333D01*
X154124818Y-95067333D02*
X154124818Y-95162571D01*
X154124818Y-95162571D02*
X154077199Y-95305428D01*
X154077199Y-95305428D02*
X153981960Y-95400666D01*
X153981960Y-95400666D02*
X153886722Y-95448285D01*
X153886722Y-95448285D02*
X153696246Y-95495904D01*
X153696246Y-95495904D02*
X153553389Y-95495904D01*
X153553389Y-95495904D02*
X153362913Y-95448285D01*
X153362913Y-95448285D02*
X153267675Y-95400666D01*
X153267675Y-95400666D02*
X153172437Y-95305428D01*
X153172437Y-95305428D02*
X153124818Y-95162571D01*
X153124818Y-95162571D02*
X153124818Y-95067333D01*
X153124818Y-95067333D02*
X153172437Y-94924476D01*
X153172437Y-94924476D02*
X153220056Y-94876857D01*
X153220056Y-94495904D02*
X153172437Y-94448285D01*
X153172437Y-94448285D02*
X153124818Y-94353047D01*
X153124818Y-94353047D02*
X153124818Y-94114952D01*
X153124818Y-94114952D02*
X153172437Y-94019714D01*
X153172437Y-94019714D02*
X153220056Y-93972095D01*
X153220056Y-93972095D02*
X153315294Y-93924476D01*
X153315294Y-93924476D02*
X153410532Y-93924476D01*
X153410532Y-93924476D02*
X153553389Y-93972095D01*
X153553389Y-93972095D02*
X154124818Y-94543523D01*
X154124818Y-94543523D02*
X154124818Y-93924476D01*
X153458151Y-93067333D02*
X154124818Y-93067333D01*
X153077199Y-93305428D02*
X153791484Y-93543523D01*
X153791484Y-93543523D02*
X153791484Y-92924476D01*
X134524760Y-90720057D02*
X134429522Y-90672438D01*
X134429522Y-90672438D02*
X134334284Y-90577200D01*
X134334284Y-90577200D02*
X134191427Y-90434342D01*
X134191427Y-90434342D02*
X134096189Y-90386723D01*
X134096189Y-90386723D02*
X134000951Y-90386723D01*
X134048570Y-90624819D02*
X133953332Y-90577200D01*
X133953332Y-90577200D02*
X133858094Y-90481961D01*
X133858094Y-90481961D02*
X133810475Y-90291485D01*
X133810475Y-90291485D02*
X133810475Y-89958152D01*
X133810475Y-89958152D02*
X133858094Y-89767676D01*
X133858094Y-89767676D02*
X133953332Y-89672438D01*
X133953332Y-89672438D02*
X134048570Y-89624819D01*
X134048570Y-89624819D02*
X134239046Y-89624819D01*
X134239046Y-89624819D02*
X134334284Y-89672438D01*
X134334284Y-89672438D02*
X134429522Y-89767676D01*
X134429522Y-89767676D02*
X134477141Y-89958152D01*
X134477141Y-89958152D02*
X134477141Y-90291485D01*
X134477141Y-90291485D02*
X134429522Y-90481961D01*
X134429522Y-90481961D02*
X134334284Y-90577200D01*
X134334284Y-90577200D02*
X134239046Y-90624819D01*
X134239046Y-90624819D02*
X134048570Y-90624819D01*
X134810475Y-89624819D02*
X135429522Y-89624819D01*
X135429522Y-89624819D02*
X135096189Y-90005771D01*
X135096189Y-90005771D02*
X135239046Y-90005771D01*
X135239046Y-90005771D02*
X135334284Y-90053390D01*
X135334284Y-90053390D02*
X135381903Y-90101009D01*
X135381903Y-90101009D02*
X135429522Y-90196247D01*
X135429522Y-90196247D02*
X135429522Y-90434342D01*
X135429522Y-90434342D02*
X135381903Y-90529580D01*
X135381903Y-90529580D02*
X135334284Y-90577200D01*
X135334284Y-90577200D02*
X135239046Y-90624819D01*
X135239046Y-90624819D02*
X134953332Y-90624819D01*
X134953332Y-90624819D02*
X134858094Y-90577200D01*
X134858094Y-90577200D02*
X134810475Y-90529580D01*
X132065832Y-77194580D02*
X132018213Y-77242200D01*
X132018213Y-77242200D02*
X131875356Y-77289819D01*
X131875356Y-77289819D02*
X131780118Y-77289819D01*
X131780118Y-77289819D02*
X131637261Y-77242200D01*
X131637261Y-77242200D02*
X131542023Y-77146961D01*
X131542023Y-77146961D02*
X131494404Y-77051723D01*
X131494404Y-77051723D02*
X131446785Y-76861247D01*
X131446785Y-76861247D02*
X131446785Y-76718390D01*
X131446785Y-76718390D02*
X131494404Y-76527914D01*
X131494404Y-76527914D02*
X131542023Y-76432676D01*
X131542023Y-76432676D02*
X131637261Y-76337438D01*
X131637261Y-76337438D02*
X131780118Y-76289819D01*
X131780118Y-76289819D02*
X131875356Y-76289819D01*
X131875356Y-76289819D02*
X132018213Y-76337438D01*
X132018213Y-76337438D02*
X132065832Y-76385057D01*
X132399166Y-76289819D02*
X133018213Y-76289819D01*
X133018213Y-76289819D02*
X132684880Y-76670771D01*
X132684880Y-76670771D02*
X132827737Y-76670771D01*
X132827737Y-76670771D02*
X132922975Y-76718390D01*
X132922975Y-76718390D02*
X132970594Y-76766009D01*
X132970594Y-76766009D02*
X133018213Y-76861247D01*
X133018213Y-76861247D02*
X133018213Y-77099342D01*
X133018213Y-77099342D02*
X132970594Y-77194580D01*
X132970594Y-77194580D02*
X132922975Y-77242200D01*
X132922975Y-77242200D02*
X132827737Y-77289819D01*
X132827737Y-77289819D02*
X132542023Y-77289819D01*
X132542023Y-77289819D02*
X132446785Y-77242200D01*
X132446785Y-77242200D02*
X132399166Y-77194580D01*
X157371142Y-74948144D02*
X157334856Y-74984430D01*
X157334856Y-74984430D02*
X157225999Y-75020715D01*
X157225999Y-75020715D02*
X157153427Y-75020715D01*
X157153427Y-75020715D02*
X157044570Y-74984430D01*
X157044570Y-74984430D02*
X156971999Y-74911858D01*
X156971999Y-74911858D02*
X156935713Y-74839287D01*
X156935713Y-74839287D02*
X156899427Y-74694144D01*
X156899427Y-74694144D02*
X156899427Y-74585287D01*
X156899427Y-74585287D02*
X156935713Y-74440144D01*
X156935713Y-74440144D02*
X156971999Y-74367572D01*
X156971999Y-74367572D02*
X157044570Y-74295001D01*
X157044570Y-74295001D02*
X157153427Y-74258715D01*
X157153427Y-74258715D02*
X157225999Y-74258715D01*
X157225999Y-74258715D02*
X157334856Y-74295001D01*
X157334856Y-74295001D02*
X157371142Y-74331287D01*
X157661427Y-74331287D02*
X157697713Y-74295001D01*
X157697713Y-74295001D02*
X157770285Y-74258715D01*
X157770285Y-74258715D02*
X157951713Y-74258715D01*
X157951713Y-74258715D02*
X158024285Y-74295001D01*
X158024285Y-74295001D02*
X158060570Y-74331287D01*
X158060570Y-74331287D02*
X158096856Y-74403858D01*
X158096856Y-74403858D02*
X158096856Y-74476430D01*
X158096856Y-74476430D02*
X158060570Y-74585287D01*
X158060570Y-74585287D02*
X157625142Y-75020715D01*
X157625142Y-75020715D02*
X158096856Y-75020715D01*
X158568570Y-74258715D02*
X158641141Y-74258715D01*
X158641141Y-74258715D02*
X158713713Y-74295001D01*
X158713713Y-74295001D02*
X158749999Y-74331287D01*
X158749999Y-74331287D02*
X158786284Y-74403858D01*
X158786284Y-74403858D02*
X158822570Y-74549001D01*
X158822570Y-74549001D02*
X158822570Y-74730430D01*
X158822570Y-74730430D02*
X158786284Y-74875572D01*
X158786284Y-74875572D02*
X158749999Y-74948144D01*
X158749999Y-74948144D02*
X158713713Y-74984430D01*
X158713713Y-74984430D02*
X158641141Y-75020715D01*
X158641141Y-75020715D02*
X158568570Y-75020715D01*
X158568570Y-75020715D02*
X158495999Y-74984430D01*
X158495999Y-74984430D02*
X158459713Y-74948144D01*
X158459713Y-74948144D02*
X158423427Y-74875572D01*
X158423427Y-74875572D02*
X158387141Y-74730430D01*
X158387141Y-74730430D02*
X158387141Y-74549001D01*
X158387141Y-74549001D02*
X158423427Y-74403858D01*
X158423427Y-74403858D02*
X158459713Y-74331287D01*
X158459713Y-74331287D02*
X158495999Y-74295001D01*
X158495999Y-74295001D02*
X158568570Y-74258715D01*
X128756180Y-83843905D02*
X129756180Y-83843905D01*
X129756180Y-83843905D02*
X129756180Y-84082000D01*
X129756180Y-84082000D02*
X129708561Y-84224857D01*
X129708561Y-84224857D02*
X129613323Y-84320095D01*
X129613323Y-84320095D02*
X129518085Y-84367714D01*
X129518085Y-84367714D02*
X129327609Y-84415333D01*
X129327609Y-84415333D02*
X129184752Y-84415333D01*
X129184752Y-84415333D02*
X128994276Y-84367714D01*
X128994276Y-84367714D02*
X128899038Y-84320095D01*
X128899038Y-84320095D02*
X128803800Y-84224857D01*
X128803800Y-84224857D02*
X128756180Y-84082000D01*
X128756180Y-84082000D02*
X128756180Y-83843905D01*
X129660942Y-84796286D02*
X129708561Y-84843905D01*
X129708561Y-84843905D02*
X129756180Y-84939143D01*
X129756180Y-84939143D02*
X129756180Y-85177238D01*
X129756180Y-85177238D02*
X129708561Y-85272476D01*
X129708561Y-85272476D02*
X129660942Y-85320095D01*
X129660942Y-85320095D02*
X129565704Y-85367714D01*
X129565704Y-85367714D02*
X129470466Y-85367714D01*
X129470466Y-85367714D02*
X129327609Y-85320095D01*
X129327609Y-85320095D02*
X128756180Y-84748667D01*
X128756180Y-84748667D02*
X128756180Y-85367714D01*
X160520141Y-79448819D02*
X160186808Y-78972628D01*
X159948713Y-79448819D02*
X159948713Y-78448819D01*
X159948713Y-78448819D02*
X160329665Y-78448819D01*
X160329665Y-78448819D02*
X160424903Y-78496438D01*
X160424903Y-78496438D02*
X160472522Y-78544057D01*
X160472522Y-78544057D02*
X160520141Y-78639295D01*
X160520141Y-78639295D02*
X160520141Y-78782152D01*
X160520141Y-78782152D02*
X160472522Y-78877390D01*
X160472522Y-78877390D02*
X160424903Y-78925009D01*
X160424903Y-78925009D02*
X160329665Y-78972628D01*
X160329665Y-78972628D02*
X159948713Y-78972628D01*
X160901094Y-78544057D02*
X160948713Y-78496438D01*
X160948713Y-78496438D02*
X161043951Y-78448819D01*
X161043951Y-78448819D02*
X161282046Y-78448819D01*
X161282046Y-78448819D02*
X161377284Y-78496438D01*
X161377284Y-78496438D02*
X161424903Y-78544057D01*
X161424903Y-78544057D02*
X161472522Y-78639295D01*
X161472522Y-78639295D02*
X161472522Y-78734533D01*
X161472522Y-78734533D02*
X161424903Y-78877390D01*
X161424903Y-78877390D02*
X160853475Y-79448819D01*
X160853475Y-79448819D02*
X161472522Y-79448819D01*
X161805856Y-78448819D02*
X162424903Y-78448819D01*
X162424903Y-78448819D02*
X162091570Y-78829771D01*
X162091570Y-78829771D02*
X162234427Y-78829771D01*
X162234427Y-78829771D02*
X162329665Y-78877390D01*
X162329665Y-78877390D02*
X162377284Y-78925009D01*
X162377284Y-78925009D02*
X162424903Y-79020247D01*
X162424903Y-79020247D02*
X162424903Y-79258342D01*
X162424903Y-79258342D02*
X162377284Y-79353580D01*
X162377284Y-79353580D02*
X162329665Y-79401200D01*
X162329665Y-79401200D02*
X162234427Y-79448819D01*
X162234427Y-79448819D02*
X161948713Y-79448819D01*
X161948713Y-79448819D02*
X161853475Y-79401200D01*
X161853475Y-79401200D02*
X161805856Y-79353580D01*
X155775818Y-91828857D02*
X155299627Y-92162190D01*
X155775818Y-92400285D02*
X154775818Y-92400285D01*
X154775818Y-92400285D02*
X154775818Y-92019333D01*
X154775818Y-92019333D02*
X154823437Y-91924095D01*
X154823437Y-91924095D02*
X154871056Y-91876476D01*
X154871056Y-91876476D02*
X154966294Y-91828857D01*
X154966294Y-91828857D02*
X155109151Y-91828857D01*
X155109151Y-91828857D02*
X155204389Y-91876476D01*
X155204389Y-91876476D02*
X155252008Y-91924095D01*
X155252008Y-91924095D02*
X155299627Y-92019333D01*
X155299627Y-92019333D02*
X155299627Y-92400285D01*
X154775818Y-91495523D02*
X154775818Y-90876476D01*
X154775818Y-90876476D02*
X155156770Y-91209809D01*
X155156770Y-91209809D02*
X155156770Y-91066952D01*
X155156770Y-91066952D02*
X155204389Y-90971714D01*
X155204389Y-90971714D02*
X155252008Y-90924095D01*
X155252008Y-90924095D02*
X155347246Y-90876476D01*
X155347246Y-90876476D02*
X155585341Y-90876476D01*
X155585341Y-90876476D02*
X155680579Y-90924095D01*
X155680579Y-90924095D02*
X155728199Y-90971714D01*
X155728199Y-90971714D02*
X155775818Y-91066952D01*
X155775818Y-91066952D02*
X155775818Y-91352666D01*
X155775818Y-91352666D02*
X155728199Y-91447904D01*
X155728199Y-91447904D02*
X155680579Y-91495523D01*
X154775818Y-90257428D02*
X154775818Y-90162190D01*
X154775818Y-90162190D02*
X154823437Y-90066952D01*
X154823437Y-90066952D02*
X154871056Y-90019333D01*
X154871056Y-90019333D02*
X154966294Y-89971714D01*
X154966294Y-89971714D02*
X155156770Y-89924095D01*
X155156770Y-89924095D02*
X155394865Y-89924095D01*
X155394865Y-89924095D02*
X155585341Y-89971714D01*
X155585341Y-89971714D02*
X155680579Y-90019333D01*
X155680579Y-90019333D02*
X155728199Y-90066952D01*
X155728199Y-90066952D02*
X155775818Y-90162190D01*
X155775818Y-90162190D02*
X155775818Y-90257428D01*
X155775818Y-90257428D02*
X155728199Y-90352666D01*
X155728199Y-90352666D02*
X155680579Y-90400285D01*
X155680579Y-90400285D02*
X155585341Y-90447904D01*
X155585341Y-90447904D02*
X155394865Y-90495523D01*
X155394865Y-90495523D02*
X155156770Y-90495523D01*
X155156770Y-90495523D02*
X154966294Y-90447904D01*
X154966294Y-90447904D02*
X154871056Y-90400285D01*
X154871056Y-90400285D02*
X154823437Y-90352666D01*
X154823437Y-90352666D02*
X154775818Y-90257428D01*
X132065832Y-75670580D02*
X132018213Y-75718200D01*
X132018213Y-75718200D02*
X131875356Y-75765819D01*
X131875356Y-75765819D02*
X131780118Y-75765819D01*
X131780118Y-75765819D02*
X131637261Y-75718200D01*
X131637261Y-75718200D02*
X131542023Y-75622961D01*
X131542023Y-75622961D02*
X131494404Y-75527723D01*
X131494404Y-75527723D02*
X131446785Y-75337247D01*
X131446785Y-75337247D02*
X131446785Y-75194390D01*
X131446785Y-75194390D02*
X131494404Y-75003914D01*
X131494404Y-75003914D02*
X131542023Y-74908676D01*
X131542023Y-74908676D02*
X131637261Y-74813438D01*
X131637261Y-74813438D02*
X131780118Y-74765819D01*
X131780118Y-74765819D02*
X131875356Y-74765819D01*
X131875356Y-74765819D02*
X132018213Y-74813438D01*
X132018213Y-74813438D02*
X132065832Y-74861057D01*
X132446785Y-74861057D02*
X132494404Y-74813438D01*
X132494404Y-74813438D02*
X132589642Y-74765819D01*
X132589642Y-74765819D02*
X132827737Y-74765819D01*
X132827737Y-74765819D02*
X132922975Y-74813438D01*
X132922975Y-74813438D02*
X132970594Y-74861057D01*
X132970594Y-74861057D02*
X133018213Y-74956295D01*
X133018213Y-74956295D02*
X133018213Y-75051533D01*
X133018213Y-75051533D02*
X132970594Y-75194390D01*
X132970594Y-75194390D02*
X132399166Y-75765819D01*
X132399166Y-75765819D02*
X133018213Y-75765819D01*
X133149152Y-102586972D02*
X133149152Y-103234591D01*
X133149152Y-103234591D02*
X133187247Y-103310781D01*
X133187247Y-103310781D02*
X133225342Y-103348877D01*
X133225342Y-103348877D02*
X133301533Y-103386972D01*
X133301533Y-103386972D02*
X133453914Y-103386972D01*
X133453914Y-103386972D02*
X133530104Y-103348877D01*
X133530104Y-103348877D02*
X133568199Y-103310781D01*
X133568199Y-103310781D02*
X133606295Y-103234591D01*
X133606295Y-103234591D02*
X133606295Y-102586972D01*
X134368199Y-102586972D02*
X133987247Y-102586972D01*
X133987247Y-102586972D02*
X133949151Y-102967924D01*
X133949151Y-102967924D02*
X133987247Y-102929829D01*
X133987247Y-102929829D02*
X134063437Y-102891734D01*
X134063437Y-102891734D02*
X134253913Y-102891734D01*
X134253913Y-102891734D02*
X134330104Y-102929829D01*
X134330104Y-102929829D02*
X134368199Y-102967924D01*
X134368199Y-102967924D02*
X134406294Y-103044115D01*
X134406294Y-103044115D02*
X134406294Y-103234591D01*
X134406294Y-103234591D02*
X134368199Y-103310781D01*
X134368199Y-103310781D02*
X134330104Y-103348877D01*
X134330104Y-103348877D02*
X134253913Y-103386972D01*
X134253913Y-103386972D02*
X134063437Y-103386972D01*
X134063437Y-103386972D02*
X133987247Y-103348877D01*
X133987247Y-103348877D02*
X133949151Y-103310781D01*
X172920818Y-79605094D02*
X171920818Y-79605094D01*
X171920818Y-79605094D02*
X171920818Y-79366999D01*
X171920818Y-79366999D02*
X171968437Y-79224142D01*
X171968437Y-79224142D02*
X172063675Y-79128904D01*
X172063675Y-79128904D02*
X172158913Y-79081285D01*
X172158913Y-79081285D02*
X172349389Y-79033666D01*
X172349389Y-79033666D02*
X172492246Y-79033666D01*
X172492246Y-79033666D02*
X172682722Y-79081285D01*
X172682722Y-79081285D02*
X172777960Y-79128904D01*
X172777960Y-79128904D02*
X172873199Y-79224142D01*
X172873199Y-79224142D02*
X172920818Y-79366999D01*
X172920818Y-79366999D02*
X172920818Y-79605094D01*
X172254151Y-78176523D02*
X172920818Y-78176523D01*
X171873199Y-78414618D02*
X172587484Y-78652713D01*
X172587484Y-78652713D02*
X172587484Y-78033666D01*
X132065832Y-74146580D02*
X132018213Y-74194200D01*
X132018213Y-74194200D02*
X131875356Y-74241819D01*
X131875356Y-74241819D02*
X131780118Y-74241819D01*
X131780118Y-74241819D02*
X131637261Y-74194200D01*
X131637261Y-74194200D02*
X131542023Y-74098961D01*
X131542023Y-74098961D02*
X131494404Y-74003723D01*
X131494404Y-74003723D02*
X131446785Y-73813247D01*
X131446785Y-73813247D02*
X131446785Y-73670390D01*
X131446785Y-73670390D02*
X131494404Y-73479914D01*
X131494404Y-73479914D02*
X131542023Y-73384676D01*
X131542023Y-73384676D02*
X131637261Y-73289438D01*
X131637261Y-73289438D02*
X131780118Y-73241819D01*
X131780118Y-73241819D02*
X131875356Y-73241819D01*
X131875356Y-73241819D02*
X132018213Y-73289438D01*
X132018213Y-73289438D02*
X132065832Y-73337057D01*
X133018213Y-74241819D02*
X132446785Y-74241819D01*
X132732499Y-74241819D02*
X132732499Y-73241819D01*
X132732499Y-73241819D02*
X132637261Y-73384676D01*
X132637261Y-73384676D02*
X132542023Y-73479914D01*
X132542023Y-73479914D02*
X132446785Y-73527533D01*
X149948824Y-107189314D02*
X150759845Y-107189314D01*
X150759845Y-107189314D02*
X150855259Y-107141607D01*
X150855259Y-107141607D02*
X150902967Y-107093900D01*
X150902967Y-107093900D02*
X150950674Y-106998485D01*
X150950674Y-106998485D02*
X150950674Y-106807657D01*
X150950674Y-106807657D02*
X150902967Y-106712242D01*
X150902967Y-106712242D02*
X150855259Y-106664535D01*
X150855259Y-106664535D02*
X150759845Y-106616828D01*
X150759845Y-106616828D02*
X149948824Y-106616828D01*
X150044238Y-106187464D02*
X149996531Y-106139757D01*
X149996531Y-106139757D02*
X149948824Y-106044343D01*
X149948824Y-106044343D02*
X149948824Y-105805807D01*
X149948824Y-105805807D02*
X149996531Y-105710393D01*
X149996531Y-105710393D02*
X150044238Y-105662685D01*
X150044238Y-105662685D02*
X150139652Y-105614978D01*
X150139652Y-105614978D02*
X150235067Y-105614978D01*
X150235067Y-105614978D02*
X150378188Y-105662685D01*
X150378188Y-105662685D02*
X150950674Y-106235171D01*
X150950674Y-106235171D02*
X150950674Y-105614978D01*
X130802141Y-70844580D02*
X130754522Y-70892200D01*
X130754522Y-70892200D02*
X130611665Y-70939819D01*
X130611665Y-70939819D02*
X130516427Y-70939819D01*
X130516427Y-70939819D02*
X130373570Y-70892200D01*
X130373570Y-70892200D02*
X130278332Y-70796961D01*
X130278332Y-70796961D02*
X130230713Y-70701723D01*
X130230713Y-70701723D02*
X130183094Y-70511247D01*
X130183094Y-70511247D02*
X130183094Y-70368390D01*
X130183094Y-70368390D02*
X130230713Y-70177914D01*
X130230713Y-70177914D02*
X130278332Y-70082676D01*
X130278332Y-70082676D02*
X130373570Y-69987438D01*
X130373570Y-69987438D02*
X130516427Y-69939819D01*
X130516427Y-69939819D02*
X130611665Y-69939819D01*
X130611665Y-69939819D02*
X130754522Y-69987438D01*
X130754522Y-69987438D02*
X130802141Y-70035057D01*
X131754522Y-70939819D02*
X131183094Y-70939819D01*
X131468808Y-70939819D02*
X131468808Y-69939819D01*
X131468808Y-69939819D02*
X131373570Y-70082676D01*
X131373570Y-70082676D02*
X131278332Y-70177914D01*
X131278332Y-70177914D02*
X131183094Y-70225533D01*
X132087856Y-69939819D02*
X132706903Y-69939819D01*
X132706903Y-69939819D02*
X132373570Y-70320771D01*
X132373570Y-70320771D02*
X132516427Y-70320771D01*
X132516427Y-70320771D02*
X132611665Y-70368390D01*
X132611665Y-70368390D02*
X132659284Y-70416009D01*
X132659284Y-70416009D02*
X132706903Y-70511247D01*
X132706903Y-70511247D02*
X132706903Y-70749342D01*
X132706903Y-70749342D02*
X132659284Y-70844580D01*
X132659284Y-70844580D02*
X132611665Y-70892200D01*
X132611665Y-70892200D02*
X132516427Y-70939819D01*
X132516427Y-70939819D02*
X132230713Y-70939819D01*
X132230713Y-70939819D02*
X132135475Y-70892200D01*
X132135475Y-70892200D02*
X132087856Y-70844580D01*
X131264818Y-92622666D02*
X130788627Y-92955999D01*
X131264818Y-93194094D02*
X130264818Y-93194094D01*
X130264818Y-93194094D02*
X130264818Y-92813142D01*
X130264818Y-92813142D02*
X130312437Y-92717904D01*
X130312437Y-92717904D02*
X130360056Y-92670285D01*
X130360056Y-92670285D02*
X130455294Y-92622666D01*
X130455294Y-92622666D02*
X130598151Y-92622666D01*
X130598151Y-92622666D02*
X130693389Y-92670285D01*
X130693389Y-92670285D02*
X130741008Y-92717904D01*
X130741008Y-92717904D02*
X130788627Y-92813142D01*
X130788627Y-92813142D02*
X130788627Y-93194094D01*
X130264818Y-91717904D02*
X130264818Y-92194094D01*
X130264818Y-92194094D02*
X130741008Y-92241713D01*
X130741008Y-92241713D02*
X130693389Y-92194094D01*
X130693389Y-92194094D02*
X130645770Y-92098856D01*
X130645770Y-92098856D02*
X130645770Y-91860761D01*
X130645770Y-91860761D02*
X130693389Y-91765523D01*
X130693389Y-91765523D02*
X130741008Y-91717904D01*
X130741008Y-91717904D02*
X130836246Y-91670285D01*
X130836246Y-91670285D02*
X131074341Y-91670285D01*
X131074341Y-91670285D02*
X131169579Y-91717904D01*
X131169579Y-91717904D02*
X131217199Y-91765523D01*
X131217199Y-91765523D02*
X131264818Y-91860761D01*
X131264818Y-91860761D02*
X131264818Y-92098856D01*
X131264818Y-92098856D02*
X131217199Y-92194094D01*
X131217199Y-92194094D02*
X131169579Y-92241713D01*
X138930142Y-103451819D02*
X138596809Y-102975628D01*
X138358714Y-103451819D02*
X138358714Y-102451819D01*
X138358714Y-102451819D02*
X138739666Y-102451819D01*
X138739666Y-102451819D02*
X138834904Y-102499438D01*
X138834904Y-102499438D02*
X138882523Y-102547057D01*
X138882523Y-102547057D02*
X138930142Y-102642295D01*
X138930142Y-102642295D02*
X138930142Y-102785152D01*
X138930142Y-102785152D02*
X138882523Y-102880390D01*
X138882523Y-102880390D02*
X138834904Y-102928009D01*
X138834904Y-102928009D02*
X138739666Y-102975628D01*
X138739666Y-102975628D02*
X138358714Y-102975628D01*
X139406333Y-103451819D02*
X139596809Y-103451819D01*
X139596809Y-103451819D02*
X139692047Y-103404200D01*
X139692047Y-103404200D02*
X139739666Y-103356580D01*
X139739666Y-103356580D02*
X139834904Y-103213723D01*
X139834904Y-103213723D02*
X139882523Y-103023247D01*
X139882523Y-103023247D02*
X139882523Y-102642295D01*
X139882523Y-102642295D02*
X139834904Y-102547057D01*
X139834904Y-102547057D02*
X139787285Y-102499438D01*
X139787285Y-102499438D02*
X139692047Y-102451819D01*
X139692047Y-102451819D02*
X139501571Y-102451819D01*
X139501571Y-102451819D02*
X139406333Y-102499438D01*
X139406333Y-102499438D02*
X139358714Y-102547057D01*
X139358714Y-102547057D02*
X139311095Y-102642295D01*
X139311095Y-102642295D02*
X139311095Y-102880390D01*
X139311095Y-102880390D02*
X139358714Y-102975628D01*
X139358714Y-102975628D02*
X139406333Y-103023247D01*
X139406333Y-103023247D02*
X139501571Y-103070866D01*
X139501571Y-103070866D02*
X139692047Y-103070866D01*
X139692047Y-103070866D02*
X139787285Y-103023247D01*
X139787285Y-103023247D02*
X139834904Y-102975628D01*
X139834904Y-102975628D02*
X139882523Y-102880390D01*
X137614818Y-98591666D02*
X137138627Y-98924999D01*
X137614818Y-99163094D02*
X136614818Y-99163094D01*
X136614818Y-99163094D02*
X136614818Y-98782142D01*
X136614818Y-98782142D02*
X136662437Y-98686904D01*
X136662437Y-98686904D02*
X136710056Y-98639285D01*
X136710056Y-98639285D02*
X136805294Y-98591666D01*
X136805294Y-98591666D02*
X136948151Y-98591666D01*
X136948151Y-98591666D02*
X137043389Y-98639285D01*
X137043389Y-98639285D02*
X137091008Y-98686904D01*
X137091008Y-98686904D02*
X137138627Y-98782142D01*
X137138627Y-98782142D02*
X137138627Y-99163094D01*
X136614818Y-97734523D02*
X136614818Y-97924999D01*
X136614818Y-97924999D02*
X136662437Y-98020237D01*
X136662437Y-98020237D02*
X136710056Y-98067856D01*
X136710056Y-98067856D02*
X136852913Y-98163094D01*
X136852913Y-98163094D02*
X137043389Y-98210713D01*
X137043389Y-98210713D02*
X137424341Y-98210713D01*
X137424341Y-98210713D02*
X137519579Y-98163094D01*
X137519579Y-98163094D02*
X137567199Y-98115475D01*
X137567199Y-98115475D02*
X137614818Y-98020237D01*
X137614818Y-98020237D02*
X137614818Y-97829761D01*
X137614818Y-97829761D02*
X137567199Y-97734523D01*
X137567199Y-97734523D02*
X137519579Y-97686904D01*
X137519579Y-97686904D02*
X137424341Y-97639285D01*
X137424341Y-97639285D02*
X137186246Y-97639285D01*
X137186246Y-97639285D02*
X137091008Y-97686904D01*
X137091008Y-97686904D02*
X137043389Y-97734523D01*
X137043389Y-97734523D02*
X136995770Y-97829761D01*
X136995770Y-97829761D02*
X136995770Y-98020237D01*
X136995770Y-98020237D02*
X137043389Y-98115475D01*
X137043389Y-98115475D02*
X137091008Y-98163094D01*
X137091008Y-98163094D02*
X137186246Y-98210713D01*
X153489818Y-113291857D02*
X153013627Y-113625190D01*
X153489818Y-113863285D02*
X152489818Y-113863285D01*
X152489818Y-113863285D02*
X152489818Y-113482333D01*
X152489818Y-113482333D02*
X152537437Y-113387095D01*
X152537437Y-113387095D02*
X152585056Y-113339476D01*
X152585056Y-113339476D02*
X152680294Y-113291857D01*
X152680294Y-113291857D02*
X152823151Y-113291857D01*
X152823151Y-113291857D02*
X152918389Y-113339476D01*
X152918389Y-113339476D02*
X152966008Y-113387095D01*
X152966008Y-113387095D02*
X153013627Y-113482333D01*
X153013627Y-113482333D02*
X153013627Y-113863285D01*
X153489818Y-112339476D02*
X153489818Y-112910904D01*
X153489818Y-112625190D02*
X152489818Y-112625190D01*
X152489818Y-112625190D02*
X152632675Y-112720428D01*
X152632675Y-112720428D02*
X152727913Y-112815666D01*
X152727913Y-112815666D02*
X152775532Y-112910904D01*
X152489818Y-112006142D02*
X152489818Y-111387095D01*
X152489818Y-111387095D02*
X152870770Y-111720428D01*
X152870770Y-111720428D02*
X152870770Y-111577571D01*
X152870770Y-111577571D02*
X152918389Y-111482333D01*
X152918389Y-111482333D02*
X152966008Y-111434714D01*
X152966008Y-111434714D02*
X153061246Y-111387095D01*
X153061246Y-111387095D02*
X153299341Y-111387095D01*
X153299341Y-111387095D02*
X153394579Y-111434714D01*
X153394579Y-111434714D02*
X153442199Y-111482333D01*
X153442199Y-111482333D02*
X153489818Y-111577571D01*
X153489818Y-111577571D02*
X153489818Y-111863285D01*
X153489818Y-111863285D02*
X153442199Y-111958523D01*
X153442199Y-111958523D02*
X153394579Y-112006142D01*
X159396579Y-81922857D02*
X159444199Y-81970476D01*
X159444199Y-81970476D02*
X159491818Y-82113333D01*
X159491818Y-82113333D02*
X159491818Y-82208571D01*
X159491818Y-82208571D02*
X159444199Y-82351428D01*
X159444199Y-82351428D02*
X159348960Y-82446666D01*
X159348960Y-82446666D02*
X159253722Y-82494285D01*
X159253722Y-82494285D02*
X159063246Y-82541904D01*
X159063246Y-82541904D02*
X158920389Y-82541904D01*
X158920389Y-82541904D02*
X158729913Y-82494285D01*
X158729913Y-82494285D02*
X158634675Y-82446666D01*
X158634675Y-82446666D02*
X158539437Y-82351428D01*
X158539437Y-82351428D02*
X158491818Y-82208571D01*
X158491818Y-82208571D02*
X158491818Y-82113333D01*
X158491818Y-82113333D02*
X158539437Y-81970476D01*
X158539437Y-81970476D02*
X158587056Y-81922857D01*
X159491818Y-80970476D02*
X159491818Y-81541904D01*
X159491818Y-81256190D02*
X158491818Y-81256190D01*
X158491818Y-81256190D02*
X158634675Y-81351428D01*
X158634675Y-81351428D02*
X158729913Y-81446666D01*
X158729913Y-81446666D02*
X158777532Y-81541904D01*
X158920389Y-80399047D02*
X158872770Y-80494285D01*
X158872770Y-80494285D02*
X158825151Y-80541904D01*
X158825151Y-80541904D02*
X158729913Y-80589523D01*
X158729913Y-80589523D02*
X158682294Y-80589523D01*
X158682294Y-80589523D02*
X158587056Y-80541904D01*
X158587056Y-80541904D02*
X158539437Y-80494285D01*
X158539437Y-80494285D02*
X158491818Y-80399047D01*
X158491818Y-80399047D02*
X158491818Y-80208571D01*
X158491818Y-80208571D02*
X158539437Y-80113333D01*
X158539437Y-80113333D02*
X158587056Y-80065714D01*
X158587056Y-80065714D02*
X158682294Y-80018095D01*
X158682294Y-80018095D02*
X158729913Y-80018095D01*
X158729913Y-80018095D02*
X158825151Y-80065714D01*
X158825151Y-80065714D02*
X158872770Y-80113333D01*
X158872770Y-80113333D02*
X158920389Y-80208571D01*
X158920389Y-80208571D02*
X158920389Y-80399047D01*
X158920389Y-80399047D02*
X158968008Y-80494285D01*
X158968008Y-80494285D02*
X159015627Y-80541904D01*
X159015627Y-80541904D02*
X159110865Y-80589523D01*
X159110865Y-80589523D02*
X159301341Y-80589523D01*
X159301341Y-80589523D02*
X159396579Y-80541904D01*
X159396579Y-80541904D02*
X159444199Y-80494285D01*
X159444199Y-80494285D02*
X159491818Y-80399047D01*
X159491818Y-80399047D02*
X159491818Y-80208571D01*
X159491818Y-80208571D02*
X159444199Y-80113333D01*
X159444199Y-80113333D02*
X159396579Y-80065714D01*
X159396579Y-80065714D02*
X159301341Y-80018095D01*
X159301341Y-80018095D02*
X159110865Y-80018095D01*
X159110865Y-80018095D02*
X159015627Y-80065714D01*
X159015627Y-80065714D02*
X158968008Y-80113333D01*
X158968008Y-80113333D02*
X158920389Y-80208571D01*
X147519579Y-81287857D02*
X147567199Y-81335476D01*
X147567199Y-81335476D02*
X147614818Y-81478333D01*
X147614818Y-81478333D02*
X147614818Y-81573571D01*
X147614818Y-81573571D02*
X147567199Y-81716428D01*
X147567199Y-81716428D02*
X147471960Y-81811666D01*
X147471960Y-81811666D02*
X147376722Y-81859285D01*
X147376722Y-81859285D02*
X147186246Y-81906904D01*
X147186246Y-81906904D02*
X147043389Y-81906904D01*
X147043389Y-81906904D02*
X146852913Y-81859285D01*
X146852913Y-81859285D02*
X146757675Y-81811666D01*
X146757675Y-81811666D02*
X146662437Y-81716428D01*
X146662437Y-81716428D02*
X146614818Y-81573571D01*
X146614818Y-81573571D02*
X146614818Y-81478333D01*
X146614818Y-81478333D02*
X146662437Y-81335476D01*
X146662437Y-81335476D02*
X146710056Y-81287857D01*
X147614818Y-80335476D02*
X147614818Y-80906904D01*
X147614818Y-80621190D02*
X146614818Y-80621190D01*
X146614818Y-80621190D02*
X146757675Y-80716428D01*
X146757675Y-80716428D02*
X146852913Y-80811666D01*
X146852913Y-80811666D02*
X146900532Y-80906904D01*
X146614818Y-80002142D02*
X146614818Y-79335476D01*
X146614818Y-79335476D02*
X147614818Y-79764047D01*
X144093132Y-97553580D02*
X144045513Y-97601200D01*
X144045513Y-97601200D02*
X143902656Y-97648819D01*
X143902656Y-97648819D02*
X143807418Y-97648819D01*
X143807418Y-97648819D02*
X143664561Y-97601200D01*
X143664561Y-97601200D02*
X143569323Y-97505961D01*
X143569323Y-97505961D02*
X143521704Y-97410723D01*
X143521704Y-97410723D02*
X143474085Y-97220247D01*
X143474085Y-97220247D02*
X143474085Y-97077390D01*
X143474085Y-97077390D02*
X143521704Y-96886914D01*
X143521704Y-96886914D02*
X143569323Y-96791676D01*
X143569323Y-96791676D02*
X143664561Y-96696438D01*
X143664561Y-96696438D02*
X143807418Y-96648819D01*
X143807418Y-96648819D02*
X143902656Y-96648819D01*
X143902656Y-96648819D02*
X144045513Y-96696438D01*
X144045513Y-96696438D02*
X144093132Y-96744057D01*
X144664561Y-97077390D02*
X144569323Y-97029771D01*
X144569323Y-97029771D02*
X144521704Y-96982152D01*
X144521704Y-96982152D02*
X144474085Y-96886914D01*
X144474085Y-96886914D02*
X144474085Y-96839295D01*
X144474085Y-96839295D02*
X144521704Y-96744057D01*
X144521704Y-96744057D02*
X144569323Y-96696438D01*
X144569323Y-96696438D02*
X144664561Y-96648819D01*
X144664561Y-96648819D02*
X144855037Y-96648819D01*
X144855037Y-96648819D02*
X144950275Y-96696438D01*
X144950275Y-96696438D02*
X144997894Y-96744057D01*
X144997894Y-96744057D02*
X145045513Y-96839295D01*
X145045513Y-96839295D02*
X145045513Y-96886914D01*
X145045513Y-96886914D02*
X144997894Y-96982152D01*
X144997894Y-96982152D02*
X144950275Y-97029771D01*
X144950275Y-97029771D02*
X144855037Y-97077390D01*
X144855037Y-97077390D02*
X144664561Y-97077390D01*
X144664561Y-97077390D02*
X144569323Y-97125009D01*
X144569323Y-97125009D02*
X144521704Y-97172628D01*
X144521704Y-97172628D02*
X144474085Y-97267866D01*
X144474085Y-97267866D02*
X144474085Y-97458342D01*
X144474085Y-97458342D02*
X144521704Y-97553580D01*
X144521704Y-97553580D02*
X144569323Y-97601200D01*
X144569323Y-97601200D02*
X144664561Y-97648819D01*
X144664561Y-97648819D02*
X144855037Y-97648819D01*
X144855037Y-97648819D02*
X144950275Y-97601200D01*
X144950275Y-97601200D02*
X144997894Y-97553580D01*
X144997894Y-97553580D02*
X145045513Y-97458342D01*
X145045513Y-97458342D02*
X145045513Y-97267866D01*
X145045513Y-97267866D02*
X144997894Y-97172628D01*
X144997894Y-97172628D02*
X144950275Y-97125009D01*
X144950275Y-97125009D02*
X144855037Y-97077390D01*
X140581141Y-83671580D02*
X140533522Y-83719200D01*
X140533522Y-83719200D02*
X140390665Y-83766819D01*
X140390665Y-83766819D02*
X140295427Y-83766819D01*
X140295427Y-83766819D02*
X140152570Y-83719200D01*
X140152570Y-83719200D02*
X140057332Y-83623961D01*
X140057332Y-83623961D02*
X140009713Y-83528723D01*
X140009713Y-83528723D02*
X139962094Y-83338247D01*
X139962094Y-83338247D02*
X139962094Y-83195390D01*
X139962094Y-83195390D02*
X140009713Y-83004914D01*
X140009713Y-83004914D02*
X140057332Y-82909676D01*
X140057332Y-82909676D02*
X140152570Y-82814438D01*
X140152570Y-82814438D02*
X140295427Y-82766819D01*
X140295427Y-82766819D02*
X140390665Y-82766819D01*
X140390665Y-82766819D02*
X140533522Y-82814438D01*
X140533522Y-82814438D02*
X140581141Y-82862057D01*
X141533522Y-83766819D02*
X140962094Y-83766819D01*
X141247808Y-83766819D02*
X141247808Y-82766819D01*
X141247808Y-82766819D02*
X141152570Y-82909676D01*
X141152570Y-82909676D02*
X141057332Y-83004914D01*
X141057332Y-83004914D02*
X140962094Y-83052533D01*
X142390665Y-83100152D02*
X142390665Y-83766819D01*
X142152570Y-82719200D02*
X141914475Y-83433485D01*
X141914475Y-83433485D02*
X142533522Y-83433485D01*
X172920818Y-77446094D02*
X171920818Y-77446094D01*
X171920818Y-77446094D02*
X171920818Y-77207999D01*
X171920818Y-77207999D02*
X171968437Y-77065142D01*
X171968437Y-77065142D02*
X172063675Y-76969904D01*
X172063675Y-76969904D02*
X172158913Y-76922285D01*
X172158913Y-76922285D02*
X172349389Y-76874666D01*
X172349389Y-76874666D02*
X172492246Y-76874666D01*
X172492246Y-76874666D02*
X172682722Y-76922285D01*
X172682722Y-76922285D02*
X172777960Y-76969904D01*
X172777960Y-76969904D02*
X172873199Y-77065142D01*
X172873199Y-77065142D02*
X172920818Y-77207999D01*
X172920818Y-77207999D02*
X172920818Y-77446094D01*
X171920818Y-76541332D02*
X171920818Y-75922285D01*
X171920818Y-75922285D02*
X172301770Y-76255618D01*
X172301770Y-76255618D02*
X172301770Y-76112761D01*
X172301770Y-76112761D02*
X172349389Y-76017523D01*
X172349389Y-76017523D02*
X172397008Y-75969904D01*
X172397008Y-75969904D02*
X172492246Y-75922285D01*
X172492246Y-75922285D02*
X172730341Y-75922285D01*
X172730341Y-75922285D02*
X172825579Y-75969904D01*
X172825579Y-75969904D02*
X172873199Y-76017523D01*
X172873199Y-76017523D02*
X172920818Y-76112761D01*
X172920818Y-76112761D02*
X172920818Y-76398475D01*
X172920818Y-76398475D02*
X172873199Y-76493713D01*
X172873199Y-76493713D02*
X172825579Y-76541332D01*
X166108141Y-80718819D02*
X165774808Y-80242628D01*
X165536713Y-80718819D02*
X165536713Y-79718819D01*
X165536713Y-79718819D02*
X165917665Y-79718819D01*
X165917665Y-79718819D02*
X166012903Y-79766438D01*
X166012903Y-79766438D02*
X166060522Y-79814057D01*
X166060522Y-79814057D02*
X166108141Y-79909295D01*
X166108141Y-79909295D02*
X166108141Y-80052152D01*
X166108141Y-80052152D02*
X166060522Y-80147390D01*
X166060522Y-80147390D02*
X166012903Y-80195009D01*
X166012903Y-80195009D02*
X165917665Y-80242628D01*
X165917665Y-80242628D02*
X165536713Y-80242628D01*
X166489094Y-79814057D02*
X166536713Y-79766438D01*
X166536713Y-79766438D02*
X166631951Y-79718819D01*
X166631951Y-79718819D02*
X166870046Y-79718819D01*
X166870046Y-79718819D02*
X166965284Y-79766438D01*
X166965284Y-79766438D02*
X167012903Y-79814057D01*
X167012903Y-79814057D02*
X167060522Y-79909295D01*
X167060522Y-79909295D02*
X167060522Y-80004533D01*
X167060522Y-80004533D02*
X167012903Y-80147390D01*
X167012903Y-80147390D02*
X166441475Y-80718819D01*
X166441475Y-80718819D02*
X167060522Y-80718819D01*
X167393856Y-79718819D02*
X168060522Y-79718819D01*
X168060522Y-79718819D02*
X167631951Y-80718819D01*
X161141579Y-103004857D02*
X161189199Y-103052476D01*
X161189199Y-103052476D02*
X161236818Y-103195333D01*
X161236818Y-103195333D02*
X161236818Y-103290571D01*
X161236818Y-103290571D02*
X161189199Y-103433428D01*
X161189199Y-103433428D02*
X161093960Y-103528666D01*
X161093960Y-103528666D02*
X160998722Y-103576285D01*
X160998722Y-103576285D02*
X160808246Y-103623904D01*
X160808246Y-103623904D02*
X160665389Y-103623904D01*
X160665389Y-103623904D02*
X160474913Y-103576285D01*
X160474913Y-103576285D02*
X160379675Y-103528666D01*
X160379675Y-103528666D02*
X160284437Y-103433428D01*
X160284437Y-103433428D02*
X160236818Y-103290571D01*
X160236818Y-103290571D02*
X160236818Y-103195333D01*
X160236818Y-103195333D02*
X160284437Y-103052476D01*
X160284437Y-103052476D02*
X160332056Y-103004857D01*
X161236818Y-102052476D02*
X161236818Y-102623904D01*
X161236818Y-102338190D02*
X160236818Y-102338190D01*
X160236818Y-102338190D02*
X160379675Y-102433428D01*
X160379675Y-102433428D02*
X160474913Y-102528666D01*
X160474913Y-102528666D02*
X160522532Y-102623904D01*
X160332056Y-101671523D02*
X160284437Y-101623904D01*
X160284437Y-101623904D02*
X160236818Y-101528666D01*
X160236818Y-101528666D02*
X160236818Y-101290571D01*
X160236818Y-101290571D02*
X160284437Y-101195333D01*
X160284437Y-101195333D02*
X160332056Y-101147714D01*
X160332056Y-101147714D02*
X160427294Y-101100095D01*
X160427294Y-101100095D02*
X160522532Y-101100095D01*
X160522532Y-101100095D02*
X160665389Y-101147714D01*
X160665389Y-101147714D02*
X161236818Y-101719142D01*
X161236818Y-101719142D02*
X161236818Y-101100095D01*
X169777579Y-103004857D02*
X169825199Y-103052476D01*
X169825199Y-103052476D02*
X169872818Y-103195333D01*
X169872818Y-103195333D02*
X169872818Y-103290571D01*
X169872818Y-103290571D02*
X169825199Y-103433428D01*
X169825199Y-103433428D02*
X169729960Y-103528666D01*
X169729960Y-103528666D02*
X169634722Y-103576285D01*
X169634722Y-103576285D02*
X169444246Y-103623904D01*
X169444246Y-103623904D02*
X169301389Y-103623904D01*
X169301389Y-103623904D02*
X169110913Y-103576285D01*
X169110913Y-103576285D02*
X169015675Y-103528666D01*
X169015675Y-103528666D02*
X168920437Y-103433428D01*
X168920437Y-103433428D02*
X168872818Y-103290571D01*
X168872818Y-103290571D02*
X168872818Y-103195333D01*
X168872818Y-103195333D02*
X168920437Y-103052476D01*
X168920437Y-103052476D02*
X168968056Y-103004857D01*
X169872818Y-102052476D02*
X169872818Y-102623904D01*
X169872818Y-102338190D02*
X168872818Y-102338190D01*
X168872818Y-102338190D02*
X169015675Y-102433428D01*
X169015675Y-102433428D02*
X169110913Y-102528666D01*
X169110913Y-102528666D02*
X169158532Y-102623904D01*
X169872818Y-101576285D02*
X169872818Y-101385809D01*
X169872818Y-101385809D02*
X169825199Y-101290571D01*
X169825199Y-101290571D02*
X169777579Y-101242952D01*
X169777579Y-101242952D02*
X169634722Y-101147714D01*
X169634722Y-101147714D02*
X169444246Y-101100095D01*
X169444246Y-101100095D02*
X169063294Y-101100095D01*
X169063294Y-101100095D02*
X168968056Y-101147714D01*
X168968056Y-101147714D02*
X168920437Y-101195333D01*
X168920437Y-101195333D02*
X168872818Y-101290571D01*
X168872818Y-101290571D02*
X168872818Y-101481047D01*
X168872818Y-101481047D02*
X168920437Y-101576285D01*
X168920437Y-101576285D02*
X168968056Y-101623904D01*
X168968056Y-101623904D02*
X169063294Y-101671523D01*
X169063294Y-101671523D02*
X169301389Y-101671523D01*
X169301389Y-101671523D02*
X169396627Y-101623904D01*
X169396627Y-101623904D02*
X169444246Y-101576285D01*
X169444246Y-101576285D02*
X169491865Y-101481047D01*
X169491865Y-101481047D02*
X169491865Y-101290571D01*
X169491865Y-101290571D02*
X169444246Y-101195333D01*
X169444246Y-101195333D02*
X169396627Y-101147714D01*
X169396627Y-101147714D02*
X169301389Y-101100095D01*
X157371142Y-73750715D02*
X157117142Y-73387858D01*
X156935713Y-73750715D02*
X156935713Y-72988715D01*
X156935713Y-72988715D02*
X157225999Y-72988715D01*
X157225999Y-72988715D02*
X157298570Y-73025001D01*
X157298570Y-73025001D02*
X157334856Y-73061287D01*
X157334856Y-73061287D02*
X157371142Y-73133858D01*
X157371142Y-73133858D02*
X157371142Y-73242715D01*
X157371142Y-73242715D02*
X157334856Y-73315287D01*
X157334856Y-73315287D02*
X157298570Y-73351572D01*
X157298570Y-73351572D02*
X157225999Y-73387858D01*
X157225999Y-73387858D02*
X156935713Y-73387858D01*
X157661427Y-73061287D02*
X157697713Y-73025001D01*
X157697713Y-73025001D02*
X157770285Y-72988715D01*
X157770285Y-72988715D02*
X157951713Y-72988715D01*
X157951713Y-72988715D02*
X158024285Y-73025001D01*
X158024285Y-73025001D02*
X158060570Y-73061287D01*
X158060570Y-73061287D02*
X158096856Y-73133858D01*
X158096856Y-73133858D02*
X158096856Y-73206430D01*
X158096856Y-73206430D02*
X158060570Y-73315287D01*
X158060570Y-73315287D02*
X157625142Y-73750715D01*
X157625142Y-73750715D02*
X158096856Y-73750715D01*
X158459713Y-73750715D02*
X158604856Y-73750715D01*
X158604856Y-73750715D02*
X158677427Y-73714430D01*
X158677427Y-73714430D02*
X158713713Y-73678144D01*
X158713713Y-73678144D02*
X158786284Y-73569287D01*
X158786284Y-73569287D02*
X158822570Y-73424144D01*
X158822570Y-73424144D02*
X158822570Y-73133858D01*
X158822570Y-73133858D02*
X158786284Y-73061287D01*
X158786284Y-73061287D02*
X158749999Y-73025001D01*
X158749999Y-73025001D02*
X158677427Y-72988715D01*
X158677427Y-72988715D02*
X158532284Y-72988715D01*
X158532284Y-72988715D02*
X158459713Y-73025001D01*
X158459713Y-73025001D02*
X158423427Y-73061287D01*
X158423427Y-73061287D02*
X158387141Y-73133858D01*
X158387141Y-73133858D02*
X158387141Y-73315287D01*
X158387141Y-73315287D02*
X158423427Y-73387858D01*
X158423427Y-73387858D02*
X158459713Y-73424144D01*
X158459713Y-73424144D02*
X158532284Y-73460430D01*
X158532284Y-73460430D02*
X158677427Y-73460430D01*
X158677427Y-73460430D02*
X158749999Y-73424144D01*
X158749999Y-73424144D02*
X158786284Y-73387858D01*
X158786284Y-73387858D02*
X158822570Y-73315287D01*
X150441818Y-113291857D02*
X149965627Y-113625190D01*
X150441818Y-113863285D02*
X149441818Y-113863285D01*
X149441818Y-113863285D02*
X149441818Y-113482333D01*
X149441818Y-113482333D02*
X149489437Y-113387095D01*
X149489437Y-113387095D02*
X149537056Y-113339476D01*
X149537056Y-113339476D02*
X149632294Y-113291857D01*
X149632294Y-113291857D02*
X149775151Y-113291857D01*
X149775151Y-113291857D02*
X149870389Y-113339476D01*
X149870389Y-113339476D02*
X149918008Y-113387095D01*
X149918008Y-113387095D02*
X149965627Y-113482333D01*
X149965627Y-113482333D02*
X149965627Y-113863285D01*
X150441818Y-112339476D02*
X150441818Y-112910904D01*
X150441818Y-112625190D02*
X149441818Y-112625190D01*
X149441818Y-112625190D02*
X149584675Y-112720428D01*
X149584675Y-112720428D02*
X149679913Y-112815666D01*
X149679913Y-112815666D02*
X149727532Y-112910904D01*
X149775151Y-111482333D02*
X150441818Y-111482333D01*
X149394199Y-111720428D02*
X150108484Y-111958523D01*
X150108484Y-111958523D02*
X150108484Y-111339476D01*
X138930141Y-100308580D02*
X138882522Y-100356200D01*
X138882522Y-100356200D02*
X138739665Y-100403819D01*
X138739665Y-100403819D02*
X138644427Y-100403819D01*
X138644427Y-100403819D02*
X138501570Y-100356200D01*
X138501570Y-100356200D02*
X138406332Y-100260961D01*
X138406332Y-100260961D02*
X138358713Y-100165723D01*
X138358713Y-100165723D02*
X138311094Y-99975247D01*
X138311094Y-99975247D02*
X138311094Y-99832390D01*
X138311094Y-99832390D02*
X138358713Y-99641914D01*
X138358713Y-99641914D02*
X138406332Y-99546676D01*
X138406332Y-99546676D02*
X138501570Y-99451438D01*
X138501570Y-99451438D02*
X138644427Y-99403819D01*
X138644427Y-99403819D02*
X138739665Y-99403819D01*
X138739665Y-99403819D02*
X138882522Y-99451438D01*
X138882522Y-99451438D02*
X138930141Y-99499057D01*
X139882522Y-100403819D02*
X139311094Y-100403819D01*
X139596808Y-100403819D02*
X139596808Y-99403819D01*
X139596808Y-99403819D02*
X139501570Y-99546676D01*
X139501570Y-99546676D02*
X139406332Y-99641914D01*
X139406332Y-99641914D02*
X139311094Y-99689533D01*
X140501570Y-99403819D02*
X140596808Y-99403819D01*
X140596808Y-99403819D02*
X140692046Y-99451438D01*
X140692046Y-99451438D02*
X140739665Y-99499057D01*
X140739665Y-99499057D02*
X140787284Y-99594295D01*
X140787284Y-99594295D02*
X140834903Y-99784771D01*
X140834903Y-99784771D02*
X140834903Y-100022866D01*
X140834903Y-100022866D02*
X140787284Y-100213342D01*
X140787284Y-100213342D02*
X140739665Y-100308580D01*
X140739665Y-100308580D02*
X140692046Y-100356200D01*
X140692046Y-100356200D02*
X140596808Y-100403819D01*
X140596808Y-100403819D02*
X140501570Y-100403819D01*
X140501570Y-100403819D02*
X140406332Y-100356200D01*
X140406332Y-100356200D02*
X140358713Y-100308580D01*
X140358713Y-100308580D02*
X140311094Y-100213342D01*
X140311094Y-100213342D02*
X140263475Y-100022866D01*
X140263475Y-100022866D02*
X140263475Y-99784771D01*
X140263475Y-99784771D02*
X140311094Y-99594295D01*
X140311094Y-99594295D02*
X140358713Y-99499057D01*
X140358713Y-99499057D02*
X140406332Y-99451438D01*
X140406332Y-99451438D02*
X140501570Y-99403819D01*
X165346141Y-98022580D02*
X165298522Y-98070200D01*
X165298522Y-98070200D02*
X165155665Y-98117819D01*
X165155665Y-98117819D02*
X165060427Y-98117819D01*
X165060427Y-98117819D02*
X164917570Y-98070200D01*
X164917570Y-98070200D02*
X164822332Y-97974961D01*
X164822332Y-97974961D02*
X164774713Y-97879723D01*
X164774713Y-97879723D02*
X164727094Y-97689247D01*
X164727094Y-97689247D02*
X164727094Y-97546390D01*
X164727094Y-97546390D02*
X164774713Y-97355914D01*
X164774713Y-97355914D02*
X164822332Y-97260676D01*
X164822332Y-97260676D02*
X164917570Y-97165438D01*
X164917570Y-97165438D02*
X165060427Y-97117819D01*
X165060427Y-97117819D02*
X165155665Y-97117819D01*
X165155665Y-97117819D02*
X165298522Y-97165438D01*
X165298522Y-97165438D02*
X165346141Y-97213057D01*
X165727094Y-97213057D02*
X165774713Y-97165438D01*
X165774713Y-97165438D02*
X165869951Y-97117819D01*
X165869951Y-97117819D02*
X166108046Y-97117819D01*
X166108046Y-97117819D02*
X166203284Y-97165438D01*
X166203284Y-97165438D02*
X166250903Y-97213057D01*
X166250903Y-97213057D02*
X166298522Y-97308295D01*
X166298522Y-97308295D02*
X166298522Y-97403533D01*
X166298522Y-97403533D02*
X166250903Y-97546390D01*
X166250903Y-97546390D02*
X165679475Y-98117819D01*
X165679475Y-98117819D02*
X166298522Y-98117819D01*
X166631856Y-97117819D02*
X167250903Y-97117819D01*
X167250903Y-97117819D02*
X166917570Y-97498771D01*
X166917570Y-97498771D02*
X167060427Y-97498771D01*
X167060427Y-97498771D02*
X167155665Y-97546390D01*
X167155665Y-97546390D02*
X167203284Y-97594009D01*
X167203284Y-97594009D02*
X167250903Y-97689247D01*
X167250903Y-97689247D02*
X167250903Y-97927342D01*
X167250903Y-97927342D02*
X167203284Y-98022580D01*
X167203284Y-98022580D02*
X167155665Y-98070200D01*
X167155665Y-98070200D02*
X167060427Y-98117819D01*
X167060427Y-98117819D02*
X166774713Y-98117819D01*
X166774713Y-98117819D02*
X166679475Y-98070200D01*
X166679475Y-98070200D02*
X166631856Y-98022580D01*
X132040332Y-89132580D02*
X131992713Y-89180200D01*
X131992713Y-89180200D02*
X131849856Y-89227819D01*
X131849856Y-89227819D02*
X131754618Y-89227819D01*
X131754618Y-89227819D02*
X131611761Y-89180200D01*
X131611761Y-89180200D02*
X131516523Y-89084961D01*
X131516523Y-89084961D02*
X131468904Y-88989723D01*
X131468904Y-88989723D02*
X131421285Y-88799247D01*
X131421285Y-88799247D02*
X131421285Y-88656390D01*
X131421285Y-88656390D02*
X131468904Y-88465914D01*
X131468904Y-88465914D02*
X131516523Y-88370676D01*
X131516523Y-88370676D02*
X131611761Y-88275438D01*
X131611761Y-88275438D02*
X131754618Y-88227819D01*
X131754618Y-88227819D02*
X131849856Y-88227819D01*
X131849856Y-88227819D02*
X131992713Y-88275438D01*
X131992713Y-88275438D02*
X132040332Y-88323057D01*
X132897475Y-88227819D02*
X132706999Y-88227819D01*
X132706999Y-88227819D02*
X132611761Y-88275438D01*
X132611761Y-88275438D02*
X132564142Y-88323057D01*
X132564142Y-88323057D02*
X132468904Y-88465914D01*
X132468904Y-88465914D02*
X132421285Y-88656390D01*
X132421285Y-88656390D02*
X132421285Y-89037342D01*
X132421285Y-89037342D02*
X132468904Y-89132580D01*
X132468904Y-89132580D02*
X132516523Y-89180200D01*
X132516523Y-89180200D02*
X132611761Y-89227819D01*
X132611761Y-89227819D02*
X132802237Y-89227819D01*
X132802237Y-89227819D02*
X132897475Y-89180200D01*
X132897475Y-89180200D02*
X132945094Y-89132580D01*
X132945094Y-89132580D02*
X132992713Y-89037342D01*
X132992713Y-89037342D02*
X132992713Y-88799247D01*
X132992713Y-88799247D02*
X132945094Y-88704009D01*
X132945094Y-88704009D02*
X132897475Y-88656390D01*
X132897475Y-88656390D02*
X132802237Y-88608771D01*
X132802237Y-88608771D02*
X132611761Y-88608771D01*
X132611761Y-88608771D02*
X132516523Y-88656390D01*
X132516523Y-88656390D02*
X132468904Y-88704009D01*
X132468904Y-88704009D02*
X132421285Y-88799247D01*
X160520141Y-77924819D02*
X160186808Y-77448628D01*
X159948713Y-77924819D02*
X159948713Y-76924819D01*
X159948713Y-76924819D02*
X160329665Y-76924819D01*
X160329665Y-76924819D02*
X160424903Y-76972438D01*
X160424903Y-76972438D02*
X160472522Y-77020057D01*
X160472522Y-77020057D02*
X160520141Y-77115295D01*
X160520141Y-77115295D02*
X160520141Y-77258152D01*
X160520141Y-77258152D02*
X160472522Y-77353390D01*
X160472522Y-77353390D02*
X160424903Y-77401009D01*
X160424903Y-77401009D02*
X160329665Y-77448628D01*
X160329665Y-77448628D02*
X159948713Y-77448628D01*
X160901094Y-77020057D02*
X160948713Y-76972438D01*
X160948713Y-76972438D02*
X161043951Y-76924819D01*
X161043951Y-76924819D02*
X161282046Y-76924819D01*
X161282046Y-76924819D02*
X161377284Y-76972438D01*
X161377284Y-76972438D02*
X161424903Y-77020057D01*
X161424903Y-77020057D02*
X161472522Y-77115295D01*
X161472522Y-77115295D02*
X161472522Y-77210533D01*
X161472522Y-77210533D02*
X161424903Y-77353390D01*
X161424903Y-77353390D02*
X160853475Y-77924819D01*
X160853475Y-77924819D02*
X161472522Y-77924819D01*
X162329665Y-77258152D02*
X162329665Y-77924819D01*
X162091570Y-76877200D02*
X161853475Y-77591485D01*
X161853475Y-77591485D02*
X162472522Y-77591485D01*
X167618579Y-87510857D02*
X167666199Y-87558476D01*
X167666199Y-87558476D02*
X167713818Y-87701333D01*
X167713818Y-87701333D02*
X167713818Y-87796571D01*
X167713818Y-87796571D02*
X167666199Y-87939428D01*
X167666199Y-87939428D02*
X167570960Y-88034666D01*
X167570960Y-88034666D02*
X167475722Y-88082285D01*
X167475722Y-88082285D02*
X167285246Y-88129904D01*
X167285246Y-88129904D02*
X167142389Y-88129904D01*
X167142389Y-88129904D02*
X166951913Y-88082285D01*
X166951913Y-88082285D02*
X166856675Y-88034666D01*
X166856675Y-88034666D02*
X166761437Y-87939428D01*
X166761437Y-87939428D02*
X166713818Y-87796571D01*
X166713818Y-87796571D02*
X166713818Y-87701333D01*
X166713818Y-87701333D02*
X166761437Y-87558476D01*
X166761437Y-87558476D02*
X166809056Y-87510857D01*
X166809056Y-87129904D02*
X166761437Y-87082285D01*
X166761437Y-87082285D02*
X166713818Y-86987047D01*
X166713818Y-86987047D02*
X166713818Y-86748952D01*
X166713818Y-86748952D02*
X166761437Y-86653714D01*
X166761437Y-86653714D02*
X166809056Y-86606095D01*
X166809056Y-86606095D02*
X166904294Y-86558476D01*
X166904294Y-86558476D02*
X166999532Y-86558476D01*
X166999532Y-86558476D02*
X167142389Y-86606095D01*
X167142389Y-86606095D02*
X167713818Y-87177523D01*
X167713818Y-87177523D02*
X167713818Y-86558476D01*
X167713818Y-85606095D02*
X167713818Y-86177523D01*
X167713818Y-85891809D02*
X166713818Y-85891809D01*
X166713818Y-85891809D02*
X166856675Y-85987047D01*
X166856675Y-85987047D02*
X166951913Y-86082285D01*
X166951913Y-86082285D02*
X166999532Y-86177523D01*
X129613818Y-78716094D02*
X128613818Y-78716094D01*
X128613818Y-78716094D02*
X128613818Y-78477999D01*
X128613818Y-78477999D02*
X128661437Y-78335142D01*
X128661437Y-78335142D02*
X128756675Y-78239904D01*
X128756675Y-78239904D02*
X128851913Y-78192285D01*
X128851913Y-78192285D02*
X129042389Y-78144666D01*
X129042389Y-78144666D02*
X129185246Y-78144666D01*
X129185246Y-78144666D02*
X129375722Y-78192285D01*
X129375722Y-78192285D02*
X129470960Y-78239904D01*
X129470960Y-78239904D02*
X129566199Y-78335142D01*
X129566199Y-78335142D02*
X129613818Y-78477999D01*
X129613818Y-78477999D02*
X129613818Y-78716094D01*
X129613818Y-77192285D02*
X129613818Y-77763713D01*
X129613818Y-77477999D02*
X128613818Y-77477999D01*
X128613818Y-77477999D02*
X128756675Y-77573237D01*
X128756675Y-77573237D02*
X128851913Y-77668475D01*
X128851913Y-77668475D02*
X128899532Y-77763713D01*
X158585818Y-100329904D02*
X159395341Y-100329904D01*
X159395341Y-100329904D02*
X159490579Y-100282285D01*
X159490579Y-100282285D02*
X159538199Y-100234666D01*
X159538199Y-100234666D02*
X159585818Y-100139428D01*
X159585818Y-100139428D02*
X159585818Y-99948952D01*
X159585818Y-99948952D02*
X159538199Y-99853714D01*
X159538199Y-99853714D02*
X159490579Y-99806095D01*
X159490579Y-99806095D02*
X159395341Y-99758476D01*
X159395341Y-99758476D02*
X158585818Y-99758476D01*
X158585818Y-98853714D02*
X158585818Y-99044190D01*
X158585818Y-99044190D02*
X158633437Y-99139428D01*
X158633437Y-99139428D02*
X158681056Y-99187047D01*
X158681056Y-99187047D02*
X158823913Y-99282285D01*
X158823913Y-99282285D02*
X159014389Y-99329904D01*
X159014389Y-99329904D02*
X159395341Y-99329904D01*
X159395341Y-99329904D02*
X159490579Y-99282285D01*
X159490579Y-99282285D02*
X159538199Y-99234666D01*
X159538199Y-99234666D02*
X159585818Y-99139428D01*
X159585818Y-99139428D02*
X159585818Y-98948952D01*
X159585818Y-98948952D02*
X159538199Y-98853714D01*
X159538199Y-98853714D02*
X159490579Y-98806095D01*
X159490579Y-98806095D02*
X159395341Y-98758476D01*
X159395341Y-98758476D02*
X159157246Y-98758476D01*
X159157246Y-98758476D02*
X159062008Y-98806095D01*
X159062008Y-98806095D02*
X159014389Y-98853714D01*
X159014389Y-98853714D02*
X158966770Y-98948952D01*
X158966770Y-98948952D02*
X158966770Y-99139428D01*
X158966770Y-99139428D02*
X159014389Y-99234666D01*
X159014389Y-99234666D02*
X159062008Y-99282285D01*
X159062008Y-99282285D02*
X159157246Y-99329904D01*
X143502141Y-83512819D02*
X143168808Y-83036628D01*
X142930713Y-83512819D02*
X142930713Y-82512819D01*
X142930713Y-82512819D02*
X143311665Y-82512819D01*
X143311665Y-82512819D02*
X143406903Y-82560438D01*
X143406903Y-82560438D02*
X143454522Y-82608057D01*
X143454522Y-82608057D02*
X143502141Y-82703295D01*
X143502141Y-82703295D02*
X143502141Y-82846152D01*
X143502141Y-82846152D02*
X143454522Y-82941390D01*
X143454522Y-82941390D02*
X143406903Y-82989009D01*
X143406903Y-82989009D02*
X143311665Y-83036628D01*
X143311665Y-83036628D02*
X142930713Y-83036628D01*
X143883094Y-82608057D02*
X143930713Y-82560438D01*
X143930713Y-82560438D02*
X144025951Y-82512819D01*
X144025951Y-82512819D02*
X144264046Y-82512819D01*
X144264046Y-82512819D02*
X144359284Y-82560438D01*
X144359284Y-82560438D02*
X144406903Y-82608057D01*
X144406903Y-82608057D02*
X144454522Y-82703295D01*
X144454522Y-82703295D02*
X144454522Y-82798533D01*
X144454522Y-82798533D02*
X144406903Y-82941390D01*
X144406903Y-82941390D02*
X143835475Y-83512819D01*
X143835475Y-83512819D02*
X144454522Y-83512819D01*
X144835475Y-82608057D02*
X144883094Y-82560438D01*
X144883094Y-82560438D02*
X144978332Y-82512819D01*
X144978332Y-82512819D02*
X145216427Y-82512819D01*
X145216427Y-82512819D02*
X145311665Y-82560438D01*
X145311665Y-82560438D02*
X145359284Y-82608057D01*
X145359284Y-82608057D02*
X145406903Y-82703295D01*
X145406903Y-82703295D02*
X145406903Y-82798533D01*
X145406903Y-82798533D02*
X145359284Y-82941390D01*
X145359284Y-82941390D02*
X144787856Y-83512819D01*
X144787856Y-83512819D02*
X145406903Y-83512819D01*
X131056141Y-72717819D02*
X130722808Y-72241628D01*
X130484713Y-72717819D02*
X130484713Y-71717819D01*
X130484713Y-71717819D02*
X130865665Y-71717819D01*
X130865665Y-71717819D02*
X130960903Y-71765438D01*
X130960903Y-71765438D02*
X131008522Y-71813057D01*
X131008522Y-71813057D02*
X131056141Y-71908295D01*
X131056141Y-71908295D02*
X131056141Y-72051152D01*
X131056141Y-72051152D02*
X131008522Y-72146390D01*
X131008522Y-72146390D02*
X130960903Y-72194009D01*
X130960903Y-72194009D02*
X130865665Y-72241628D01*
X130865665Y-72241628D02*
X130484713Y-72241628D01*
X132008522Y-72717819D02*
X131437094Y-72717819D01*
X131722808Y-72717819D02*
X131722808Y-71717819D01*
X131722808Y-71717819D02*
X131627570Y-71860676D01*
X131627570Y-71860676D02*
X131532332Y-71955914D01*
X131532332Y-71955914D02*
X131437094Y-72003533D01*
X132579951Y-72146390D02*
X132484713Y-72098771D01*
X132484713Y-72098771D02*
X132437094Y-72051152D01*
X132437094Y-72051152D02*
X132389475Y-71955914D01*
X132389475Y-71955914D02*
X132389475Y-71908295D01*
X132389475Y-71908295D02*
X132437094Y-71813057D01*
X132437094Y-71813057D02*
X132484713Y-71765438D01*
X132484713Y-71765438D02*
X132579951Y-71717819D01*
X132579951Y-71717819D02*
X132770427Y-71717819D01*
X132770427Y-71717819D02*
X132865665Y-71765438D01*
X132865665Y-71765438D02*
X132913284Y-71813057D01*
X132913284Y-71813057D02*
X132960903Y-71908295D01*
X132960903Y-71908295D02*
X132960903Y-71955914D01*
X132960903Y-71955914D02*
X132913284Y-72051152D01*
X132913284Y-72051152D02*
X132865665Y-72098771D01*
X132865665Y-72098771D02*
X132770427Y-72146390D01*
X132770427Y-72146390D02*
X132579951Y-72146390D01*
X132579951Y-72146390D02*
X132484713Y-72194009D01*
X132484713Y-72194009D02*
X132437094Y-72241628D01*
X132437094Y-72241628D02*
X132389475Y-72336866D01*
X132389475Y-72336866D02*
X132389475Y-72527342D01*
X132389475Y-72527342D02*
X132437094Y-72622580D01*
X132437094Y-72622580D02*
X132484713Y-72670200D01*
X132484713Y-72670200D02*
X132579951Y-72717819D01*
X132579951Y-72717819D02*
X132770427Y-72717819D01*
X132770427Y-72717819D02*
X132865665Y-72670200D01*
X132865665Y-72670200D02*
X132913284Y-72622580D01*
X132913284Y-72622580D02*
X132960903Y-72527342D01*
X132960903Y-72527342D02*
X132960903Y-72336866D01*
X132960903Y-72336866D02*
X132913284Y-72241628D01*
X132913284Y-72241628D02*
X132865665Y-72194009D01*
X132865665Y-72194009D02*
X132770427Y-72146390D01*
X151965818Y-113291857D02*
X151489627Y-113625190D01*
X151965818Y-113863285D02*
X150965818Y-113863285D01*
X150965818Y-113863285D02*
X150965818Y-113482333D01*
X150965818Y-113482333D02*
X151013437Y-113387095D01*
X151013437Y-113387095D02*
X151061056Y-113339476D01*
X151061056Y-113339476D02*
X151156294Y-113291857D01*
X151156294Y-113291857D02*
X151299151Y-113291857D01*
X151299151Y-113291857D02*
X151394389Y-113339476D01*
X151394389Y-113339476D02*
X151442008Y-113387095D01*
X151442008Y-113387095D02*
X151489627Y-113482333D01*
X151489627Y-113482333D02*
X151489627Y-113863285D01*
X151965818Y-112339476D02*
X151965818Y-112910904D01*
X151965818Y-112625190D02*
X150965818Y-112625190D01*
X150965818Y-112625190D02*
X151108675Y-112720428D01*
X151108675Y-112720428D02*
X151203913Y-112815666D01*
X151203913Y-112815666D02*
X151251532Y-112910904D01*
X150965818Y-112006142D02*
X150965818Y-111339476D01*
X150965818Y-111339476D02*
X151965818Y-111768047D01*
X131437141Y-99546580D02*
X131389522Y-99594200D01*
X131389522Y-99594200D02*
X131246665Y-99641819D01*
X131246665Y-99641819D02*
X131151427Y-99641819D01*
X131151427Y-99641819D02*
X131008570Y-99594200D01*
X131008570Y-99594200D02*
X130913332Y-99498961D01*
X130913332Y-99498961D02*
X130865713Y-99403723D01*
X130865713Y-99403723D02*
X130818094Y-99213247D01*
X130818094Y-99213247D02*
X130818094Y-99070390D01*
X130818094Y-99070390D02*
X130865713Y-98879914D01*
X130865713Y-98879914D02*
X130913332Y-98784676D01*
X130913332Y-98784676D02*
X131008570Y-98689438D01*
X131008570Y-98689438D02*
X131151427Y-98641819D01*
X131151427Y-98641819D02*
X131246665Y-98641819D01*
X131246665Y-98641819D02*
X131389522Y-98689438D01*
X131389522Y-98689438D02*
X131437141Y-98737057D01*
X132389522Y-99641819D02*
X131818094Y-99641819D01*
X132103808Y-99641819D02*
X132103808Y-98641819D01*
X132103808Y-98641819D02*
X132008570Y-98784676D01*
X132008570Y-98784676D02*
X131913332Y-98879914D01*
X131913332Y-98879914D02*
X131818094Y-98927533D01*
X133341903Y-99641819D02*
X132770475Y-99641819D01*
X133056189Y-99641819D02*
X133056189Y-98641819D01*
X133056189Y-98641819D02*
X132960951Y-98784676D01*
X132960951Y-98784676D02*
X132865713Y-98879914D01*
X132865713Y-98879914D02*
X132770475Y-98927533D01*
X139446094Y-89624819D02*
X139446094Y-90434342D01*
X139446094Y-90434342D02*
X139493713Y-90529580D01*
X139493713Y-90529580D02*
X139541332Y-90577200D01*
X139541332Y-90577200D02*
X139636570Y-90624819D01*
X139636570Y-90624819D02*
X139827046Y-90624819D01*
X139827046Y-90624819D02*
X139922284Y-90577200D01*
X139922284Y-90577200D02*
X139969903Y-90529580D01*
X139969903Y-90529580D02*
X140017522Y-90434342D01*
X140017522Y-90434342D02*
X140017522Y-89624819D01*
X140922284Y-89958152D02*
X140922284Y-90624819D01*
X140684189Y-89577200D02*
X140446094Y-90291485D01*
X140446094Y-90291485D02*
X141065141Y-90291485D01*
X168521141Y-104975819D02*
X168187808Y-104499628D01*
X167949713Y-104975819D02*
X167949713Y-103975819D01*
X167949713Y-103975819D02*
X168330665Y-103975819D01*
X168330665Y-103975819D02*
X168425903Y-104023438D01*
X168425903Y-104023438D02*
X168473522Y-104071057D01*
X168473522Y-104071057D02*
X168521141Y-104166295D01*
X168521141Y-104166295D02*
X168521141Y-104309152D01*
X168521141Y-104309152D02*
X168473522Y-104404390D01*
X168473522Y-104404390D02*
X168425903Y-104452009D01*
X168425903Y-104452009D02*
X168330665Y-104499628D01*
X168330665Y-104499628D02*
X167949713Y-104499628D01*
X168902094Y-104071057D02*
X168949713Y-104023438D01*
X168949713Y-104023438D02*
X169044951Y-103975819D01*
X169044951Y-103975819D02*
X169283046Y-103975819D01*
X169283046Y-103975819D02*
X169378284Y-104023438D01*
X169378284Y-104023438D02*
X169425903Y-104071057D01*
X169425903Y-104071057D02*
X169473522Y-104166295D01*
X169473522Y-104166295D02*
X169473522Y-104261533D01*
X169473522Y-104261533D02*
X169425903Y-104404390D01*
X169425903Y-104404390D02*
X168854475Y-104975819D01*
X168854475Y-104975819D02*
X169473522Y-104975819D01*
X170044951Y-104404390D02*
X169949713Y-104356771D01*
X169949713Y-104356771D02*
X169902094Y-104309152D01*
X169902094Y-104309152D02*
X169854475Y-104213914D01*
X169854475Y-104213914D02*
X169854475Y-104166295D01*
X169854475Y-104166295D02*
X169902094Y-104071057D01*
X169902094Y-104071057D02*
X169949713Y-104023438D01*
X169949713Y-104023438D02*
X170044951Y-103975819D01*
X170044951Y-103975819D02*
X170235427Y-103975819D01*
X170235427Y-103975819D02*
X170330665Y-104023438D01*
X170330665Y-104023438D02*
X170378284Y-104071057D01*
X170378284Y-104071057D02*
X170425903Y-104166295D01*
X170425903Y-104166295D02*
X170425903Y-104213914D01*
X170425903Y-104213914D02*
X170378284Y-104309152D01*
X170378284Y-104309152D02*
X170330665Y-104356771D01*
X170330665Y-104356771D02*
X170235427Y-104404390D01*
X170235427Y-104404390D02*
X170044951Y-104404390D01*
X170044951Y-104404390D02*
X169949713Y-104452009D01*
X169949713Y-104452009D02*
X169902094Y-104499628D01*
X169902094Y-104499628D02*
X169854475Y-104594866D01*
X169854475Y-104594866D02*
X169854475Y-104785342D01*
X169854475Y-104785342D02*
X169902094Y-104880580D01*
X169902094Y-104880580D02*
X169949713Y-104928200D01*
X169949713Y-104928200D02*
X170044951Y-104975819D01*
X170044951Y-104975819D02*
X170235427Y-104975819D01*
X170235427Y-104975819D02*
X170330665Y-104928200D01*
X170330665Y-104928200D02*
X170378284Y-104880580D01*
X170378284Y-104880580D02*
X170425903Y-104785342D01*
X170425903Y-104785342D02*
X170425903Y-104594866D01*
X170425903Y-104594866D02*
X170378284Y-104499628D01*
X170378284Y-104499628D02*
X170330665Y-104452009D01*
X170330665Y-104452009D02*
X170235427Y-104404390D01*
X151249141Y-97355819D02*
X150915808Y-96879628D01*
X150677713Y-97355819D02*
X150677713Y-96355819D01*
X150677713Y-96355819D02*
X151058665Y-96355819D01*
X151058665Y-96355819D02*
X151153903Y-96403438D01*
X151153903Y-96403438D02*
X151201522Y-96451057D01*
X151201522Y-96451057D02*
X151249141Y-96546295D01*
X151249141Y-96546295D02*
X151249141Y-96689152D01*
X151249141Y-96689152D02*
X151201522Y-96784390D01*
X151201522Y-96784390D02*
X151153903Y-96832009D01*
X151153903Y-96832009D02*
X151058665Y-96879628D01*
X151058665Y-96879628D02*
X150677713Y-96879628D01*
X152201522Y-97355819D02*
X151630094Y-97355819D01*
X151915808Y-97355819D02*
X151915808Y-96355819D01*
X151915808Y-96355819D02*
X151820570Y-96498676D01*
X151820570Y-96498676D02*
X151725332Y-96593914D01*
X151725332Y-96593914D02*
X151630094Y-96641533D01*
X152677713Y-97355819D02*
X152868189Y-97355819D01*
X152868189Y-97355819D02*
X152963427Y-97308200D01*
X152963427Y-97308200D02*
X153011046Y-97260580D01*
X153011046Y-97260580D02*
X153106284Y-97117723D01*
X153106284Y-97117723D02*
X153153903Y-96927247D01*
X153153903Y-96927247D02*
X153153903Y-96546295D01*
X153153903Y-96546295D02*
X153106284Y-96451057D01*
X153106284Y-96451057D02*
X153058665Y-96403438D01*
X153058665Y-96403438D02*
X152963427Y-96355819D01*
X152963427Y-96355819D02*
X152772951Y-96355819D01*
X152772951Y-96355819D02*
X152677713Y-96403438D01*
X152677713Y-96403438D02*
X152630094Y-96451057D01*
X152630094Y-96451057D02*
X152582475Y-96546295D01*
X152582475Y-96546295D02*
X152582475Y-96784390D01*
X152582475Y-96784390D02*
X152630094Y-96879628D01*
X152630094Y-96879628D02*
X152677713Y-96927247D01*
X152677713Y-96927247D02*
X152772951Y-96974866D01*
X152772951Y-96974866D02*
X152963427Y-96974866D01*
X152963427Y-96974866D02*
X153058665Y-96927247D01*
X153058665Y-96927247D02*
X153106284Y-96879628D01*
X153106284Y-96879628D02*
X153153903Y-96784390D01*
X166108141Y-75732819D02*
X165774808Y-75256628D01*
X165536713Y-75732819D02*
X165536713Y-74732819D01*
X165536713Y-74732819D02*
X165917665Y-74732819D01*
X165917665Y-74732819D02*
X166012903Y-74780438D01*
X166012903Y-74780438D02*
X166060522Y-74828057D01*
X166060522Y-74828057D02*
X166108141Y-74923295D01*
X166108141Y-74923295D02*
X166108141Y-75066152D01*
X166108141Y-75066152D02*
X166060522Y-75161390D01*
X166060522Y-75161390D02*
X166012903Y-75209009D01*
X166012903Y-75209009D02*
X165917665Y-75256628D01*
X165917665Y-75256628D02*
X165536713Y-75256628D01*
X166489094Y-74828057D02*
X166536713Y-74780438D01*
X166536713Y-74780438D02*
X166631951Y-74732819D01*
X166631951Y-74732819D02*
X166870046Y-74732819D01*
X166870046Y-74732819D02*
X166965284Y-74780438D01*
X166965284Y-74780438D02*
X167012903Y-74828057D01*
X167012903Y-74828057D02*
X167060522Y-74923295D01*
X167060522Y-74923295D02*
X167060522Y-75018533D01*
X167060522Y-75018533D02*
X167012903Y-75161390D01*
X167012903Y-75161390D02*
X166441475Y-75732819D01*
X166441475Y-75732819D02*
X167060522Y-75732819D01*
X167917665Y-74732819D02*
X167727189Y-74732819D01*
X167727189Y-74732819D02*
X167631951Y-74780438D01*
X167631951Y-74780438D02*
X167584332Y-74828057D01*
X167584332Y-74828057D02*
X167489094Y-74970914D01*
X167489094Y-74970914D02*
X167441475Y-75161390D01*
X167441475Y-75161390D02*
X167441475Y-75542342D01*
X167441475Y-75542342D02*
X167489094Y-75637580D01*
X167489094Y-75637580D02*
X167536713Y-75685200D01*
X167536713Y-75685200D02*
X167631951Y-75732819D01*
X167631951Y-75732819D02*
X167822427Y-75732819D01*
X167822427Y-75732819D02*
X167917665Y-75685200D01*
X167917665Y-75685200D02*
X167965284Y-75637580D01*
X167965284Y-75637580D02*
X168012903Y-75542342D01*
X168012903Y-75542342D02*
X168012903Y-75304247D01*
X168012903Y-75304247D02*
X167965284Y-75209009D01*
X167965284Y-75209009D02*
X167917665Y-75161390D01*
X167917665Y-75161390D02*
X167822427Y-75113771D01*
X167822427Y-75113771D02*
X167631951Y-75113771D01*
X167631951Y-75113771D02*
X167536713Y-75161390D01*
X167536713Y-75161390D02*
X167489094Y-75209009D01*
X167489094Y-75209009D02*
X167441475Y-75304247D01*
X143502141Y-85036819D02*
X143168808Y-84560628D01*
X142930713Y-85036819D02*
X142930713Y-84036819D01*
X142930713Y-84036819D02*
X143311665Y-84036819D01*
X143311665Y-84036819D02*
X143406903Y-84084438D01*
X143406903Y-84084438D02*
X143454522Y-84132057D01*
X143454522Y-84132057D02*
X143502141Y-84227295D01*
X143502141Y-84227295D02*
X143502141Y-84370152D01*
X143502141Y-84370152D02*
X143454522Y-84465390D01*
X143454522Y-84465390D02*
X143406903Y-84513009D01*
X143406903Y-84513009D02*
X143311665Y-84560628D01*
X143311665Y-84560628D02*
X142930713Y-84560628D01*
X143883094Y-84132057D02*
X143930713Y-84084438D01*
X143930713Y-84084438D02*
X144025951Y-84036819D01*
X144025951Y-84036819D02*
X144264046Y-84036819D01*
X144264046Y-84036819D02*
X144359284Y-84084438D01*
X144359284Y-84084438D02*
X144406903Y-84132057D01*
X144406903Y-84132057D02*
X144454522Y-84227295D01*
X144454522Y-84227295D02*
X144454522Y-84322533D01*
X144454522Y-84322533D02*
X144406903Y-84465390D01*
X144406903Y-84465390D02*
X143835475Y-85036819D01*
X143835475Y-85036819D02*
X144454522Y-85036819D01*
X145073570Y-84036819D02*
X145168808Y-84036819D01*
X145168808Y-84036819D02*
X145264046Y-84084438D01*
X145264046Y-84084438D02*
X145311665Y-84132057D01*
X145311665Y-84132057D02*
X145359284Y-84227295D01*
X145359284Y-84227295D02*
X145406903Y-84417771D01*
X145406903Y-84417771D02*
X145406903Y-84655866D01*
X145406903Y-84655866D02*
X145359284Y-84846342D01*
X145359284Y-84846342D02*
X145311665Y-84941580D01*
X145311665Y-84941580D02*
X145264046Y-84989200D01*
X145264046Y-84989200D02*
X145168808Y-85036819D01*
X145168808Y-85036819D02*
X145073570Y-85036819D01*
X145073570Y-85036819D02*
X144978332Y-84989200D01*
X144978332Y-84989200D02*
X144930713Y-84941580D01*
X144930713Y-84941580D02*
X144883094Y-84846342D01*
X144883094Y-84846342D02*
X144835475Y-84655866D01*
X144835475Y-84655866D02*
X144835475Y-84417771D01*
X144835475Y-84417771D02*
X144883094Y-84227295D01*
X144883094Y-84227295D02*
X144930713Y-84132057D01*
X144930713Y-84132057D02*
X144978332Y-84084438D01*
X144978332Y-84084438D02*
X145073570Y-84036819D01*
X139027818Y-82041904D02*
X139837341Y-82041904D01*
X139837341Y-82041904D02*
X139932579Y-81994285D01*
X139932579Y-81994285D02*
X139980199Y-81946666D01*
X139980199Y-81946666D02*
X140027818Y-81851428D01*
X140027818Y-81851428D02*
X140027818Y-81660952D01*
X140027818Y-81660952D02*
X139980199Y-81565714D01*
X139980199Y-81565714D02*
X139932579Y-81518095D01*
X139932579Y-81518095D02*
X139837341Y-81470476D01*
X139837341Y-81470476D02*
X139027818Y-81470476D01*
X140027818Y-80470476D02*
X140027818Y-81041904D01*
X140027818Y-80756190D02*
X139027818Y-80756190D01*
X139027818Y-80756190D02*
X139170675Y-80851428D01*
X139170675Y-80851428D02*
X139265913Y-80946666D01*
X139265913Y-80946666D02*
X139313532Y-81041904D01*
X137501332Y-89100819D02*
X137167999Y-88624628D01*
X136929904Y-89100819D02*
X136929904Y-88100819D01*
X136929904Y-88100819D02*
X137310856Y-88100819D01*
X137310856Y-88100819D02*
X137406094Y-88148438D01*
X137406094Y-88148438D02*
X137453713Y-88196057D01*
X137453713Y-88196057D02*
X137501332Y-88291295D01*
X137501332Y-88291295D02*
X137501332Y-88434152D01*
X137501332Y-88434152D02*
X137453713Y-88529390D01*
X137453713Y-88529390D02*
X137406094Y-88577009D01*
X137406094Y-88577009D02*
X137310856Y-88624628D01*
X137310856Y-88624628D02*
X136929904Y-88624628D01*
X137882285Y-88196057D02*
X137929904Y-88148438D01*
X137929904Y-88148438D02*
X138025142Y-88100819D01*
X138025142Y-88100819D02*
X138263237Y-88100819D01*
X138263237Y-88100819D02*
X138358475Y-88148438D01*
X138358475Y-88148438D02*
X138406094Y-88196057D01*
X138406094Y-88196057D02*
X138453713Y-88291295D01*
X138453713Y-88291295D02*
X138453713Y-88386533D01*
X138453713Y-88386533D02*
X138406094Y-88529390D01*
X138406094Y-88529390D02*
X137834666Y-89100819D01*
X137834666Y-89100819D02*
X138453713Y-89100819D01*
X129201941Y-111198819D02*
X128868608Y-110722628D01*
X128630513Y-111198819D02*
X128630513Y-110198819D01*
X128630513Y-110198819D02*
X129011465Y-110198819D01*
X129011465Y-110198819D02*
X129106703Y-110246438D01*
X129106703Y-110246438D02*
X129154322Y-110294057D01*
X129154322Y-110294057D02*
X129201941Y-110389295D01*
X129201941Y-110389295D02*
X129201941Y-110532152D01*
X129201941Y-110532152D02*
X129154322Y-110627390D01*
X129154322Y-110627390D02*
X129106703Y-110675009D01*
X129106703Y-110675009D02*
X129011465Y-110722628D01*
X129011465Y-110722628D02*
X128630513Y-110722628D01*
X130154322Y-111198819D02*
X129582894Y-111198819D01*
X129868608Y-111198819D02*
X129868608Y-110198819D01*
X129868608Y-110198819D02*
X129773370Y-110341676D01*
X129773370Y-110341676D02*
X129678132Y-110436914D01*
X129678132Y-110436914D02*
X129582894Y-110484533D01*
X130773370Y-110198819D02*
X130868608Y-110198819D01*
X130868608Y-110198819D02*
X130963846Y-110246438D01*
X130963846Y-110246438D02*
X131011465Y-110294057D01*
X131011465Y-110294057D02*
X131059084Y-110389295D01*
X131059084Y-110389295D02*
X131106703Y-110579771D01*
X131106703Y-110579771D02*
X131106703Y-110817866D01*
X131106703Y-110817866D02*
X131059084Y-111008342D01*
X131059084Y-111008342D02*
X131011465Y-111103580D01*
X131011465Y-111103580D02*
X130963846Y-111151200D01*
X130963846Y-111151200D02*
X130868608Y-111198819D01*
X130868608Y-111198819D02*
X130773370Y-111198819D01*
X130773370Y-111198819D02*
X130678132Y-111151200D01*
X130678132Y-111151200D02*
X130630513Y-111103580D01*
X130630513Y-111103580D02*
X130582894Y-111008342D01*
X130582894Y-111008342D02*
X130535275Y-110817866D01*
X130535275Y-110817866D02*
X130535275Y-110579771D01*
X130535275Y-110579771D02*
X130582894Y-110389295D01*
X130582894Y-110389295D02*
X130630513Y-110294057D01*
X130630513Y-110294057D02*
X130678132Y-110246438D01*
X130678132Y-110246438D02*
X130773370Y-110198819D01*
X155013818Y-113291857D02*
X154537627Y-113625190D01*
X155013818Y-113863285D02*
X154013818Y-113863285D01*
X154013818Y-113863285D02*
X154013818Y-113482333D01*
X154013818Y-113482333D02*
X154061437Y-113387095D01*
X154061437Y-113387095D02*
X154109056Y-113339476D01*
X154109056Y-113339476D02*
X154204294Y-113291857D01*
X154204294Y-113291857D02*
X154347151Y-113291857D01*
X154347151Y-113291857D02*
X154442389Y-113339476D01*
X154442389Y-113339476D02*
X154490008Y-113387095D01*
X154490008Y-113387095D02*
X154537627Y-113482333D01*
X154537627Y-113482333D02*
X154537627Y-113863285D01*
X155013818Y-112339476D02*
X155013818Y-112910904D01*
X155013818Y-112625190D02*
X154013818Y-112625190D01*
X154013818Y-112625190D02*
X154156675Y-112720428D01*
X154156675Y-112720428D02*
X154251913Y-112815666D01*
X154251913Y-112815666D02*
X154299532Y-112910904D01*
X154013818Y-111482333D02*
X154013818Y-111672809D01*
X154013818Y-111672809D02*
X154061437Y-111768047D01*
X154061437Y-111768047D02*
X154109056Y-111815666D01*
X154109056Y-111815666D02*
X154251913Y-111910904D01*
X154251913Y-111910904D02*
X154442389Y-111958523D01*
X154442389Y-111958523D02*
X154823341Y-111958523D01*
X154823341Y-111958523D02*
X154918579Y-111910904D01*
X154918579Y-111910904D02*
X154966199Y-111863285D01*
X154966199Y-111863285D02*
X155013818Y-111768047D01*
X155013818Y-111768047D02*
X155013818Y-111577571D01*
X155013818Y-111577571D02*
X154966199Y-111482333D01*
X154966199Y-111482333D02*
X154918579Y-111434714D01*
X154918579Y-111434714D02*
X154823341Y-111387095D01*
X154823341Y-111387095D02*
X154585246Y-111387095D01*
X154585246Y-111387095D02*
X154490008Y-111434714D01*
X154490008Y-111434714D02*
X154442389Y-111482333D01*
X154442389Y-111482333D02*
X154394770Y-111577571D01*
X154394770Y-111577571D02*
X154394770Y-111768047D01*
X154394770Y-111768047D02*
X154442389Y-111863285D01*
X154442389Y-111863285D02*
X154490008Y-111910904D01*
X154490008Y-111910904D02*
X154585246Y-111958523D01*
X132040332Y-86084580D02*
X131992713Y-86132200D01*
X131992713Y-86132200D02*
X131849856Y-86179819D01*
X131849856Y-86179819D02*
X131754618Y-86179819D01*
X131754618Y-86179819D02*
X131611761Y-86132200D01*
X131611761Y-86132200D02*
X131516523Y-86036961D01*
X131516523Y-86036961D02*
X131468904Y-85941723D01*
X131468904Y-85941723D02*
X131421285Y-85751247D01*
X131421285Y-85751247D02*
X131421285Y-85608390D01*
X131421285Y-85608390D02*
X131468904Y-85417914D01*
X131468904Y-85417914D02*
X131516523Y-85322676D01*
X131516523Y-85322676D02*
X131611761Y-85227438D01*
X131611761Y-85227438D02*
X131754618Y-85179819D01*
X131754618Y-85179819D02*
X131849856Y-85179819D01*
X131849856Y-85179819D02*
X131992713Y-85227438D01*
X131992713Y-85227438D02*
X132040332Y-85275057D01*
X132897475Y-85513152D02*
X132897475Y-86179819D01*
X132659380Y-85132200D02*
X132421285Y-85846485D01*
X132421285Y-85846485D02*
X133040332Y-85846485D01*
X147393818Y-113291857D02*
X146917627Y-113625190D01*
X147393818Y-113863285D02*
X146393818Y-113863285D01*
X146393818Y-113863285D02*
X146393818Y-113482333D01*
X146393818Y-113482333D02*
X146441437Y-113387095D01*
X146441437Y-113387095D02*
X146489056Y-113339476D01*
X146489056Y-113339476D02*
X146584294Y-113291857D01*
X146584294Y-113291857D02*
X146727151Y-113291857D01*
X146727151Y-113291857D02*
X146822389Y-113339476D01*
X146822389Y-113339476D02*
X146870008Y-113387095D01*
X146870008Y-113387095D02*
X146917627Y-113482333D01*
X146917627Y-113482333D02*
X146917627Y-113863285D01*
X147393818Y-112339476D02*
X147393818Y-112910904D01*
X147393818Y-112625190D02*
X146393818Y-112625190D01*
X146393818Y-112625190D02*
X146536675Y-112720428D01*
X146536675Y-112720428D02*
X146631913Y-112815666D01*
X146631913Y-112815666D02*
X146679532Y-112910904D01*
X146393818Y-111434714D02*
X146393818Y-111910904D01*
X146393818Y-111910904D02*
X146870008Y-111958523D01*
X146870008Y-111958523D02*
X146822389Y-111910904D01*
X146822389Y-111910904D02*
X146774770Y-111815666D01*
X146774770Y-111815666D02*
X146774770Y-111577571D01*
X146774770Y-111577571D02*
X146822389Y-111482333D01*
X146822389Y-111482333D02*
X146870008Y-111434714D01*
X146870008Y-111434714D02*
X146965246Y-111387095D01*
X146965246Y-111387095D02*
X147203341Y-111387095D01*
X147203341Y-111387095D02*
X147298579Y-111434714D01*
X147298579Y-111434714D02*
X147346199Y-111482333D01*
X147346199Y-111482333D02*
X147393818Y-111577571D01*
X147393818Y-111577571D02*
X147393818Y-111815666D01*
X147393818Y-111815666D02*
X147346199Y-111910904D01*
X147346199Y-111910904D02*
X147298579Y-111958523D01*
X151034808Y-88751628D02*
X151034808Y-89227819D01*
X150701475Y-88227819D02*
X151034808Y-88751628D01*
X151034808Y-88751628D02*
X151368141Y-88227819D01*
X152225284Y-89227819D02*
X151653856Y-89227819D01*
X151939570Y-89227819D02*
X151939570Y-88227819D01*
X151939570Y-88227819D02*
X151844332Y-88370676D01*
X151844332Y-88370676D02*
X151749094Y-88465914D01*
X151749094Y-88465914D02*
X151653856Y-88513533D01*
X143502141Y-86590819D02*
X143168808Y-86114628D01*
X142930713Y-86590819D02*
X142930713Y-85590819D01*
X142930713Y-85590819D02*
X143311665Y-85590819D01*
X143311665Y-85590819D02*
X143406903Y-85638438D01*
X143406903Y-85638438D02*
X143454522Y-85686057D01*
X143454522Y-85686057D02*
X143502141Y-85781295D01*
X143502141Y-85781295D02*
X143502141Y-85924152D01*
X143502141Y-85924152D02*
X143454522Y-86019390D01*
X143454522Y-86019390D02*
X143406903Y-86067009D01*
X143406903Y-86067009D02*
X143311665Y-86114628D01*
X143311665Y-86114628D02*
X142930713Y-86114628D01*
X143883094Y-85686057D02*
X143930713Y-85638438D01*
X143930713Y-85638438D02*
X144025951Y-85590819D01*
X144025951Y-85590819D02*
X144264046Y-85590819D01*
X144264046Y-85590819D02*
X144359284Y-85638438D01*
X144359284Y-85638438D02*
X144406903Y-85686057D01*
X144406903Y-85686057D02*
X144454522Y-85781295D01*
X144454522Y-85781295D02*
X144454522Y-85876533D01*
X144454522Y-85876533D02*
X144406903Y-86019390D01*
X144406903Y-86019390D02*
X143835475Y-86590819D01*
X143835475Y-86590819D02*
X144454522Y-86590819D01*
X145406903Y-86590819D02*
X144835475Y-86590819D01*
X145121189Y-86590819D02*
X145121189Y-85590819D01*
X145121189Y-85590819D02*
X145025951Y-85733676D01*
X145025951Y-85733676D02*
X144930713Y-85828914D01*
X144930713Y-85828914D02*
X144835475Y-85876533D01*
X160520141Y-76400819D02*
X160186808Y-75924628D01*
X159948713Y-76400819D02*
X159948713Y-75400819D01*
X159948713Y-75400819D02*
X160329665Y-75400819D01*
X160329665Y-75400819D02*
X160424903Y-75448438D01*
X160424903Y-75448438D02*
X160472522Y-75496057D01*
X160472522Y-75496057D02*
X160520141Y-75591295D01*
X160520141Y-75591295D02*
X160520141Y-75734152D01*
X160520141Y-75734152D02*
X160472522Y-75829390D01*
X160472522Y-75829390D02*
X160424903Y-75877009D01*
X160424903Y-75877009D02*
X160329665Y-75924628D01*
X160329665Y-75924628D02*
X159948713Y-75924628D01*
X160901094Y-75496057D02*
X160948713Y-75448438D01*
X160948713Y-75448438D02*
X161043951Y-75400819D01*
X161043951Y-75400819D02*
X161282046Y-75400819D01*
X161282046Y-75400819D02*
X161377284Y-75448438D01*
X161377284Y-75448438D02*
X161424903Y-75496057D01*
X161424903Y-75496057D02*
X161472522Y-75591295D01*
X161472522Y-75591295D02*
X161472522Y-75686533D01*
X161472522Y-75686533D02*
X161424903Y-75829390D01*
X161424903Y-75829390D02*
X160853475Y-76400819D01*
X160853475Y-76400819D02*
X161472522Y-76400819D01*
X162377284Y-75400819D02*
X161901094Y-75400819D01*
X161901094Y-75400819D02*
X161853475Y-75877009D01*
X161853475Y-75877009D02*
X161901094Y-75829390D01*
X161901094Y-75829390D02*
X161996332Y-75781771D01*
X161996332Y-75781771D02*
X162234427Y-75781771D01*
X162234427Y-75781771D02*
X162329665Y-75829390D01*
X162329665Y-75829390D02*
X162377284Y-75877009D01*
X162377284Y-75877009D02*
X162424903Y-75972247D01*
X162424903Y-75972247D02*
X162424903Y-76210342D01*
X162424903Y-76210342D02*
X162377284Y-76305580D01*
X162377284Y-76305580D02*
X162329665Y-76353200D01*
X162329665Y-76353200D02*
X162234427Y-76400819D01*
X162234427Y-76400819D02*
X161996332Y-76400819D01*
X161996332Y-76400819D02*
X161901094Y-76353200D01*
X161901094Y-76353200D02*
X161853475Y-76305580D01*
X118284665Y-70837009D02*
X117951332Y-70837009D01*
X117951332Y-71360819D02*
X117951332Y-70360819D01*
X117951332Y-70360819D02*
X118427522Y-70360819D01*
X119332284Y-71360819D02*
X118760856Y-71360819D01*
X119046570Y-71360819D02*
X119046570Y-70360819D01*
X119046570Y-70360819D02*
X118951332Y-70503676D01*
X118951332Y-70503676D02*
X118856094Y-70598914D01*
X118856094Y-70598914D02*
X118760856Y-70646533D01*
X152886579Y-103544666D02*
X152934199Y-103592285D01*
X152934199Y-103592285D02*
X152981818Y-103735142D01*
X152981818Y-103735142D02*
X152981818Y-103830380D01*
X152981818Y-103830380D02*
X152934199Y-103973237D01*
X152934199Y-103973237D02*
X152838960Y-104068475D01*
X152838960Y-104068475D02*
X152743722Y-104116094D01*
X152743722Y-104116094D02*
X152553246Y-104163713D01*
X152553246Y-104163713D02*
X152410389Y-104163713D01*
X152410389Y-104163713D02*
X152219913Y-104116094D01*
X152219913Y-104116094D02*
X152124675Y-104068475D01*
X152124675Y-104068475D02*
X152029437Y-103973237D01*
X152029437Y-103973237D02*
X151981818Y-103830380D01*
X151981818Y-103830380D02*
X151981818Y-103735142D01*
X151981818Y-103735142D02*
X152029437Y-103592285D01*
X152029437Y-103592285D02*
X152077056Y-103544666D01*
X151981818Y-103211332D02*
X151981818Y-102544666D01*
X151981818Y-102544666D02*
X152981818Y-102973237D01*
X152886579Y-101004666D02*
X152934199Y-101052285D01*
X152934199Y-101052285D02*
X152981818Y-101195142D01*
X152981818Y-101195142D02*
X152981818Y-101290380D01*
X152981818Y-101290380D02*
X152934199Y-101433237D01*
X152934199Y-101433237D02*
X152838960Y-101528475D01*
X152838960Y-101528475D02*
X152743722Y-101576094D01*
X152743722Y-101576094D02*
X152553246Y-101623713D01*
X152553246Y-101623713D02*
X152410389Y-101623713D01*
X152410389Y-101623713D02*
X152219913Y-101576094D01*
X152219913Y-101576094D02*
X152124675Y-101528475D01*
X152124675Y-101528475D02*
X152029437Y-101433237D01*
X152029437Y-101433237D02*
X151981818Y-101290380D01*
X151981818Y-101290380D02*
X151981818Y-101195142D01*
X151981818Y-101195142D02*
X152029437Y-101052285D01*
X152029437Y-101052285D02*
X152077056Y-101004666D01*
X152981818Y-100528475D02*
X152981818Y-100337999D01*
X152981818Y-100337999D02*
X152934199Y-100242761D01*
X152934199Y-100242761D02*
X152886579Y-100195142D01*
X152886579Y-100195142D02*
X152743722Y-100099904D01*
X152743722Y-100099904D02*
X152553246Y-100052285D01*
X152553246Y-100052285D02*
X152172294Y-100052285D01*
X152172294Y-100052285D02*
X152077056Y-100099904D01*
X152077056Y-100099904D02*
X152029437Y-100147523D01*
X152029437Y-100147523D02*
X151981818Y-100242761D01*
X151981818Y-100242761D02*
X151981818Y-100433237D01*
X151981818Y-100433237D02*
X152029437Y-100528475D01*
X152029437Y-100528475D02*
X152077056Y-100576094D01*
X152077056Y-100576094D02*
X152172294Y-100623713D01*
X152172294Y-100623713D02*
X152410389Y-100623713D01*
X152410389Y-100623713D02*
X152505627Y-100576094D01*
X152505627Y-100576094D02*
X152553246Y-100528475D01*
X152553246Y-100528475D02*
X152600865Y-100433237D01*
X152600865Y-100433237D02*
X152600865Y-100242761D01*
X152600865Y-100242761D02*
X152553246Y-100147523D01*
X152553246Y-100147523D02*
X152505627Y-100099904D01*
X152505627Y-100099904D02*
X152410389Y-100052285D01*
X139446094Y-97879819D02*
X139446094Y-98689342D01*
X139446094Y-98689342D02*
X139493713Y-98784580D01*
X139493713Y-98784580D02*
X139541332Y-98832200D01*
X139541332Y-98832200D02*
X139636570Y-98879819D01*
X139636570Y-98879819D02*
X139827046Y-98879819D01*
X139827046Y-98879819D02*
X139922284Y-98832200D01*
X139922284Y-98832200D02*
X139969903Y-98784580D01*
X139969903Y-98784580D02*
X140017522Y-98689342D01*
X140017522Y-98689342D02*
X140017522Y-97879819D01*
X140398475Y-97879819D02*
X141017522Y-97879819D01*
X141017522Y-97879819D02*
X140684189Y-98260771D01*
X140684189Y-98260771D02*
X140827046Y-98260771D01*
X140827046Y-98260771D02*
X140922284Y-98308390D01*
X140922284Y-98308390D02*
X140969903Y-98356009D01*
X140969903Y-98356009D02*
X141017522Y-98451247D01*
X141017522Y-98451247D02*
X141017522Y-98689342D01*
X141017522Y-98689342D02*
X140969903Y-98784580D01*
X140969903Y-98784580D02*
X140922284Y-98832200D01*
X140922284Y-98832200D02*
X140827046Y-98879819D01*
X140827046Y-98879819D02*
X140541332Y-98879819D01*
X140541332Y-98879819D02*
X140446094Y-98832200D01*
X140446094Y-98832200D02*
X140398475Y-98784580D01*
X131264818Y-96178666D02*
X130788627Y-96511999D01*
X131264818Y-96750094D02*
X130264818Y-96750094D01*
X130264818Y-96750094D02*
X130264818Y-96369142D01*
X130264818Y-96369142D02*
X130312437Y-96273904D01*
X130312437Y-96273904D02*
X130360056Y-96226285D01*
X130360056Y-96226285D02*
X130455294Y-96178666D01*
X130455294Y-96178666D02*
X130598151Y-96178666D01*
X130598151Y-96178666D02*
X130693389Y-96226285D01*
X130693389Y-96226285D02*
X130741008Y-96273904D01*
X130741008Y-96273904D02*
X130788627Y-96369142D01*
X130788627Y-96369142D02*
X130788627Y-96750094D01*
X130598151Y-95321523D02*
X131264818Y-95321523D01*
X130217199Y-95559618D02*
X130931484Y-95797713D01*
X130931484Y-95797713D02*
X130931484Y-95178666D01*
X148917818Y-112783857D02*
X148441627Y-113117190D01*
X148917818Y-113355285D02*
X147917818Y-113355285D01*
X147917818Y-113355285D02*
X147917818Y-112974333D01*
X147917818Y-112974333D02*
X147965437Y-112879095D01*
X147965437Y-112879095D02*
X148013056Y-112831476D01*
X148013056Y-112831476D02*
X148108294Y-112783857D01*
X148108294Y-112783857D02*
X148251151Y-112783857D01*
X148251151Y-112783857D02*
X148346389Y-112831476D01*
X148346389Y-112831476D02*
X148394008Y-112879095D01*
X148394008Y-112879095D02*
X148441627Y-112974333D01*
X148441627Y-112974333D02*
X148441627Y-113355285D01*
X148917818Y-111831476D02*
X148917818Y-112402904D01*
X148917818Y-112117190D02*
X147917818Y-112117190D01*
X147917818Y-112117190D02*
X148060675Y-112212428D01*
X148060675Y-112212428D02*
X148155913Y-112307666D01*
X148155913Y-112307666D02*
X148203532Y-112402904D01*
X148013056Y-111450523D02*
X147965437Y-111402904D01*
X147965437Y-111402904D02*
X147917818Y-111307666D01*
X147917818Y-111307666D02*
X147917818Y-111069571D01*
X147917818Y-111069571D02*
X147965437Y-110974333D01*
X147965437Y-110974333D02*
X148013056Y-110926714D01*
X148013056Y-110926714D02*
X148108294Y-110879095D01*
X148108294Y-110879095D02*
X148203532Y-110879095D01*
X148203532Y-110879095D02*
X148346389Y-110926714D01*
X148346389Y-110926714D02*
X148917818Y-111498142D01*
X148917818Y-111498142D02*
X148917818Y-110879095D01*
X132040332Y-87608580D02*
X131992713Y-87656200D01*
X131992713Y-87656200D02*
X131849856Y-87703819D01*
X131849856Y-87703819D02*
X131754618Y-87703819D01*
X131754618Y-87703819D02*
X131611761Y-87656200D01*
X131611761Y-87656200D02*
X131516523Y-87560961D01*
X131516523Y-87560961D02*
X131468904Y-87465723D01*
X131468904Y-87465723D02*
X131421285Y-87275247D01*
X131421285Y-87275247D02*
X131421285Y-87132390D01*
X131421285Y-87132390D02*
X131468904Y-86941914D01*
X131468904Y-86941914D02*
X131516523Y-86846676D01*
X131516523Y-86846676D02*
X131611761Y-86751438D01*
X131611761Y-86751438D02*
X131754618Y-86703819D01*
X131754618Y-86703819D02*
X131849856Y-86703819D01*
X131849856Y-86703819D02*
X131992713Y-86751438D01*
X131992713Y-86751438D02*
X132040332Y-86799057D01*
X132945094Y-86703819D02*
X132468904Y-86703819D01*
X132468904Y-86703819D02*
X132421285Y-87180009D01*
X132421285Y-87180009D02*
X132468904Y-87132390D01*
X132468904Y-87132390D02*
X132564142Y-87084771D01*
X132564142Y-87084771D02*
X132802237Y-87084771D01*
X132802237Y-87084771D02*
X132897475Y-87132390D01*
X132897475Y-87132390D02*
X132945094Y-87180009D01*
X132945094Y-87180009D02*
X132992713Y-87275247D01*
X132992713Y-87275247D02*
X132992713Y-87513342D01*
X132992713Y-87513342D02*
X132945094Y-87608580D01*
X132945094Y-87608580D02*
X132897475Y-87656200D01*
X132897475Y-87656200D02*
X132802237Y-87703819D01*
X132802237Y-87703819D02*
X132564142Y-87703819D01*
X132564142Y-87703819D02*
X132468904Y-87656200D01*
X132468904Y-87656200D02*
X132421285Y-87608580D01*
X140581141Y-87862580D02*
X140533522Y-87910200D01*
X140533522Y-87910200D02*
X140390665Y-87957819D01*
X140390665Y-87957819D02*
X140295427Y-87957819D01*
X140295427Y-87957819D02*
X140152570Y-87910200D01*
X140152570Y-87910200D02*
X140057332Y-87814961D01*
X140057332Y-87814961D02*
X140009713Y-87719723D01*
X140009713Y-87719723D02*
X139962094Y-87529247D01*
X139962094Y-87529247D02*
X139962094Y-87386390D01*
X139962094Y-87386390D02*
X140009713Y-87195914D01*
X140009713Y-87195914D02*
X140057332Y-87100676D01*
X140057332Y-87100676D02*
X140152570Y-87005438D01*
X140152570Y-87005438D02*
X140295427Y-86957819D01*
X140295427Y-86957819D02*
X140390665Y-86957819D01*
X140390665Y-86957819D02*
X140533522Y-87005438D01*
X140533522Y-87005438D02*
X140581141Y-87053057D01*
X141533522Y-87957819D02*
X140962094Y-87957819D01*
X141247808Y-87957819D02*
X141247808Y-86957819D01*
X141247808Y-86957819D02*
X141152570Y-87100676D01*
X141152570Y-87100676D02*
X141057332Y-87195914D01*
X141057332Y-87195914D02*
X140962094Y-87243533D01*
X142438284Y-86957819D02*
X141962094Y-86957819D01*
X141962094Y-86957819D02*
X141914475Y-87434009D01*
X141914475Y-87434009D02*
X141962094Y-87386390D01*
X141962094Y-87386390D02*
X142057332Y-87338771D01*
X142057332Y-87338771D02*
X142295427Y-87338771D01*
X142295427Y-87338771D02*
X142390665Y-87386390D01*
X142390665Y-87386390D02*
X142438284Y-87434009D01*
X142438284Y-87434009D02*
X142485903Y-87529247D01*
X142485903Y-87529247D02*
X142485903Y-87767342D01*
X142485903Y-87767342D02*
X142438284Y-87862580D01*
X142438284Y-87862580D02*
X142390665Y-87910200D01*
X142390665Y-87910200D02*
X142295427Y-87957819D01*
X142295427Y-87957819D02*
X142057332Y-87957819D01*
X142057332Y-87957819D02*
X141962094Y-87910200D01*
X141962094Y-87910200D02*
X141914475Y-87862580D01*
X139025332Y-104975819D02*
X138691999Y-104499628D01*
X138453904Y-104975819D02*
X138453904Y-103975819D01*
X138453904Y-103975819D02*
X138834856Y-103975819D01*
X138834856Y-103975819D02*
X138930094Y-104023438D01*
X138930094Y-104023438D02*
X138977713Y-104071057D01*
X138977713Y-104071057D02*
X139025332Y-104166295D01*
X139025332Y-104166295D02*
X139025332Y-104309152D01*
X139025332Y-104309152D02*
X138977713Y-104404390D01*
X138977713Y-104404390D02*
X138930094Y-104452009D01*
X138930094Y-104452009D02*
X138834856Y-104499628D01*
X138834856Y-104499628D02*
X138453904Y-104499628D01*
X139596761Y-104404390D02*
X139501523Y-104356771D01*
X139501523Y-104356771D02*
X139453904Y-104309152D01*
X139453904Y-104309152D02*
X139406285Y-104213914D01*
X139406285Y-104213914D02*
X139406285Y-104166295D01*
X139406285Y-104166295D02*
X139453904Y-104071057D01*
X139453904Y-104071057D02*
X139501523Y-104023438D01*
X139501523Y-104023438D02*
X139596761Y-103975819D01*
X139596761Y-103975819D02*
X139787237Y-103975819D01*
X139787237Y-103975819D02*
X139882475Y-104023438D01*
X139882475Y-104023438D02*
X139930094Y-104071057D01*
X139930094Y-104071057D02*
X139977713Y-104166295D01*
X139977713Y-104166295D02*
X139977713Y-104213914D01*
X139977713Y-104213914D02*
X139930094Y-104309152D01*
X139930094Y-104309152D02*
X139882475Y-104356771D01*
X139882475Y-104356771D02*
X139787237Y-104404390D01*
X139787237Y-104404390D02*
X139596761Y-104404390D01*
X139596761Y-104404390D02*
X139501523Y-104452009D01*
X139501523Y-104452009D02*
X139453904Y-104499628D01*
X139453904Y-104499628D02*
X139406285Y-104594866D01*
X139406285Y-104594866D02*
X139406285Y-104785342D01*
X139406285Y-104785342D02*
X139453904Y-104880580D01*
X139453904Y-104880580D02*
X139501523Y-104928200D01*
X139501523Y-104928200D02*
X139596761Y-104975819D01*
X139596761Y-104975819D02*
X139787237Y-104975819D01*
X139787237Y-104975819D02*
X139882475Y-104928200D01*
X139882475Y-104928200D02*
X139930094Y-104880580D01*
X139930094Y-104880580D02*
X139977713Y-104785342D01*
X139977713Y-104785342D02*
X139977713Y-104594866D01*
X139977713Y-104594866D02*
X139930094Y-104499628D01*
X139930094Y-104499628D02*
X139882475Y-104452009D01*
X139882475Y-104452009D02*
X139787237Y-104404390D01*
X168058179Y-98298095D02*
X167248656Y-98298095D01*
X167248656Y-98298095D02*
X167153418Y-98345714D01*
X167153418Y-98345714D02*
X167105799Y-98393333D01*
X167105799Y-98393333D02*
X167058179Y-98488571D01*
X167058179Y-98488571D02*
X167058179Y-98679047D01*
X167058179Y-98679047D02*
X167105799Y-98774285D01*
X167105799Y-98774285D02*
X167153418Y-98821904D01*
X167153418Y-98821904D02*
X167248656Y-98869523D01*
X167248656Y-98869523D02*
X168058179Y-98869523D01*
X167629608Y-99488571D02*
X167677227Y-99393333D01*
X167677227Y-99393333D02*
X167724846Y-99345714D01*
X167724846Y-99345714D02*
X167820084Y-99298095D01*
X167820084Y-99298095D02*
X167867703Y-99298095D01*
X167867703Y-99298095D02*
X167962941Y-99345714D01*
X167962941Y-99345714D02*
X168010560Y-99393333D01*
X168010560Y-99393333D02*
X168058179Y-99488571D01*
X168058179Y-99488571D02*
X168058179Y-99679047D01*
X168058179Y-99679047D02*
X168010560Y-99774285D01*
X168010560Y-99774285D02*
X167962941Y-99821904D01*
X167962941Y-99821904D02*
X167867703Y-99869523D01*
X167867703Y-99869523D02*
X167820084Y-99869523D01*
X167820084Y-99869523D02*
X167724846Y-99821904D01*
X167724846Y-99821904D02*
X167677227Y-99774285D01*
X167677227Y-99774285D02*
X167629608Y-99679047D01*
X167629608Y-99679047D02*
X167629608Y-99488571D01*
X167629608Y-99488571D02*
X167581989Y-99393333D01*
X167581989Y-99393333D02*
X167534370Y-99345714D01*
X167534370Y-99345714D02*
X167439132Y-99298095D01*
X167439132Y-99298095D02*
X167248656Y-99298095D01*
X167248656Y-99298095D02*
X167153418Y-99345714D01*
X167153418Y-99345714D02*
X167105799Y-99393333D01*
X167105799Y-99393333D02*
X167058179Y-99488571D01*
X167058179Y-99488571D02*
X167058179Y-99679047D01*
X167058179Y-99679047D02*
X167105799Y-99774285D01*
X167105799Y-99774285D02*
X167153418Y-99821904D01*
X167153418Y-99821904D02*
X167248656Y-99869523D01*
X167248656Y-99869523D02*
X167439132Y-99869523D01*
X167439132Y-99869523D02*
X167534370Y-99821904D01*
X167534370Y-99821904D02*
X167581989Y-99774285D01*
X167581989Y-99774285D02*
X167629608Y-99679047D01*
X137882332Y-84782819D02*
X137548999Y-84306628D01*
X137310904Y-84782819D02*
X137310904Y-83782819D01*
X137310904Y-83782819D02*
X137691856Y-83782819D01*
X137691856Y-83782819D02*
X137787094Y-83830438D01*
X137787094Y-83830438D02*
X137834713Y-83878057D01*
X137834713Y-83878057D02*
X137882332Y-83973295D01*
X137882332Y-83973295D02*
X137882332Y-84116152D01*
X137882332Y-84116152D02*
X137834713Y-84211390D01*
X137834713Y-84211390D02*
X137787094Y-84259009D01*
X137787094Y-84259009D02*
X137691856Y-84306628D01*
X137691856Y-84306628D02*
X137310904Y-84306628D01*
X138834713Y-84782819D02*
X138263285Y-84782819D01*
X138548999Y-84782819D02*
X138548999Y-83782819D01*
X138548999Y-83782819D02*
X138453761Y-83925676D01*
X138453761Y-83925676D02*
X138358523Y-84020914D01*
X138358523Y-84020914D02*
X138263285Y-84068533D01*
X135821439Y-95076085D02*
X135760963Y-95045847D01*
X135760963Y-95045847D02*
X135700487Y-94985371D01*
X135700487Y-94985371D02*
X135609773Y-94894656D01*
X135609773Y-94894656D02*
X135549296Y-94864418D01*
X135549296Y-94864418D02*
X135488820Y-94864418D01*
X135519058Y-95015609D02*
X135458582Y-94985371D01*
X135458582Y-94985371D02*
X135398106Y-94924894D01*
X135398106Y-94924894D02*
X135367868Y-94803942D01*
X135367868Y-94803942D02*
X135367868Y-94592275D01*
X135367868Y-94592275D02*
X135398106Y-94471323D01*
X135398106Y-94471323D02*
X135458582Y-94410847D01*
X135458582Y-94410847D02*
X135519058Y-94380609D01*
X135519058Y-94380609D02*
X135640011Y-94380609D01*
X135640011Y-94380609D02*
X135700487Y-94410847D01*
X135700487Y-94410847D02*
X135760963Y-94471323D01*
X135760963Y-94471323D02*
X135791201Y-94592275D01*
X135791201Y-94592275D02*
X135791201Y-94803942D01*
X135791201Y-94803942D02*
X135760963Y-94924894D01*
X135760963Y-94924894D02*
X135700487Y-94985371D01*
X135700487Y-94985371D02*
X135640011Y-95015609D01*
X135640011Y-95015609D02*
X135519058Y-95015609D01*
X136033106Y-94441085D02*
X136063344Y-94410847D01*
X136063344Y-94410847D02*
X136123820Y-94380609D01*
X136123820Y-94380609D02*
X136275011Y-94380609D01*
X136275011Y-94380609D02*
X136335487Y-94410847D01*
X136335487Y-94410847D02*
X136365725Y-94441085D01*
X136365725Y-94441085D02*
X136395963Y-94501561D01*
X136395963Y-94501561D02*
X136395963Y-94562037D01*
X136395963Y-94562037D02*
X136365725Y-94652751D01*
X136365725Y-94652751D02*
X136002868Y-95015609D01*
X136002868Y-95015609D02*
X136395963Y-95015609D01*
X153027141Y-87354580D02*
X152979522Y-87402200D01*
X152979522Y-87402200D02*
X152836665Y-87449819D01*
X152836665Y-87449819D02*
X152741427Y-87449819D01*
X152741427Y-87449819D02*
X152598570Y-87402200D01*
X152598570Y-87402200D02*
X152503332Y-87306961D01*
X152503332Y-87306961D02*
X152455713Y-87211723D01*
X152455713Y-87211723D02*
X152408094Y-87021247D01*
X152408094Y-87021247D02*
X152408094Y-86878390D01*
X152408094Y-86878390D02*
X152455713Y-86687914D01*
X152455713Y-86687914D02*
X152503332Y-86592676D01*
X152503332Y-86592676D02*
X152598570Y-86497438D01*
X152598570Y-86497438D02*
X152741427Y-86449819D01*
X152741427Y-86449819D02*
X152836665Y-86449819D01*
X152836665Y-86449819D02*
X152979522Y-86497438D01*
X152979522Y-86497438D02*
X153027141Y-86545057D01*
X153408094Y-86545057D02*
X153455713Y-86497438D01*
X153455713Y-86497438D02*
X153550951Y-86449819D01*
X153550951Y-86449819D02*
X153789046Y-86449819D01*
X153789046Y-86449819D02*
X153884284Y-86497438D01*
X153884284Y-86497438D02*
X153931903Y-86545057D01*
X153931903Y-86545057D02*
X153979522Y-86640295D01*
X153979522Y-86640295D02*
X153979522Y-86735533D01*
X153979522Y-86735533D02*
X153931903Y-86878390D01*
X153931903Y-86878390D02*
X153360475Y-87449819D01*
X153360475Y-87449819D02*
X153979522Y-87449819D01*
X154360475Y-86545057D02*
X154408094Y-86497438D01*
X154408094Y-86497438D02*
X154503332Y-86449819D01*
X154503332Y-86449819D02*
X154741427Y-86449819D01*
X154741427Y-86449819D02*
X154836665Y-86497438D01*
X154836665Y-86497438D02*
X154884284Y-86545057D01*
X154884284Y-86545057D02*
X154931903Y-86640295D01*
X154931903Y-86640295D02*
X154931903Y-86735533D01*
X154931903Y-86735533D02*
X154884284Y-86878390D01*
X154884284Y-86878390D02*
X154312856Y-87449819D01*
X154312856Y-87449819D02*
X154931903Y-87449819D01*
X138453951Y-101927819D02*
X138120618Y-101451628D01*
X137882523Y-101927819D02*
X137882523Y-100927819D01*
X137882523Y-100927819D02*
X138263475Y-100927819D01*
X138263475Y-100927819D02*
X138358713Y-100975438D01*
X138358713Y-100975438D02*
X138406332Y-101023057D01*
X138406332Y-101023057D02*
X138453951Y-101118295D01*
X138453951Y-101118295D02*
X138453951Y-101261152D01*
X138453951Y-101261152D02*
X138406332Y-101356390D01*
X138406332Y-101356390D02*
X138358713Y-101404009D01*
X138358713Y-101404009D02*
X138263475Y-101451628D01*
X138263475Y-101451628D02*
X137882523Y-101451628D01*
X139406332Y-101927819D02*
X138834904Y-101927819D01*
X139120618Y-101927819D02*
X139120618Y-100927819D01*
X139120618Y-100927819D02*
X139025380Y-101070676D01*
X139025380Y-101070676D02*
X138930142Y-101165914D01*
X138930142Y-101165914D02*
X138834904Y-101213533D01*
X140358713Y-101927819D02*
X139787285Y-101927819D01*
X140072999Y-101927819D02*
X140072999Y-100927819D01*
X140072999Y-100927819D02*
X139977761Y-101070676D01*
X139977761Y-101070676D02*
X139882523Y-101165914D01*
X139882523Y-101165914D02*
X139787285Y-101213533D01*
X160401094Y-85298819D02*
X160401094Y-86108342D01*
X160401094Y-86108342D02*
X160448713Y-86203580D01*
X160448713Y-86203580D02*
X160496332Y-86251200D01*
X160496332Y-86251200D02*
X160591570Y-86298819D01*
X160591570Y-86298819D02*
X160782046Y-86298819D01*
X160782046Y-86298819D02*
X160877284Y-86251200D01*
X160877284Y-86251200D02*
X160924903Y-86203580D01*
X160924903Y-86203580D02*
X160972522Y-86108342D01*
X160972522Y-86108342D02*
X160972522Y-85298819D01*
X161496332Y-86298819D02*
X161686808Y-86298819D01*
X161686808Y-86298819D02*
X161782046Y-86251200D01*
X161782046Y-86251200D02*
X161829665Y-86203580D01*
X161829665Y-86203580D02*
X161924903Y-86060723D01*
X161924903Y-86060723D02*
X161972522Y-85870247D01*
X161972522Y-85870247D02*
X161972522Y-85489295D01*
X161972522Y-85489295D02*
X161924903Y-85394057D01*
X161924903Y-85394057D02*
X161877284Y-85346438D01*
X161877284Y-85346438D02*
X161782046Y-85298819D01*
X161782046Y-85298819D02*
X161591570Y-85298819D01*
X161591570Y-85298819D02*
X161496332Y-85346438D01*
X161496332Y-85346438D02*
X161448713Y-85394057D01*
X161448713Y-85394057D02*
X161401094Y-85489295D01*
X161401094Y-85489295D02*
X161401094Y-85727390D01*
X161401094Y-85727390D02*
X161448713Y-85822628D01*
X161448713Y-85822628D02*
X161496332Y-85870247D01*
X161496332Y-85870247D02*
X161591570Y-85917866D01*
X161591570Y-85917866D02*
X161782046Y-85917866D01*
X161782046Y-85917866D02*
X161877284Y-85870247D01*
X161877284Y-85870247D02*
X161924903Y-85822628D01*
X161924903Y-85822628D02*
X161972522Y-85727390D01*
X152273094Y-75334819D02*
X152273094Y-76144342D01*
X152273094Y-76144342D02*
X152320713Y-76239580D01*
X152320713Y-76239580D02*
X152368332Y-76287200D01*
X152368332Y-76287200D02*
X152463570Y-76334819D01*
X152463570Y-76334819D02*
X152654046Y-76334819D01*
X152654046Y-76334819D02*
X152749284Y-76287200D01*
X152749284Y-76287200D02*
X152796903Y-76239580D01*
X152796903Y-76239580D02*
X152844522Y-76144342D01*
X152844522Y-76144342D02*
X152844522Y-75334819D01*
X153225475Y-75334819D02*
X153892141Y-75334819D01*
X153892141Y-75334819D02*
X153463570Y-76334819D01*
D13*
%TO.C,J3*%
X108408000Y-92407000D02*
X114408000Y-92407000D01*
X108408000Y-93267000D02*
X108408000Y-92407000D01*
X108408000Y-94947000D02*
X114408000Y-94947000D01*
X108408000Y-95807000D02*
X108408000Y-94947000D01*
X108408000Y-97487000D02*
X114408000Y-97487000D01*
X108408000Y-98347000D02*
X108408000Y-97487000D01*
X108408000Y-100027000D02*
X114408000Y-100027000D01*
X108408000Y-100887000D02*
X108408000Y-100027000D01*
X108408000Y-102567000D02*
X114408000Y-102567000D01*
X108408000Y-103427000D02*
X108408000Y-102567000D01*
X114408000Y-91457000D02*
X114408000Y-106917000D01*
X114408000Y-93267000D02*
X108408000Y-93267000D01*
X114408000Y-95807000D02*
X108408000Y-95807000D01*
X114408000Y-98347000D02*
X108408000Y-98347000D01*
X114408000Y-100887000D02*
X108408000Y-100887000D01*
X114408000Y-103427000D02*
X108408000Y-103427000D01*
X114408000Y-106917000D02*
X117168000Y-106917000D01*
X117168000Y-91457000D02*
X114408000Y-91457000D01*
X117168000Y-94107000D02*
X114408000Y-94107000D01*
X117168000Y-96647000D02*
X114408000Y-96647000D01*
X117168000Y-99187000D02*
X114408000Y-99187000D01*
X117168000Y-101727000D02*
X114408000Y-101727000D01*
X117168000Y-104267000D02*
X114408000Y-104267000D01*
X117168000Y-106917000D02*
X117168000Y-91457000D01*
X117398000Y-105107000D02*
X117168000Y-105107000D01*
X117398000Y-105967000D02*
X117168000Y-105967000D01*
X117480642Y-92407000D02*
X117168000Y-92407000D01*
X117480642Y-93267000D02*
X117168000Y-93267000D01*
X117480642Y-94947000D02*
X117168000Y-94947000D01*
X117480642Y-95807000D02*
X117168000Y-95807000D01*
X117480642Y-97487000D02*
X117168000Y-97487000D01*
X117480642Y-98347000D02*
X117168000Y-98347000D01*
X117480642Y-100027000D02*
X117168000Y-100027000D01*
X117480642Y-100887000D02*
X117168000Y-100887000D01*
X117480642Y-102567000D02*
X117168000Y-102567000D01*
X117480642Y-103427000D02*
X117168000Y-103427000D01*
X119828000Y-105537000D02*
X119828000Y-106807000D01*
X119828000Y-106807000D02*
X118558000Y-106807000D01*
X114408000Y-105967000D02*
X108408000Y-105967000D01*
X108408000Y-105107000D01*
X114408000Y-105107000D01*
X114408000Y-105967000D01*
G36*
X114408000Y-105967000D02*
G01*
X108408000Y-105967000D01*
X108408000Y-105107000D01*
X114408000Y-105107000D01*
X114408000Y-105967000D01*
G37*
%TO.C,R3*%
X123441999Y-77815221D02*
X123441999Y-78140779D01*
X124461999Y-77815221D02*
X124461999Y-78140779D01*
%TO.C,J2*%
X118346000Y-76197000D02*
X110727000Y-76197000D01*
X118346000Y-78517000D02*
X110727000Y-78517000D01*
X118346000Y-80233000D02*
X110727000Y-80233000D01*
X118346000Y-82553000D02*
X110727000Y-82553000D01*
%TO.C,R7*%
X136649999Y-92618779D02*
X136649999Y-92293221D01*
X137669999Y-92618779D02*
X137669999Y-92293221D01*
%TO.C,Q1*%
X125058999Y-74295000D02*
X125058999Y-73645000D01*
X125058999Y-74295000D02*
X125058999Y-75970000D01*
X128178999Y-74295000D02*
X128178999Y-73645000D01*
X128178999Y-74295000D02*
X128178999Y-74945000D01*
%TO.C,C16*%
X151673778Y-94994000D02*
X151348220Y-94994000D01*
X151673778Y-96014000D02*
X151348220Y-96014000D01*
%TO.C,C24*%
X154556999Y-94396779D02*
X154556999Y-94071221D01*
X155576999Y-94396779D02*
X155576999Y-94071221D01*
%TO.C,J5*%
X149032999Y-72069000D02*
X149032999Y-70739000D01*
X150362999Y-72069000D02*
X149032999Y-72069000D01*
X151632999Y-69409000D02*
X154232999Y-69409000D01*
X151632999Y-72069000D02*
X151632999Y-69409000D01*
X151632999Y-72069000D02*
X154232999Y-72069000D01*
X154232999Y-72069000D02*
X154232999Y-69409000D01*
%TO.C,Q3*%
X133039999Y-91696000D02*
X133039999Y-93856000D01*
X133039999Y-91696000D02*
X133969999Y-91696000D01*
X136199999Y-91696000D02*
X135269999Y-91696000D01*
X136199999Y-91696000D02*
X136199999Y-93156000D01*
%TO.C,C3*%
X134457220Y-76325000D02*
X134782778Y-76325000D01*
X134457220Y-77345000D02*
X134782778Y-77345000D01*
%TO.C,C20*%
X155483778Y-74420000D02*
X155158220Y-74420000D01*
X155483778Y-75440000D02*
X155158220Y-75440000D01*
D14*
%TO.C,D2*%
X124015500Y-81661000D02*
X124015500Y-87503000D01*
X124015500Y-87503000D02*
X124686060Y-87503000D01*
X124686060Y-81661000D02*
X124015500Y-81661000D01*
X126111000Y-80264000D02*
X125476000Y-81026000D01*
X126111000Y-80264000D02*
X125603000Y-81026000D01*
X126111000Y-80264000D02*
X125730000Y-81026000D01*
X126111000Y-80264000D02*
X125857000Y-81026000D01*
X126111000Y-80264000D02*
X125984000Y-81026000D01*
X126111000Y-80264000D02*
X126238000Y-81026000D01*
X126111000Y-80264000D02*
X126365000Y-81026000D01*
X126111000Y-80264000D02*
X126492000Y-81026000D01*
X126111000Y-80264000D02*
X126619000Y-81026000D01*
X126111000Y-80264000D02*
X126746000Y-81026000D01*
X126111000Y-81280000D02*
X126111000Y-80010000D01*
X126746000Y-80264000D02*
X125476000Y-80264000D01*
X126746000Y-81026000D02*
X125476000Y-81026000D01*
X127535940Y-87503000D02*
X128206500Y-87503000D01*
X128206500Y-81661000D02*
X127535940Y-81661000D01*
X128206500Y-87503000D02*
X128206500Y-81661000D01*
D13*
%TO.C,R23*%
X158206220Y-78484000D02*
X158531778Y-78484000D01*
X158206220Y-79504000D02*
X158531778Y-79504000D01*
%TO.C,R30*%
X153286999Y-91023221D02*
X153286999Y-91348779D01*
X154306999Y-91023221D02*
X154306999Y-91348779D01*
%TO.C,C2*%
X134457220Y-74801000D02*
X134782778Y-74801000D01*
X134457220Y-75821000D02*
X134782778Y-75821000D01*
D15*
%TO.C,U5*%
X131749999Y-101547000D02*
X132409999Y-101547000D01*
X132409999Y-104447000D02*
X131749999Y-104447000D01*
X132879999Y-102662000D02*
X132879999Y-103332000D01*
D16*
X129769999Y-101947000D02*
G75*
G02*
X129569999Y-101947000I-100000J0D01*
G01*
X129569999Y-101947000D02*
G75*
G02*
X129769999Y-101947000I100000J0D01*
G01*
D13*
%TO.C,D4*%
X168367999Y-77907000D02*
X168367999Y-79827000D01*
X168367999Y-79827000D02*
X171052999Y-79827000D01*
X171052999Y-77907000D02*
X168367999Y-77907000D01*
%TO.C,C1*%
X134457220Y-73277000D02*
X134782778Y-73277000D01*
X134457220Y-74297000D02*
X134782778Y-74297000D01*
D17*
%TO.C,U2*%
X141595999Y-99816000D02*
X141595999Y-105416000D01*
X149995999Y-105416000D02*
X149995999Y-99816000D01*
D15*
X141659499Y-106866000D02*
G75*
G02*
X141532499Y-106866000I-63500J0D01*
G01*
X141532499Y-106866000D02*
G75*
G02*
X141659499Y-106866000I63500J0D01*
G01*
D13*
%TO.C,C13*%
X134878577Y-69775000D02*
X134361421Y-69775000D01*
X134878577Y-71195000D02*
X134361421Y-71195000D01*
%TO.C,R5*%
X131569999Y-92293221D02*
X131569999Y-92618779D01*
X132589999Y-92293221D02*
X132589999Y-92618779D01*
%TO.C,R9*%
X136616220Y-102487000D02*
X136941778Y-102487000D01*
X136616220Y-103507000D02*
X136941778Y-103507000D01*
%TO.C,R6*%
X136649999Y-96174779D02*
X136649999Y-95849221D01*
X137669999Y-96174779D02*
X137669999Y-95849221D01*
%TO.C,R13*%
X152524999Y-109692221D02*
X152524999Y-110017779D01*
X153544999Y-109692221D02*
X153544999Y-110017779D01*
%TO.C,C18*%
X157096999Y-81117221D02*
X157096999Y-81442779D01*
X158116999Y-81117221D02*
X158116999Y-81442779D01*
%TO.C,C17*%
X148079999Y-80807779D02*
X148079999Y-80482221D01*
X149099999Y-80807779D02*
X149099999Y-80482221D01*
D12*
%TO.C,C8*%
X142903999Y-89691000D02*
X145303999Y-89691000D01*
X142903999Y-96491000D02*
X142903999Y-89691000D01*
X143503999Y-96491000D02*
X142903999Y-95791000D01*
X145303999Y-96491000D02*
X142903999Y-96491000D01*
X149703999Y-89691000D02*
X147303999Y-89691000D01*
X149703999Y-95791000D02*
X149003999Y-96491000D01*
X149703999Y-96491000D02*
X147303999Y-96491000D01*
X149703999Y-96491000D02*
X149703999Y-89691000D01*
D13*
%TO.C,C14*%
X141386778Y-84072000D02*
X141061220Y-84072000D01*
X141386778Y-85092000D02*
X141061220Y-85092000D01*
%TO.C,D3*%
X168367999Y-75748000D02*
X168367999Y-77668000D01*
X168367999Y-77668000D02*
X171052999Y-77668000D01*
X171052999Y-75748000D02*
X168367999Y-75748000D01*
%TO.C,R27*%
X166588220Y-78357000D02*
X166913778Y-78357000D01*
X166588220Y-79377000D02*
X166913778Y-79377000D01*
%TO.C,C12*%
X158874999Y-102524779D02*
X158874999Y-102199221D01*
X159894999Y-102524779D02*
X159894999Y-102199221D01*
%TO.C,C19*%
X167637999Y-102524779D02*
X167637999Y-102199221D01*
X168657999Y-102524779D02*
X168657999Y-102199221D01*
%TO.C,R29*%
X155483778Y-72896000D02*
X155158220Y-72896000D01*
X155483778Y-73916000D02*
X155158220Y-73916000D01*
%TO.C,R14*%
X149476999Y-109692221D02*
X149476999Y-110017779D01*
X150496999Y-109692221D02*
X150496999Y-110017779D01*
%TO.C,C10*%
X136941778Y-99439000D02*
X136616220Y-99439000D01*
X136941778Y-100459000D02*
X136616220Y-100459000D01*
%TO.C,C23*%
X165826220Y-95756000D02*
X166151778Y-95756000D01*
X165826220Y-96776000D02*
X166151778Y-96776000D01*
%TO.C,C6*%
X134457220Y-88263000D02*
X134782778Y-88263000D01*
X134457220Y-89283000D02*
X134782778Y-89283000D01*
%TO.C,R24*%
X158206220Y-76960000D02*
X158531778Y-76960000D01*
X158206220Y-77980000D02*
X158531778Y-77980000D01*
%TO.C,C21*%
X165224999Y-87030779D02*
X165224999Y-86705221D01*
X166244999Y-87030779D02*
X166244999Y-86705221D01*
%TO.C,D1*%
X126618999Y-76418000D02*
X124943999Y-76418000D01*
X126618999Y-76418000D02*
X127268999Y-76418000D01*
X126618999Y-79538000D02*
X125968999Y-79538000D01*
X126618999Y-79538000D02*
X127268999Y-79538000D01*
%TO.C,U6*%
X153268999Y-102362000D02*
X153268999Y-100412000D01*
X153268999Y-102362000D02*
X153268999Y-104312000D01*
X158388999Y-102362000D02*
X158388999Y-98912000D01*
X158388999Y-102362000D02*
X158388999Y-104312000D01*
%TO.C,R22*%
X147228778Y-82548000D02*
X146903220Y-82548000D01*
X147228778Y-83568000D02*
X146903220Y-83568000D01*
%TO.C,R18*%
X134782778Y-71753000D02*
X134457220Y-71753000D01*
X134782778Y-72773000D02*
X134457220Y-72773000D01*
%TO.C,R17*%
X151000999Y-110017779D02*
X151000999Y-109692221D01*
X152020999Y-110017779D02*
X152020999Y-109692221D01*
%TO.C,C11*%
X132242778Y-99947000D02*
X131917220Y-99947000D01*
X132242778Y-100967000D02*
X131917220Y-100967000D01*
%TO.C,U4*%
X140207999Y-90896000D02*
X139432999Y-90896000D01*
X140207999Y-90896000D02*
X140982999Y-90896000D01*
X140207999Y-94016000D02*
X139432999Y-94016000D01*
X140207999Y-94016000D02*
X140982999Y-94016000D01*
X138845499Y-90946000D02*
X138605499Y-90616000D01*
X139085499Y-90616000D01*
X138845499Y-90946000D01*
G36*
X138845499Y-90946000D02*
G01*
X138605499Y-90616000D01*
X139085499Y-90616000D01*
X138845499Y-90946000D01*
G37*
%TO.C,R28*%
X169001220Y-105408000D02*
X169326778Y-105408000D01*
X169001220Y-106428000D02*
X169326778Y-106428000D01*
%TO.C,R19*%
X151348220Y-93470000D02*
X151673778Y-93470000D01*
X151348220Y-94490000D02*
X151673778Y-94490000D01*
%TO.C,R26*%
X166588220Y-76198000D02*
X166913778Y-76198000D01*
X166588220Y-77218000D02*
X166913778Y-77218000D01*
%TO.C,R20*%
X146903220Y-84072000D02*
X147228778Y-84072000D01*
X146903220Y-85092000D02*
X147228778Y-85092000D01*
%TO.C,U1*%
X130392999Y-77870000D02*
X136402999Y-77870000D01*
X132642999Y-84690000D02*
X136402999Y-84690000D01*
X136402999Y-77870000D02*
X136402999Y-79130000D01*
X136402999Y-84690000D02*
X136402999Y-83430000D01*
%TO.C,R2*%
X137505220Y-86739000D02*
X137830778Y-86739000D01*
X137505220Y-87759000D02*
X137830778Y-87759000D01*
D14*
%TO.C,R10*%
X122580399Y-107670600D02*
X122580399Y-113817400D01*
X122580399Y-113817400D02*
X137109199Y-113817400D01*
X137109199Y-107670600D02*
X122580399Y-107670600D01*
X137109199Y-113817400D02*
X137109199Y-107670600D01*
D13*
%TO.C,R16*%
X154048999Y-109692221D02*
X154048999Y-110017779D01*
X155068999Y-109692221D02*
X155068999Y-110017779D01*
%TO.C,J1*%
X118346000Y-84071000D02*
X110727000Y-84071000D01*
X118346000Y-86391000D02*
X110727000Y-86391000D01*
X118346000Y-88107000D02*
X110727000Y-88107000D01*
X118346000Y-90427000D02*
X110727000Y-90427000D01*
%TO.C,C4*%
X134457220Y-85215000D02*
X134782778Y-85215000D01*
X134457220Y-86235000D02*
X134782778Y-86235000D01*
%TO.C,R15*%
X146428999Y-110017779D02*
X146428999Y-109692221D01*
X147448999Y-110017779D02*
X147448999Y-109692221D01*
%TO.C,Y1*%
X150410999Y-89386000D02*
X150410999Y-89586000D01*
X150410999Y-89586000D02*
X152610999Y-89586000D01*
X150410999Y-92786000D02*
X150410999Y-89586000D01*
X152610999Y-89386000D02*
X150410999Y-89386000D01*
X152610999Y-89586000D02*
X152610999Y-89386000D01*
X152610999Y-89586000D02*
X152610999Y-92786000D01*
X152610999Y-92786000D02*
X150410999Y-92786000D01*
%TO.C,R21*%
X146903220Y-85596000D02*
X147228778Y-85596000D01*
X146903220Y-86616000D02*
X147228778Y-86616000D01*
%TO.C,R25*%
X158206220Y-75436000D02*
X158531778Y-75436000D01*
X158206220Y-76456000D02*
X158531778Y-76456000D01*
D14*
%TO.C,F1*%
X117214696Y-75234800D02*
X120021302Y-75234800D01*
X120021302Y-71577200D02*
X117214696Y-71577200D01*
D13*
%TO.C,C7*%
X150746999Y-104048779D02*
X150746999Y-103723221D01*
X151766999Y-104048779D02*
X151766999Y-103723221D01*
%TO.C,C9*%
X150746999Y-101000779D02*
X150746999Y-100675221D01*
X151766999Y-101000779D02*
X151766999Y-100675221D01*
%TO.C,U3*%
X140207999Y-94452000D02*
X139432999Y-94452000D01*
X140207999Y-94452000D02*
X140982999Y-94452000D01*
X140207999Y-97572000D02*
X139432999Y-97572000D01*
X140207999Y-97572000D02*
X140982999Y-97572000D01*
X138845499Y-94502000D02*
X138605499Y-94172000D01*
X139085499Y-94172000D01*
X138845499Y-94502000D01*
G36*
X138845499Y-94502000D02*
G01*
X138605499Y-94172000D01*
X139085499Y-94172000D01*
X138845499Y-94502000D01*
G37*
%TO.C,R4*%
X131569999Y-95849221D02*
X131569999Y-96174779D01*
X132589999Y-95849221D02*
X132589999Y-96174779D01*
%TO.C,R12*%
X147952999Y-109692221D02*
X147952999Y-110017779D01*
X148972999Y-109692221D02*
X148972999Y-110017779D01*
%TO.C,C5*%
X134457220Y-86739000D02*
X134782778Y-86739000D01*
X134457220Y-87759000D02*
X134782778Y-87759000D01*
%TO.C,J6*%
X155895999Y-72069000D02*
X155895999Y-70739000D01*
X157225999Y-72069000D02*
X155895999Y-72069000D01*
X158495999Y-69409000D02*
X166175999Y-69409000D01*
X158495999Y-72069000D02*
X158495999Y-69409000D01*
X158495999Y-72069000D02*
X166175999Y-72069000D01*
X166175999Y-72069000D02*
X166175999Y-69409000D01*
%TO.C,C15*%
X141386778Y-85596000D02*
X141061220Y-85596000D01*
X141386778Y-86616000D02*
X141061220Y-86616000D01*
%TO.C,R8*%
X139029220Y-105281000D02*
X139354778Y-105281000D01*
X139029220Y-106301000D02*
X139354778Y-106301000D01*
D12*
%TO.C,J4*%
X138302999Y-68748000D02*
X138302999Y-70198000D01*
X138302999Y-73098000D02*
X138302999Y-75698000D01*
X147319999Y-68748000D02*
X138302999Y-68748000D01*
X147319999Y-68748000D02*
X147319999Y-70198000D01*
X147319999Y-73098000D02*
X147319999Y-75698000D01*
D14*
%TO.C,U8*%
X161556699Y-100126800D02*
X161556699Y-104597200D01*
X161556699Y-104597200D02*
X161820859Y-104597200D01*
X161820859Y-100126800D02*
X161556699Y-100126800D01*
X166855139Y-98806000D02*
X166855139Y-100126800D01*
X166855139Y-104597200D02*
X167119299Y-104597200D01*
X167119299Y-100126800D02*
X166855139Y-100126800D01*
X167119299Y-104597200D02*
X167119299Y-100126800D01*
D13*
%TO.C,R1*%
X137505220Y-85215000D02*
X137830778Y-85215000D01*
X137505220Y-86235000D02*
X137830778Y-86235000D01*
%TO.C,J8*%
X170373999Y-86309999D02*
X171703999Y-86309999D01*
X170373999Y-87639999D02*
X170373999Y-86309999D01*
X170373999Y-88909999D02*
X170373999Y-96589999D01*
X170373999Y-88909999D02*
X173033999Y-88909999D01*
X170373999Y-96589999D02*
X173033999Y-96589999D01*
X173033999Y-88909999D02*
X173033999Y-96589999D01*
%TO.C,J7*%
X156400070Y-109431666D02*
X156400070Y-114007900D01*
X156400070Y-114007900D02*
X166029570Y-114007900D01*
X163552024Y-108723100D02*
X158824478Y-108724700D01*
X166029570Y-114007900D02*
X166029570Y-109431666D01*
X166587624Y-109994700D02*
G75*
G02*
X166232024Y-109994700I-177800J0D01*
G01*
X166232024Y-109994700D02*
G75*
G02*
X166587624Y-109994700I177800J0D01*
G01*
%TO.C,Q2*%
X133039999Y-95252000D02*
X133039999Y-97412000D01*
X133039999Y-95252000D02*
X133969999Y-95252000D01*
X136199999Y-95252000D02*
X135269999Y-95252000D01*
X136199999Y-95252000D02*
X136199999Y-96712000D01*
%TO.C,C22*%
X156626778Y-86485000D02*
X156301220Y-86485000D01*
X156626778Y-87505000D02*
X156301220Y-87505000D01*
%TO.C,R11*%
X136616220Y-100963000D02*
X136941778Y-100963000D01*
X136616220Y-101983000D02*
X136941778Y-101983000D01*
%TO.C,U9*%
X157552999Y-88084000D02*
X157552999Y-88534000D01*
X157552999Y-88534000D02*
X156262999Y-88534000D01*
X157552999Y-95304000D02*
X157552999Y-94854000D01*
X158002999Y-88084000D02*
X157552999Y-88084000D01*
X158002999Y-95304000D02*
X157552999Y-95304000D01*
X164322999Y-88084000D02*
X164772999Y-88084000D01*
X164322999Y-95304000D02*
X164772999Y-95304000D01*
X164772999Y-88084000D02*
X164772999Y-88534000D01*
X164772999Y-95304000D02*
X164772999Y-94854000D01*
D12*
%TO.C,U7*%
X150959999Y-76805000D02*
X155109999Y-76805000D01*
X150959999Y-77915000D02*
X149834999Y-77915000D01*
X150959999Y-77915000D02*
X150959999Y-76805000D01*
X150959999Y-85755000D02*
X150959999Y-84645000D01*
X150959999Y-85755000D02*
X155109999Y-85755000D01*
X155109999Y-76805000D02*
X155109999Y-77915000D01*
X155109999Y-85755000D02*
X155109999Y-84645000D01*
%TD*%
M02*
