%TF.GenerationSoftware,KiCad,Pcbnew,9.0.1*%
%TF.CreationDate,2025-05-27T12:36:52-05:00*%
%TF.ProjectId,Motor_PCB,4d6f746f-725f-4504-9342-2e6b69636164,1.2*%
%TF.SameCoordinates,Original*%
%TF.FileFunction,Soldermask,Top*%
%TF.FilePolarity,Negative*%
%FSLAX46Y46*%
G04 Gerber Fmt 4.6, Leading zero omitted, Abs format (unit mm)*
G04 Created by KiCad (PCBNEW 9.0.1) date 2025-05-27 12:36:52*
%MOMM*%
%LPD*%
G01*
G04 APERTURE LIST*
G04 Aperture macros list*
%AMRoundRect*
0 Rectangle with rounded corners*
0 $1 Rounding radius*
0 $2 $3 $4 $5 $6 $7 $8 $9 X,Y pos of 4 corners*
0 Add a 4 corners polygon primitive as box body*
4,1,4,$2,$3,$4,$5,$6,$7,$8,$9,$2,$3,0*
0 Add four circle primitives for the rounded corners*
1,1,$1+$1,$2,$3*
1,1,$1+$1,$4,$5*
1,1,$1+$1,$6,$7*
1,1,$1+$1,$8,$9*
0 Add four rect primitives between the rounded corners*
20,1,$1+$1,$2,$3,$4,$5,0*
20,1,$1+$1,$4,$5,$6,$7,0*
20,1,$1+$1,$6,$7,$8,$9,0*
20,1,$1+$1,$8,$9,$2,$3,0*%
G04 Aperture macros list end*
%ADD10R,1.700000X1.700000*%
%ADD11C,1.700000*%
%ADD12RoundRect,0.218750X-0.256250X0.218750X-0.256250X-0.218750X0.256250X-0.218750X0.256250X0.218750X0*%
%ADD13C,2.600000*%
%ADD14RoundRect,0.249900X-0.800100X0.800100X-0.800100X-0.800100X0.800100X-0.800100X0.800100X0.800100X0*%
%ADD15C,2.100000*%
%ADD16C,3.810000*%
%ADD17RoundRect,0.218750X0.256250X-0.218750X0.256250X0.218750X-0.256250X0.218750X-0.256250X-0.218750X0*%
%ADD18RoundRect,0.150000X0.150000X-0.587500X0.150000X0.587500X-0.150000X0.587500X-0.150000X-0.587500X0*%
%ADD19RoundRect,0.218750X0.218750X0.256250X-0.218750X0.256250X-0.218750X-0.256250X0.218750X-0.256250X0*%
%ADD20O,1.700000X1.700000*%
%ADD21R,0.800000X0.900000*%
%ADD22RoundRect,0.218750X-0.218750X-0.256250X0.218750X-0.256250X0.218750X0.256250X-0.218750X0.256250X0*%
%ADD23R,2.184400X2.184400*%
%ADD24RoundRect,0.119100X-0.587900X-0.277900X0.587900X-0.277900X0.587900X0.277900X-0.587900X0.277900X0*%
%ADD25RoundRect,0.243750X-0.243750X-0.456250X0.243750X-0.456250X0.243750X0.456250X-0.243750X0.456250X0*%
%ADD26C,2.000000*%
%ADD27RoundRect,0.102000X-0.200000X-0.750000X0.200000X-0.750000X0.200000X0.750000X-0.200000X0.750000X0*%
%ADD28RoundRect,0.243750X0.243750X0.456250X-0.243750X0.456250X-0.243750X-0.456250X0.243750X-0.456250X0*%
%ADD29R,1.600000X3.500000*%
%ADD30RoundRect,0.150000X-0.587500X-0.150000X0.587500X-0.150000X0.587500X0.150000X-0.587500X0.150000X0*%
%ADD31RoundRect,0.150000X-0.150000X0.825000X-0.150000X-0.825000X0.150000X-0.825000X0.150000X0.825000X0*%
%ADD32RoundRect,0.150000X-0.650000X-0.150000X0.650000X-0.150000X0.650000X0.150000X-0.650000X0.150000X0*%
%ADD33R,2.000000X1.500000*%
%ADD34R,2.000000X3.800000*%
%ADD35R,1.625600X1.625600*%
%ADD36C,1.625600*%
%ADD37R,1.900000X0.400000*%
%ADD38R,1.778000X3.505200*%
%ADD39C,1.100000*%
%ADD40R,0.500000X2.300000*%
%ADD41R,2.000000X2.500000*%
%ADD42R,0.558800X1.447800*%
%ADD43C,2.032000*%
%ADD44C,1.524000*%
%ADD45RoundRect,0.075000X-0.662500X-0.075000X0.662500X-0.075000X0.662500X0.075000X-0.662500X0.075000X0*%
%ADD46RoundRect,0.075000X-0.075000X-0.662500X0.075000X-0.662500X0.075000X0.662500X-0.075000X0.662500X0*%
%ADD47R,1.200000X0.400000*%
G04 APERTURE END LIST*
D10*
%TO.C,J3*%
X118558000Y-105537000D03*
D11*
X118558000Y-102997000D03*
X118558000Y-100457000D03*
X118558000Y-97917000D03*
X118558000Y-95377000D03*
X118558000Y-92837000D03*
%TD*%
D12*
%TO.C,R3*%
X123951999Y-77190500D03*
X123951999Y-78765500D03*
%TD*%
D13*
%TO.C,J2*%
X109956000Y-77357000D03*
X109956000Y-81393000D03*
D14*
X119656000Y-81393000D03*
D15*
X119656000Y-77357000D03*
%TD*%
D16*
%TO.C,H4*%
X170052998Y-110489999D03*
%TD*%
D17*
%TO.C,R7*%
X137159999Y-93243500D03*
X137159999Y-91668500D03*
%TD*%
D18*
%TO.C,Q1*%
X125668999Y-75232500D03*
X127568999Y-75232500D03*
X126618999Y-73357500D03*
%TD*%
D19*
%TO.C,C16*%
X152298499Y-95504000D03*
X150723499Y-95504000D03*
%TD*%
D17*
%TO.C,C24*%
X155066999Y-95021500D03*
X155066999Y-93446500D03*
%TD*%
D10*
%TO.C,J5*%
X150362999Y-70739000D03*
D20*
X152902999Y-70739000D03*
%TD*%
D21*
%TO.C,Q3*%
X133669999Y-93456000D03*
X135569999Y-93456000D03*
X134619999Y-91456000D03*
%TD*%
D22*
%TO.C,C3*%
X133832499Y-76835000D03*
X135407499Y-76835000D03*
%TD*%
D19*
%TO.C,C20*%
X156108499Y-74930000D03*
X154533499Y-74930000D03*
%TD*%
D23*
%TO.C,D2*%
X126111000Y-82727800D03*
X126111000Y-86436200D03*
%TD*%
D22*
%TO.C,R23*%
X157581499Y-78994000D03*
X159156499Y-78994000D03*
%TD*%
D12*
%TO.C,R30*%
X153796999Y-90398500D03*
X153796999Y-91973500D03*
%TD*%
D22*
%TO.C,C2*%
X133832499Y-75311000D03*
X135407499Y-75311000D03*
%TD*%
D24*
%TO.C,U5*%
X130824999Y-102047000D03*
X130824999Y-102997000D03*
X130824999Y-103947000D03*
X133334999Y-103947000D03*
X133334999Y-102047000D03*
%TD*%
D25*
%TO.C,D4*%
X169115499Y-78867000D03*
X170990499Y-78867000D03*
%TD*%
D22*
%TO.C,C1*%
X133832499Y-73787000D03*
X135407499Y-73787000D03*
%TD*%
D26*
%TO.C,FID1*%
X123189999Y-69977000D03*
%TD*%
D27*
%TO.C,U2*%
X142220999Y-106241000D03*
X142870999Y-106241000D03*
X143520999Y-106241000D03*
X144170999Y-106241000D03*
X144820999Y-106241000D03*
X145470999Y-106241000D03*
X146120999Y-106241000D03*
X146770999Y-106241000D03*
X147420999Y-106241000D03*
X148070999Y-106241000D03*
X148720999Y-106241000D03*
X149370999Y-106241000D03*
X149370999Y-98991000D03*
X148720999Y-98991000D03*
X148070999Y-98991000D03*
X147420999Y-98991000D03*
X146770999Y-98991000D03*
X146120999Y-98991000D03*
X145470999Y-98991000D03*
X144820999Y-98991000D03*
X144170999Y-98991000D03*
X143520999Y-98991000D03*
X142870999Y-98991000D03*
X142220999Y-98991000D03*
%TD*%
D28*
%TO.C,C13*%
X135557499Y-70485000D03*
X133682499Y-70485000D03*
%TD*%
D12*
%TO.C,R5*%
X132079999Y-91668500D03*
X132079999Y-93243500D03*
%TD*%
D26*
%TO.C,FID2*%
X172211999Y-106299000D03*
%TD*%
D22*
%TO.C,R9*%
X135991499Y-102997000D03*
X137566499Y-102997000D03*
%TD*%
D17*
%TO.C,R6*%
X137159999Y-96799500D03*
X137159999Y-95224500D03*
%TD*%
D12*
%TO.C,R13*%
X153034999Y-109067500D03*
X153034999Y-110642500D03*
%TD*%
%TO.C,C18*%
X157606999Y-80492500D03*
X157606999Y-82067500D03*
%TD*%
D17*
%TO.C,C17*%
X148589999Y-81432500D03*
X148589999Y-79857500D03*
%TD*%
D29*
%TO.C,C8*%
X146303999Y-95791000D03*
X146303999Y-90391000D03*
%TD*%
D19*
%TO.C,C14*%
X142011499Y-84582000D03*
X140436499Y-84582000D03*
%TD*%
D25*
%TO.C,D3*%
X169115499Y-76708000D03*
X170990499Y-76708000D03*
%TD*%
D22*
%TO.C,R27*%
X165963499Y-78867000D03*
X167538499Y-78867000D03*
%TD*%
D17*
%TO.C,C12*%
X159384999Y-103149500D03*
X159384999Y-101574500D03*
%TD*%
%TO.C,C19*%
X168147999Y-103149500D03*
X168147999Y-101574500D03*
%TD*%
D19*
%TO.C,R29*%
X156108499Y-73406000D03*
X154533499Y-73406000D03*
%TD*%
D12*
%TO.C,R14*%
X149986999Y-109067500D03*
X149986999Y-110642500D03*
%TD*%
D19*
%TO.C,C10*%
X137566499Y-99949000D03*
X135991499Y-99949000D03*
%TD*%
D22*
%TO.C,C23*%
X165201499Y-96266000D03*
X166776499Y-96266000D03*
%TD*%
%TO.C,C6*%
X133832499Y-88773000D03*
X135407499Y-88773000D03*
%TD*%
%TO.C,R24*%
X157581499Y-77470000D03*
X159156499Y-77470000D03*
%TD*%
D17*
%TO.C,C21*%
X165734999Y-87655500D03*
X165734999Y-86080500D03*
%TD*%
D30*
%TO.C,D1*%
X125681499Y-78928000D03*
X125681499Y-77028000D03*
X127556499Y-77978000D03*
%TD*%
D31*
%TO.C,U6*%
X157733999Y-99887000D03*
X156463999Y-99887000D03*
X155193999Y-99887000D03*
X153923999Y-99887000D03*
X153923999Y-104837000D03*
X155193999Y-104837000D03*
X156463999Y-104837000D03*
X157733999Y-104837000D03*
%TD*%
D19*
%TO.C,R22*%
X147853499Y-83058000D03*
X146278499Y-83058000D03*
%TD*%
%TO.C,R18*%
X135407499Y-72263000D03*
X133832499Y-72263000D03*
%TD*%
D17*
%TO.C,R17*%
X151510999Y-110642500D03*
X151510999Y-109067500D03*
%TD*%
D19*
%TO.C,C11*%
X132867499Y-100457000D03*
X131292499Y-100457000D03*
%TD*%
D16*
%TO.C,H3*%
X111759999Y-110489999D03*
%TD*%
D32*
%TO.C,U4*%
X139057999Y-91506000D03*
X139057999Y-92456000D03*
X139057999Y-93406000D03*
X141357999Y-93406000D03*
X141357999Y-91506000D03*
%TD*%
D22*
%TO.C,R28*%
X168376499Y-105918000D03*
X169951499Y-105918000D03*
%TD*%
%TO.C,R19*%
X150723499Y-93980000D03*
X152298499Y-93980000D03*
%TD*%
%TO.C,R26*%
X165963499Y-76708000D03*
X167538499Y-76708000D03*
%TD*%
%TO.C,R20*%
X146278499Y-84582000D03*
X147853499Y-84582000D03*
%TD*%
D33*
%TO.C,U1*%
X131342999Y-78980000D03*
X131342999Y-81280000D03*
D34*
X137642999Y-81280000D03*
D33*
X131342999Y-83580000D03*
%TD*%
D22*
%TO.C,R2*%
X136880499Y-87249000D03*
X138455499Y-87249000D03*
%TD*%
D35*
%TO.C,R10*%
X119252999Y-110744000D03*
D36*
X140436599Y-110744000D03*
%TD*%
D12*
%TO.C,R16*%
X154558999Y-109067500D03*
X154558999Y-110642500D03*
%TD*%
D13*
%TO.C,J1*%
X109956000Y-85231000D03*
X109956000Y-89267000D03*
D14*
X119656000Y-89267000D03*
D15*
X119656000Y-85231000D03*
%TD*%
D22*
%TO.C,C4*%
X133832499Y-85725000D03*
X135407499Y-85725000D03*
%TD*%
D17*
%TO.C,R15*%
X146938999Y-110642500D03*
X146938999Y-109067500D03*
%TD*%
D37*
%TO.C,Y1*%
X151510999Y-89986000D03*
X151510999Y-91186000D03*
X151510999Y-92386000D03*
%TD*%
D16*
%TO.C,H2*%
X170052998Y-72389999D03*
%TD*%
D22*
%TO.C,R21*%
X146278499Y-86106000D03*
X147853499Y-86106000D03*
%TD*%
%TO.C,R25*%
X157581499Y-75946000D03*
X159156499Y-75946000D03*
%TD*%
D38*
%TO.C,F1*%
X116001799Y-73406000D03*
X121234199Y-73406000D03*
%TD*%
D17*
%TO.C,C7*%
X151256999Y-104673500D03*
X151256999Y-103098500D03*
%TD*%
%TO.C,C9*%
X151256999Y-101625500D03*
X151256999Y-100050500D03*
%TD*%
D32*
%TO.C,U3*%
X139057999Y-95062000D03*
X139057999Y-96012000D03*
X139057999Y-96962000D03*
X141357999Y-96962000D03*
X141357999Y-95062000D03*
%TD*%
D12*
%TO.C,R4*%
X132079999Y-95224500D03*
X132079999Y-96799500D03*
%TD*%
%TO.C,R12*%
X148462999Y-109067500D03*
X148462999Y-110642500D03*
%TD*%
D16*
%TO.C,H1*%
X111759999Y-72389999D03*
%TD*%
D22*
%TO.C,C5*%
X133832499Y-87249000D03*
X135407499Y-87249000D03*
%TD*%
D10*
%TO.C,J6*%
X157225999Y-70739000D03*
D20*
X159765999Y-70739000D03*
X162305999Y-70739000D03*
X164845999Y-70739000D03*
%TD*%
D19*
%TO.C,C15*%
X142011499Y-86106000D03*
X140436499Y-86106000D03*
%TD*%
D22*
%TO.C,R8*%
X138404499Y-105791000D03*
X139979499Y-105791000D03*
%TD*%
D39*
%TO.C,J4*%
X144947999Y-74648000D03*
X140547999Y-74648000D03*
D40*
X144347999Y-77248000D03*
X143547999Y-77248000D03*
X142747999Y-77248000D03*
X141947999Y-77248000D03*
X141147999Y-77248000D03*
D41*
X147097999Y-71648000D03*
X147097999Y-77148000D03*
X138397999Y-71648000D03*
X138397999Y-77148000D03*
%TD*%
D42*
%TO.C,U8*%
X166242999Y-99529900D03*
X164972999Y-99529900D03*
X163702999Y-99529900D03*
X162432999Y-99529900D03*
X162432999Y-105194100D03*
X163702999Y-105194100D03*
X164972999Y-105194100D03*
X166242999Y-105194100D03*
%TD*%
D22*
%TO.C,R1*%
X136880499Y-85725000D03*
X138455499Y-85725000D03*
%TD*%
D10*
%TO.C,J8*%
X171703999Y-87639999D03*
D20*
X171703999Y-90179999D03*
X171703999Y-92719999D03*
X171703999Y-95259999D03*
%TD*%
D43*
%TO.C,J7*%
X157479570Y-108623100D03*
X164889570Y-108623100D03*
D44*
X163092970Y-110096300D03*
X161822970Y-112636300D03*
X160552970Y-110096300D03*
X159282970Y-112636300D03*
%TD*%
D21*
%TO.C,Q2*%
X133669999Y-97012000D03*
X135569999Y-97012000D03*
X134619999Y-95012000D03*
%TD*%
D19*
%TO.C,C22*%
X157251499Y-86995000D03*
X155676499Y-86995000D03*
%TD*%
D22*
%TO.C,R11*%
X135991499Y-101473000D03*
X137566499Y-101473000D03*
%TD*%
D45*
%TO.C,U9*%
X157000499Y-88944000D03*
X157000499Y-89444000D03*
X157000499Y-89944000D03*
X157000499Y-90444000D03*
X157000499Y-90944000D03*
X157000499Y-91444000D03*
X157000499Y-91944000D03*
X157000499Y-92444000D03*
X157000499Y-92944000D03*
X157000499Y-93444000D03*
X157000499Y-93944000D03*
X157000499Y-94444000D03*
D46*
X158412999Y-95856500D03*
X158912999Y-95856500D03*
X159412999Y-95856500D03*
X159912999Y-95856500D03*
X160412999Y-95856500D03*
X160912999Y-95856500D03*
X161412999Y-95856500D03*
X161912999Y-95856500D03*
X162412999Y-95856500D03*
X162912999Y-95856500D03*
X163412999Y-95856500D03*
X163912999Y-95856500D03*
D45*
X165325499Y-94444000D03*
X165325499Y-93944000D03*
X165325499Y-93444000D03*
X165325499Y-92944000D03*
X165325499Y-92444000D03*
X165325499Y-91944000D03*
X165325499Y-91444000D03*
X165325499Y-90944000D03*
X165325499Y-90444000D03*
X165325499Y-89944000D03*
X165325499Y-89444000D03*
X165325499Y-88944000D03*
D46*
X163912999Y-87531500D03*
X163412999Y-87531500D03*
X162912999Y-87531500D03*
X162412999Y-87531500D03*
X161912999Y-87531500D03*
X161412999Y-87531500D03*
X160912999Y-87531500D03*
X160412999Y-87531500D03*
X159912999Y-87531500D03*
X159412999Y-87531500D03*
X158912999Y-87531500D03*
X158412999Y-87531500D03*
%TD*%
D47*
%TO.C,U7*%
X150434999Y-78422500D03*
X150434999Y-79057500D03*
X150434999Y-79692500D03*
X150434999Y-80327500D03*
X150434999Y-80962500D03*
X150434999Y-81597500D03*
X150434999Y-82232500D03*
X150434999Y-82867500D03*
X150434999Y-83502500D03*
X150434999Y-84137500D03*
X155634999Y-84137500D03*
X155634999Y-83502500D03*
X155634999Y-82867500D03*
X155634999Y-82232500D03*
X155634999Y-81597500D03*
X155634999Y-80962500D03*
X155634999Y-80327500D03*
X155634999Y-79692500D03*
X155634999Y-79057500D03*
X155634999Y-78422500D03*
%TD*%
M02*
